<svg width="24" height="24" viewBox="0 0 24 24" fill="none" xmlns="http://www.w3.org/2000/svg">
<path d="M11 21V2.352C10.5329 2.12309 10.0201 2.00276 9.5 2C8.79417 2.00072 8.10504 2.21483 7.52308 2.61423C6.94111 3.01362 6.4935 3.57965 6.239 4.238C5.4983 4.52465 4.87712 5.05471 4.47751 5.74108C4.07789 6.42746 3.92361 7.22934 4.04 8.015C3.71319 8.33715 3.45292 8.72042 3.274 9.143C3.232 9.243 3.21 9.352 3.174 9.456C3.13181 9.56844 3.09642 9.68332 3.068 9.8C2.97081 10.2852 2.97762 10.7856 3.088 11.268C2.75185 11.6268 2.48472 12.0444 2.3 12.5L2.285 12.536C2.18688 12.7877 2.11451 13.0487 2.069 13.315C2.02636 13.5409 2.00327 13.7701 2 14C2.00333 14.2407 2.02733 14.4793 2.072 14.716C2.12004 15.001 2.19884 15.28 2.307 15.548L2.328 15.589C2.44116 15.8453 2.58093 16.0889 2.745 16.316C2.85033 16.4627 2.96433 16.601 3.087 16.731C3.15967 16.8063 3.23467 16.8783 3.312 16.947C3.412 17.0383 3.517 17.125 3.627 17.207C3.737 17.288 3.827 17.347 3.935 17.407L3.994 17.447V17.5C3.9951 18.3466 4.3025 19.1642 4.85944 19.8019C5.41637 20.4395 6.18523 20.8541 7.024 20.969C7.55465 21.5118 8.25054 21.8629 9.0024 21.9674C9.75425 22.0718 10.5195 21.9236 11.178 21.546C11.0649 21.3861 11.0029 21.1958 11 21ZM21.934 13.32C21.8888 13.0537 21.8168 12.7927 21.719 12.541L21.702 12.503C21.517 12.0462 21.2492 11.6275 20.912 11.268C21.0245 10.7857 21.0303 10.2847 20.929 9.8C20.9021 9.68716 20.8687 9.57597 20.829 9.467C20.795 9.359 20.772 9.247 20.729 9.143C20.5501 8.72042 20.2898 8.33715 19.963 8.015C20.0792 7.22898 19.9245 6.42681 19.5243 5.74039C19.1241 5.05396 18.5023 4.52413 17.761 4.238C17.5065 3.57965 17.0589 3.01362 16.4769 2.61423C15.895 2.21483 15.2058 2.00072 14.5 2C13.9799 2.00276 13.4671 2.12309 13 2.352V21C12.9954 21.1964 12.9312 21.3868 12.816 21.546C13.4745 21.9236 14.2397 22.0718 14.9916 21.9674C15.7435 21.8629 16.4393 21.5118 16.97 20.969C17.8088 20.8541 18.5776 20.4395 19.1346 19.8019C19.6915 19.1642 19.9989 18.3466 20 17.5V17.451L20.059 17.411C20.165 17.347 20.2677 17.2803 20.367 17.211C20.516 17.107 20.581 17.042 20.682 16.951C20.7593 16.8817 20.8343 16.8097 20.907 16.735C21.078 16.5537 21.2316 16.3569 21.366 16.147C21.4813 15.971 21.5813 15.7863 21.666 15.593L21.687 15.552C21.7743 15.3387 21.8427 15.119 21.892 14.893C21.9047 14.8357 21.9163 14.778 21.927 14.72C21.973 14.4827 21.9973 14.2427 22 14C21.9974 13.7719 21.9754 13.5444 21.934 13.32Z" fill="#0A2363"/>
</svg>
