<svg width="24" height="24" viewBox="0 0 24 24" fill="none" xmlns="http://www.w3.org/2000/svg">
<path d="M6.024 7V9H17.98V7H6.024ZM14.98 13.479V16.479H17.98V13.479H14.98ZM2 5.75C2 5.02065 2.28973 4.32118 2.80546 3.80546C3.32118 3.28973 4.02065 3 4.75 3H19.25C19.9793 3 20.6788 3.28973 21.1945 3.80546C21.7103 4.32118 22 5.02065 22 5.75V18.25C22 18.9793 21.7103 19.6788 21.1945 20.1945C20.6788 20.7103 19.9793 21 19.25 21H4.75C4.02065 21 3.32118 20.7103 2.80546 20.1945C2.28973 19.6788 2 18.9793 2 18.25V5.75ZM4.524 6.25V9.75C4.524 10.164 4.86 10.5 5.274 10.5H18.73C18.9289 10.5 19.1197 10.421 19.2603 10.2803C19.401 10.1397 19.48 9.94891 19.48 9.75V6.25C19.48 6.05109 19.401 5.86032 19.2603 5.71967C19.1197 5.57902 18.9289 5.5 18.73 5.5H5.274C5.07509 5.5 4.88432 5.57902 4.74367 5.71967C4.60302 5.86032 4.524 6.05109 4.524 6.25ZM13.48 12.729V17.229C13.48 17.643 13.815 17.979 14.23 17.979H18.73C18.9289 17.979 19.1197 17.9 19.2603 17.7593C19.401 17.6187 19.48 17.4279 19.48 17.229V12.729C19.48 12.5301 19.401 12.3393 19.2603 12.1987C19.1197 12.058 18.9289 11.979 18.73 11.979H14.23C14.0311 11.979 13.8403 12.058 13.6997 12.1987C13.559 12.3393 13.48 12.5301 13.48 12.729ZM5.274 12.5C5.07509 12.5 4.88432 12.579 4.74367 12.7197C4.60302 12.8603 4.524 13.0511 4.524 13.25C4.524 13.4489 4.60302 13.6397 4.74367 13.7803C4.88432 13.921 5.07509 14 5.274 14H11.25C11.4489 14 11.6397 13.921 11.7803 13.7803C11.921 13.6397 12 13.4489 12 13.25C12 13.0511 11.921 12.8603 11.7803 12.7197C11.6397 12.579 11.4489 12.5 11.25 12.5H5.274ZM4.524 16.75C4.524 17.164 4.86 17.5 5.274 17.5H11.25C11.4489 17.5 11.6397 17.421 11.7803 17.2803C11.921 17.1397 12 16.9489 12 16.75C12 16.5511 11.921 16.3603 11.7803 16.2197C11.6397 16.079 11.4489 16 11.25 16H5.274C5.07509 16 4.88432 16.079 4.74367 16.2197C4.60302 16.3603 4.524 16.5511 4.524 16.75Z" fill="#0A2363"/>
</svg>
