<svg width="20" height="84" viewBox="0 0 20 84" fill="none" xmlns="http://www.w3.org/2000/svg">
<path d="M2.30769 3.07715C1.03385 3.07715 0 4.11099 0 5.38484V14.6156C0 15.8895 1.03385 16.9233 2.30769 16.9233H17.6923C18.9662 16.9233 20 15.8895 20 14.6156V5.38484C20 4.11099 18.9662 3.07715 17.6923 3.07715H2.30769ZM2.30769 4.61561H17.6923C18.1162 4.61561 18.4615 4.96099 18.4615 5.38484V5.76946L10 10.3371L1.53846 5.76946V5.38484C1.53846 4.96099 1.88385 4.61561 2.30769 4.61561ZM1.53846 5.98561L6.56231 9.90407L1.63462 14.9525L7.64462 10.6733L10 12.1879L12.3562 10.6733L18.3654 14.9525L13.4377 9.90407L18.4615 5.98561V14.6156C18.4573 14.7341 18.4243 14.8497 18.3654 14.9525C18.2385 15.2025 17.9915 15.3848 17.6923 15.3848H2.30769C2.00846 15.3848 1.76154 15.2033 1.63462 14.9525C1.57584 14.8499 1.54284 14.7338 1.53846 14.6156V5.98561Z" fill="#0A2363"/>
<path fill-rule="evenodd" clip-rule="evenodd" d="M13.7935 50.4442C12.5935 50.4001 9.19266 49.9301 5.631 46.3692C2.07016 42.8076 1.601 39.4076 1.556 38.2067C1.48933 36.3767 2.891 34.5992 4.51016 33.9051C4.70514 33.8209 4.91866 33.7888 5.12977 33.812C5.34088 33.8353 5.54232 33.913 5.71433 34.0376C7.04766 35.0092 7.96766 36.4792 8.75766 37.6351C8.93148 37.889 9.0058 38.198 8.96646 38.5032C8.92712 38.8084 8.77687 39.0885 8.54433 39.2901L6.9185 40.4976C6.83995 40.5543 6.78466 40.6376 6.76289 40.732C6.74113 40.8264 6.75437 40.9255 6.80016 41.0109C7.1685 41.6801 7.8235 42.6767 8.5735 43.4267C9.3235 44.1767 10.3677 44.8751 11.0835 45.2851C11.1732 45.3354 11.2789 45.3495 11.3787 45.3244C11.4785 45.2993 11.5649 45.2369 11.6202 45.1501L12.6785 43.5392C12.8731 43.2808 13.1601 43.1076 13.4795 43.056C13.7989 43.0045 14.1258 43.0785 14.3918 43.2626C15.5643 44.0742 16.9327 44.9784 17.9343 46.2609C18.069 46.4341 18.1547 46.6404 18.1824 46.8581C18.2101 47.0758 18.1788 47.2969 18.0918 47.4984C17.3943 49.1259 15.6293 50.5117 13.7935 50.4442Z" fill="#0A2363"/>
<path d="M10 66.5C8.4529 66.5 6.96917 67.1146 5.87521 68.2086C4.78125 69.3025 4.16667 70.7863 4.16667 72.3334C4.16667 74.7184 5.65167 77.0192 7.28167 78.8017C8.11512 79.7097 9.02453 80.545 10 81.2984C10.1456 81.1867 10.3164 81.0506 10.5125 80.89C11.2957 80.2469 12.0328 79.5496 12.7183 78.8034C14.3483 77.0192 15.8333 74.7192 15.8333 72.3334C15.8333 70.7863 15.2188 69.3025 14.1248 68.2086C13.0308 67.1146 11.5471 66.5 10 66.5ZM10 83.345L9.5275 83.02L9.525 83.0184L9.52 83.0142L9.50333 83.0025L9.44083 82.9584L9.21583 82.7942C8.07572 81.9373 7.01656 80.9778 6.05167 79.9275C4.34833 78.0625 2.5 75.3634 2.5 72.3325C2.5 70.3434 3.29018 68.4357 4.6967 67.0292C6.10322 65.6227 8.01088 64.8325 10 64.8325C11.9891 64.8325 13.8968 65.6227 15.3033 67.0292C16.7098 68.4357 17.5 70.3434 17.5 72.3325C17.5 75.3634 15.6517 78.0634 13.9483 79.9259C12.9837 80.9761 11.9248 81.9356 10.785 82.7925C10.69 82.8634 10.5942 82.9332 10.4975 83.0017L10.48 83.0134L10.475 83.0175L10.4733 83.0184L10 83.345ZM10 70.6667C9.55797 70.6667 9.13405 70.8423 8.82149 71.1548C8.50893 71.4674 8.33333 71.8913 8.33333 72.3334C8.33333 72.7754 8.50893 73.1993 8.82149 73.5119C9.13405 73.8244 9.55797 74 10 74C10.442 74 10.866 73.8244 11.1785 73.5119C11.4911 73.1993 11.6667 72.7754 11.6667 72.3334C11.6667 71.8913 11.4911 71.4674 11.1785 71.1548C10.866 70.8423 10.442 70.6667 10 70.6667ZM6.66667 72.3334C6.66667 71.4493 7.01786 70.6015 7.64298 69.9763C8.2681 69.3512 9.11594 69 10 69C10.8841 69 11.7319 69.3512 12.357 69.9763C12.9821 70.6015 13.3333 71.4493 13.3333 72.3334C13.3333 73.2174 12.9821 74.0653 12.357 74.6904C11.7319 75.3155 10.8841 75.6667 10 75.6667C9.11594 75.6667 8.2681 75.3155 7.64298 74.6904C7.01786 74.0653 6.66667 73.2174 6.66667 72.3334Z" fill="#0A2363"/>
</svg>
