<svg width="263" height="20" viewBox="0 0 263 20" fill="none" xmlns="http://www.w3.org/2000/svg">
<g clip-path="url(#clip0_58_342)">
<mask id="mask0_58_342" style="mask-type:luminance" maskUnits="userSpaceOnUse" x="0" y="0" width="20" height="20">
<path d="M0 0H20V20H0V0Z" fill="white"/>
</mask>
<g mask="url(#mask0_58_342)">
<path d="M15.75 0.9375H18.8171L12.1171 8.61464L20 19.0632H13.8286L8.99143 12.7275L3.46286 19.0632H0.392857L7.55857 10.8489L0 0.938929H6.32857L10.6943 6.72893L15.75 0.9375ZM14.6714 17.2232H16.3714L5.4 2.68179H3.57714L14.6714 17.2232Z" fill="white" fill-opacity="0.5"/>
</g>
</g>
<path d="M86.7833 4.16652C86.7831 4.60855 86.6073 5.03239 86.2945 5.34479C85.9818 5.6572 85.5578 5.83258 85.1158 5.83236C84.6738 5.83214 84.2499 5.65633 83.9375 5.34361C83.6251 5.0309 83.4497 4.60688 83.45 4.16486C83.4502 3.72283 83.626 3.29899 83.9387 2.98659C84.2514 2.67419 84.6754 2.4988 85.1175 2.49902C85.5595 2.49924 85.9833 2.67505 86.2957 2.98777C86.6081 3.30049 86.7835 3.7245 86.7833 4.16652ZM86.8333 7.06652H83.5V17.4999H86.8333V7.06652ZM92.1 7.06652H88.7833V17.4999H92.0666V12.0249C92.0666 8.97486 96.0416 8.69152 96.0416 12.0249V17.4999H99.3333V10.8915C99.3333 5.74986 93.45 5.94152 92.0666 8.46652L92.1 7.06652Z" fill="white" fill-opacity="0.5"/>
<path d="M169.665 17.9163H172.998V11.2413H176.002L176.332 7.92467H172.998V6.24967C172.998 6.02866 173.086 5.8167 173.242 5.66042C173.399 5.50414 173.611 5.41634 173.832 5.41634H176.332V2.08301H173.832C172.726 2.08301 171.667 2.52199 170.885 3.3034C170.104 4.0848 169.665 5.14461 169.665 6.24967V7.92467H167.998L167.668 11.2413H169.665V17.9163Z" fill="white" fill-opacity="0.5"/>
<path d="M253.001 7.50033C252.338 7.50033 251.702 7.76372 251.233 8.23256C250.764 8.7014 250.501 9.33728 250.501 10.0003C250.501 10.6634 250.764 11.2993 251.233 11.7681C251.702 12.2369 252.338 12.5003 253.001 12.5003C253.664 12.5003 254.3 12.2369 254.769 11.7681C255.238 11.2993 255.501 10.6634 255.501 10.0003C255.501 9.33728 255.238 8.7014 254.769 8.23256C254.3 7.76372 253.664 7.50033 253.001 7.50033ZM253.001 5.83366C254.106 5.83366 255.166 6.27265 255.947 7.05405C256.729 7.83545 257.168 8.89526 257.168 10.0003C257.168 11.1054 256.729 12.1652 255.947 12.9466C255.166 13.728 254.106 14.167 253.001 14.167C251.896 14.167 250.836 13.728 250.055 12.9466C249.273 12.1652 248.834 11.1054 248.834 10.0003C248.834 8.89526 249.273 7.83545 250.055 7.05405C250.836 6.27265 251.896 5.83366 253.001 5.83366ZM258.418 5.62533C258.418 5.90159 258.308 6.16654 258.112 6.3619C257.917 6.55725 257.652 6.66699 257.376 6.66699C257.1 6.66699 256.835 6.55725 256.639 6.3619C256.444 6.16654 256.334 5.90159 256.334 5.62533C256.334 5.34906 256.444 5.08411 256.639 4.88876C256.835 4.69341 257.1 4.58366 257.376 4.58366C257.652 4.58366 257.917 4.69341 258.112 4.88876C258.308 5.08411 258.418 5.34906 258.418 5.62533ZM253.001 3.33366C250.939 3.33366 250.603 3.33949 249.643 3.38199C248.99 3.41283 248.552 3.50033 248.145 3.65866C247.805 3.78397 247.497 3.98419 247.245 4.24449C246.984 4.49667 246.784 4.80427 246.658 5.14449C246.5 5.55283 246.413 5.99033 246.383 6.64283C246.339 7.56283 246.333 7.88449 246.333 10.0003C246.333 12.0628 246.339 12.3987 246.382 13.3578C246.413 14.0103 246.5 14.4495 246.658 14.8553C246.799 15.2178 246.966 15.4787 247.243 15.7553C247.523 16.0353 247.784 16.2028 248.143 16.3412C248.554 16.5003 248.993 16.5887 249.643 16.6187C250.563 16.662 250.884 16.667 253 16.667C255.063 16.667 255.398 16.6612 256.358 16.6187C257.009 16.5878 257.448 16.5003 257.855 16.3428C258.195 16.2175 258.503 16.0173 258.755 15.757C259.036 15.477 259.203 15.2162 259.342 14.857C259.5 14.447 259.588 14.0087 259.618 13.357C259.662 12.4378 259.667 12.1153 259.667 10.0003C259.667 7.93866 259.661 7.60199 259.618 6.64283C259.588 5.99116 259.499 5.55116 259.342 5.14449C259.216 4.80435 259.016 4.49676 258.756 4.24449C258.504 3.98389 258.196 3.78338 257.856 3.65783C257.448 3.49949 257.009 3.41199 256.358 3.38199C255.438 3.33866 255.117 3.33366 253 3.33366M253 1.66699C255.264 1.66699 255.547 1.67533 256.436 1.71699C257.323 1.75866 257.928 1.89783 258.458 2.10449C259.008 2.31616 259.472 2.60283 259.935 3.06533C260.359 3.48177 260.687 3.98572 260.896 4.54199C261.102 5.07283 261.242 5.67783 261.283 6.56533C261.323 7.45366 261.333 7.73616 261.333 10.0003C261.333 12.2645 261.325 12.547 261.283 13.4353C261.242 14.3237 261.102 14.927 260.896 15.4587C260.687 16.0149 260.359 16.5189 259.935 16.9353C259.519 17.3592 259.015 17.6871 258.458 17.8962C257.928 18.102 257.323 18.242 256.436 18.2837C255.547 18.3228 255.264 18.3337 253 18.3337C250.736 18.3337 250.453 18.3253 249.564 18.2837C248.678 18.242 248.073 18.102 247.542 17.8962C246.985 17.6871 246.482 17.3592 246.065 16.9353C245.641 16.5189 245.313 16.0149 245.104 15.4587C244.898 14.9278 244.758 14.3228 244.717 13.4353C244.677 12.547 244.667 12.2645 244.667 10.0003C244.667 7.73616 244.675 7.45366 244.717 6.56533C244.758 5.67699 244.898 5.07366 245.104 4.54199C245.313 3.98572 245.641 3.48177 246.065 3.06533C246.482 2.64141 246.985 2.31351 247.542 2.10449C248.073 1.89783 248.677 1.75866 249.564 1.71699C250.454 1.67783 250.737 1.66699 253.001 1.66699" fill="white" fill-opacity="0.5"/>
<defs>
<clipPath id="clip0_58_342">
<rect width="20" height="20" fill="white"/>
</clipPath>
</defs>
</svg>
