<svg width="263" height="20" viewBox="0 0 263 20" fill="none" xmlns="http://www.w3.org/2000/svg">
<g clip-path="url(#clip0_58_570)">
<mask id="mask0_58_570" style="mask-type:luminance" maskUnits="userSpaceOnUse" x="0" y="0" width="20" height="20">
<path d="M0 0H20V20H0V0Z" fill="white"/>
</mask>
<g mask="url(#mask0_58_570)">
<path d="M15.75 0.937256H18.8171L12.1171 8.6144L20 19.063H13.8286L8.99143 12.7273L3.46286 19.063H0.392857L7.55857 10.8487L0 0.938684H6.32857L10.6943 6.72868L15.75 0.937256ZM14.6714 17.223H16.3714L5.4 2.68154H3.57714L14.6714 17.223Z" fill="white" fill-opacity="0.5"/>
</g>
</g>
<path d="M86.7835 4.16677C86.7833 4.6088 86.6075 5.03263 86.2948 5.34504C85.9821 5.65744 85.5581 5.83282 85.116 5.8326C84.674 5.83238 84.2502 5.65657 83.9378 5.34386C83.6254 5.03114 83.45 4.60713 83.4502 4.1651C83.4504 3.72307 83.6262 3.29924 83.9389 2.98683C84.2517 2.67443 84.6757 2.49905 85.1177 2.49927C85.5597 2.49949 85.9836 2.6753 86.296 2.98801C86.6084 3.30073 86.7838 3.72474 86.7835 4.16677ZM86.8335 7.06677H83.5002V17.5001H86.8335V7.06677ZM92.1002 7.06677H88.7835V17.5001H92.0669V12.0251C92.0669 8.9751 96.0419 8.69177 96.0419 12.0251V17.5001H99.3335V10.8918C99.3335 5.7501 93.4502 5.94177 92.0669 8.46677L92.1002 7.06677Z" fill="white" fill-opacity="0.5"/>
<path d="M169.665 17.9166H172.998V11.2416H176.002L176.332 7.92492H172.998V6.24992C172.998 6.0289 173.086 5.81694 173.243 5.66066C173.399 5.50438 173.611 5.41659 173.832 5.41659H176.332V2.08325H173.832C172.727 2.08325 171.667 2.52224 170.886 3.30364C170.104 4.08504 169.665 5.14485 169.665 6.24992V7.92492H167.998L167.668 11.2416H169.665V17.9166Z" fill="white" fill-opacity="0.5"/>
<path d="M253.001 7.50008C252.338 7.50008 251.702 7.76347 251.233 8.23231C250.764 8.70116 250.501 9.33704 250.501 10.0001C250.501 10.6631 250.764 11.299 251.233 11.7678C251.702 12.2367 252.338 12.5001 253.001 12.5001C253.664 12.5001 254.3 12.2367 254.768 11.7678C255.237 11.299 255.501 10.6631 255.501 10.0001C255.501 9.33704 255.237 8.70116 254.768 8.23231C254.3 7.76347 253.664 7.50008 253.001 7.50008ZM253.001 5.83342C254.106 5.83342 255.166 6.2724 255.947 7.0538C256.728 7.83521 257.167 8.89501 257.167 10.0001C257.167 11.1052 256.728 12.165 255.947 12.9464C255.166 13.7278 254.106 14.1667 253.001 14.1667C251.896 14.1667 250.836 13.7278 250.054 12.9464C249.273 12.165 248.834 11.1052 248.834 10.0001C248.834 8.89501 249.273 7.83521 250.054 7.0538C250.836 6.2724 251.896 5.83342 253.001 5.83342ZM258.417 5.62508C258.417 5.90135 258.308 6.1663 258.112 6.36165C257.917 6.557 257.652 6.66675 257.376 6.66675C257.099 6.66675 256.834 6.557 256.639 6.36165C256.444 6.1663 256.334 5.90135 256.334 5.62508C256.334 5.34881 256.444 5.08386 256.639 4.88851C256.834 4.69316 257.099 4.58341 257.376 4.58341C257.652 4.58341 257.917 4.69316 258.112 4.88851C258.308 5.08386 258.417 5.34881 258.417 5.62508ZM253.001 3.33341C250.939 3.33341 250.602 3.33925 249.643 3.38175C248.99 3.41258 248.552 3.50008 248.145 3.65841C247.805 3.78372 247.497 3.98394 247.245 4.24425C246.984 4.49643 246.784 4.80403 246.658 5.14425C246.5 5.55258 246.412 5.99008 246.382 6.64258C246.339 7.56258 246.333 7.88425 246.333 10.0001C246.333 12.0626 246.339 12.3984 246.382 13.3576C246.412 14.0101 246.5 14.4492 246.657 14.8551C246.799 15.2176 246.966 15.4784 247.242 15.7551C247.523 16.0351 247.784 16.2026 248.142 16.3409C248.554 16.5001 248.992 16.5884 249.642 16.6184C250.562 16.6617 250.884 16.6667 253 16.6667C255.062 16.6667 255.398 16.6609 256.357 16.6184C257.009 16.5876 257.447 16.5001 257.855 16.3426C258.195 16.2173 258.503 16.0171 258.755 15.7567C259.036 15.4767 259.203 15.2159 259.342 14.8567C259.5 14.4467 259.588 14.0084 259.618 13.3567C259.662 12.4376 259.667 12.1151 259.667 10.0001C259.667 7.93842 259.661 7.60175 259.618 6.64258C259.587 5.99092 259.499 5.55091 259.342 5.14425C259.216 4.80411 259.016 4.49652 258.756 4.24425C258.503 3.98364 258.196 3.78313 257.856 3.65758C257.447 3.49925 257.009 3.41175 256.357 3.38175C255.438 3.33841 255.117 3.33341 253 3.33341M253 1.66675C255.264 1.66675 255.547 1.67508 256.436 1.71675C257.322 1.75841 257.927 1.89758 258.458 2.10425C259.008 2.31591 259.472 2.60258 259.935 3.06508C260.359 3.48153 260.687 3.98548 260.896 4.54175C261.102 5.07258 261.242 5.67758 261.283 6.56508C261.322 7.45341 261.333 7.73592 261.333 10.0001C261.333 12.2642 261.325 12.5467 261.283 13.4351C261.242 14.3234 261.102 14.9267 260.896 15.4584C260.687 16.0147 260.359 16.5186 259.935 16.9351C259.518 17.359 259.014 17.6869 258.458 17.8959C257.927 18.1017 257.322 18.2417 256.436 18.2834C255.547 18.3226 255.264 18.3334 253 18.3334C250.736 18.3334 250.453 18.3251 249.564 18.2834C248.677 18.2417 248.073 18.1017 247.542 17.8959C246.985 17.6869 246.481 17.359 246.065 16.9351C245.641 16.5186 245.313 16.0147 245.104 15.4584C244.897 14.9276 244.758 14.3226 244.717 13.4351C244.677 12.5467 244.667 12.2642 244.667 10.0001C244.667 7.73592 244.675 7.45341 244.717 6.56508C244.758 5.67675 244.897 5.07341 245.104 4.54175C245.313 3.98548 245.641 3.48153 246.065 3.06508C246.481 2.64117 246.985 2.31326 247.542 2.10425C248.072 1.89758 248.677 1.75841 249.564 1.71675C250.454 1.67758 250.737 1.66675 253.001 1.66675" fill="white" fill-opacity="0.5"/>
<defs>
<clipPath id="clip0_58_570">
<rect width="20" height="20" fill="white"/>
</clipPath>
</defs>
</svg>
