<svg width="20" height="84" viewBox="0 0 20 84" fill="none" xmlns="http://www.w3.org/2000/svg">
<path d="M2.30769 3.07715C1.03385 3.07715 0 4.11099 0 5.38484V14.6156C0 15.8895 1.03385 16.9233 2.30769 16.9233H17.6923C18.9662 16.9233 20 15.8895 20 14.6156V5.38484C20 4.11099 18.9662 3.07715 17.6923 3.07715H2.30769ZM2.30769 4.61561H17.6923C18.1162 4.61561 18.4615 4.96099 18.4615 5.38484V5.76946L10 10.3371L1.53846 5.76946V5.38484C1.53846 4.96099 1.88385 4.61561 2.30769 4.61561ZM1.53846 5.98561L6.56231 9.90407L1.63462 14.9525L7.64462 10.6733L10 12.1879L12.3562 10.6733L18.3654 14.9525L13.4377 9.90407L18.4615 5.98561V14.6156C18.4573 14.7341 18.4243 14.8497 18.3654 14.9525C18.2385 15.2025 17.9915 15.3848 17.6923 15.3848H2.30769C2.00846 15.3848 1.76154 15.2033 1.63462 14.9525C1.57584 14.8499 1.54284 14.7338 1.53846 14.6156V5.98561Z" fill="white" fill-opacity="0.5"/>
<path fill-rule="evenodd" clip-rule="evenodd" d="M13.7933 50.4442C12.5933 50.4001 9.19248 49.9301 5.63081 46.3692C2.06998 42.8076 1.60081 39.4076 1.55581 38.2067C1.48915 36.3767 2.89081 34.5992 4.50998 33.9051C4.70496 33.8209 4.91848 33.7888 5.12959 33.812C5.3407 33.8353 5.54214 33.913 5.71415 34.0376C7.04748 35.0092 7.96748 36.4792 8.75748 37.6351C8.9313 37.889 9.00562 38.198 8.96628 38.5032C8.92694 38.8084 8.77668 39.0885 8.54415 39.2901L6.91831 40.4976C6.83976 40.5543 6.78447 40.6376 6.76271 40.732C6.74095 40.8264 6.75419 40.9255 6.79998 41.0109C7.16831 41.6801 7.82331 42.6767 8.57331 43.4267C9.32331 44.1767 10.3675 44.8751 11.0833 45.2851C11.1731 45.3354 11.2787 45.3495 11.3785 45.3244C11.4783 45.2993 11.5647 45.2369 11.62 45.1501L12.6783 43.5392C12.8729 43.2808 13.1599 43.1076 13.4793 43.056C13.7987 43.0045 14.1256 43.0785 14.3916 43.2626C15.5641 44.0742 16.9325 44.9784 17.9341 46.2609C18.0688 46.4341 18.1545 46.6404 18.1822 46.8581C18.2099 47.0758 18.1786 47.2969 18.0916 47.4984C17.3941 49.1259 15.6291 50.5117 13.7933 50.4442Z" fill="white" fill-opacity="0.5"/>
<path d="M10 66.4995C8.4529 66.4995 6.96917 67.1141 5.87521 68.2081C4.78125 69.302 4.16667 70.7858 4.16667 72.3329C4.16667 74.7179 5.65167 77.0187 7.28167 78.8012C8.11512 79.7092 9.02453 80.5445 10 81.2979C10.1456 81.1862 10.3164 81.0501 10.5125 80.8895C11.2957 80.2464 12.0328 79.5491 12.7183 78.8029C14.3483 77.0187 15.8333 74.7187 15.8333 72.3329C15.8333 70.7858 15.2188 69.302 14.1248 68.2081C13.0308 67.1141 11.5471 66.4995 10 66.4995ZM10 83.3445L9.5275 83.0195L9.525 83.0179L9.52 83.0137L9.50333 83.002L9.44083 82.9579L9.21583 82.7937C8.07572 81.9368 7.01656 80.9773 6.05167 79.927C4.34833 78.062 2.5 75.3629 2.5 72.332C2.5 70.3429 3.29018 68.4353 4.6967 67.0287C6.10322 65.6222 8.01088 64.832 10 64.832C11.9891 64.832 13.8968 65.6222 15.3033 67.0287C16.7098 68.4353 17.5 70.3429 17.5 72.332C17.5 75.3629 15.6517 78.0629 13.9483 79.9254C12.9837 80.9756 11.9248 81.9351 10.785 82.792C10.69 82.863 10.5942 82.9327 10.4975 83.0012L10.48 83.0129L10.475 83.017L10.4733 83.0179L10 83.3445ZM10 70.6662C9.55797 70.6662 9.13405 70.8418 8.82149 71.1544C8.50893 71.4669 8.33333 71.8908 8.33333 72.3329C8.33333 72.7749 8.50893 73.1988 8.82149 73.5114C9.13405 73.8239 9.55797 73.9995 10 73.9995C10.442 73.9995 10.866 73.8239 11.1785 73.5114C11.4911 73.1988 11.6667 72.7749 11.6667 72.3329C11.6667 71.8908 11.4911 71.4669 11.1785 71.1544C10.866 70.8418 10.442 70.6662 10 70.6662ZM6.66667 72.3329C6.66667 71.4488 7.01786 70.601 7.64298 69.9758C8.2681 69.3507 9.11594 68.9995 10 68.9995C10.8841 68.9995 11.7319 69.3507 12.357 69.9758C12.9821 70.601 13.3333 71.4488 13.3333 72.3329C13.3333 73.2169 12.9821 74.0648 12.357 74.6899C11.7319 75.315 10.8841 75.6662 10 75.6662C9.11594 75.6662 8.2681 75.315 7.64298 74.6899C7.01786 74.0648 6.66667 73.2169 6.66667 72.3329Z" fill="white" fill-opacity="0.5"/>
</svg>
