<svg width="263" height="20" viewBox="0 0 263 20" fill="none" xmlns="http://www.w3.org/2000/svg">
<g clip-path="url(#clip0_18_59)">
<mask id="mask0_18_59" style="mask-type:luminance" maskUnits="userSpaceOnUse" x="0" y="0" width="20" height="20">
<path d="M0 0H20V20H0V0Z" fill="white"/>
</mask>
<g mask="url(#mask0_18_59)">
<path d="M15.75 0.937134H18.8171L12.1171 8.61428L20 19.0628H13.8286L8.99143 12.7271L3.46286 19.0628H0.392857L7.55857 10.8486L0 0.938562H6.32857L10.6943 6.72856L15.75 0.937134ZM14.6714 17.2228H16.3714L5.4 2.68142H3.57714L14.6714 17.2228Z" fill="white" fill-opacity="0.5"/>
</g>
</g>
<path d="M86.7835 4.16665C86.7833 4.60867 86.6075 5.03251 86.2948 5.34491C85.9821 5.65732 85.5581 5.8327 85.116 5.83248C84.674 5.83226 84.2502 5.65645 83.9378 5.34373C83.6254 5.03102 83.45 4.60701 83.4502 4.16498C83.4504 3.72295 83.6262 3.29912 83.9389 2.98671C84.2517 2.67431 84.6757 2.49892 85.1177 2.49915C85.5597 2.49937 85.9836 2.67517 86.296 2.98789C86.6084 3.30061 86.7838 3.72462 86.7835 4.16665ZM86.8335 7.06665H83.5002V17.5H86.8335V7.06665ZM92.1002 7.06665H88.7835V17.5H92.0669V12.025C92.0669 8.97498 96.0419 8.69165 96.0419 12.025V17.5H99.3335V10.8916C99.3335 5.74998 93.4502 5.94165 92.0669 8.46665L92.1002 7.06665Z" fill="white" fill-opacity="0.5"/>
<path d="M169.665 17.9167H172.998V11.2417H176.002L176.332 7.92504H172.998V6.25004C172.998 6.02903 173.086 5.81707 173.243 5.66079C173.399 5.5045 173.611 5.41671 173.832 5.41671H176.332V2.08337H173.832C172.727 2.08337 171.667 2.52236 170.886 3.30376C170.104 4.08516 169.665 5.14497 169.665 6.25004V7.92504H167.998L167.668 11.2417H169.665V17.9167Z" fill="white" fill-opacity="0.5"/>
<path d="M253.001 7.49996C252.338 7.49996 251.702 7.76335 251.233 8.23219C250.764 8.70103 250.501 9.33692 250.501 9.99996C250.501 10.663 250.764 11.2989 251.233 11.7677C251.702 12.2366 252.338 12.5 253.001 12.5C253.664 12.5 254.3 12.2366 254.768 11.7677C255.237 11.2989 255.501 10.663 255.501 9.99996C255.501 9.33692 255.237 8.70103 254.768 8.23219C254.3 7.76335 253.664 7.49996 253.001 7.49996ZM253.001 5.83329C254.106 5.83329 255.166 6.27228 255.947 7.05368C256.728 7.83508 257.167 8.89489 257.167 9.99996C257.167 11.105 256.728 12.1648 255.947 12.9462C255.166 13.7276 254.106 14.1666 253.001 14.1666C251.896 14.1666 250.836 13.7276 250.054 12.9462C249.273 12.1648 248.834 11.105 248.834 9.99996C248.834 8.89489 249.273 7.83508 250.054 7.05368C250.836 6.27228 251.896 5.83329 253.001 5.83329ZM258.417 5.62496C258.417 5.90123 258.308 6.16618 258.112 6.36153C257.917 6.55688 257.652 6.66663 257.376 6.66663C257.099 6.66663 256.834 6.55688 256.639 6.36153C256.444 6.16618 256.334 5.90123 256.334 5.62496C256.334 5.34869 256.444 5.08374 256.639 4.88839C256.834 4.69304 257.099 4.58329 257.376 4.58329C257.652 4.58329 257.917 4.69304 258.112 4.88839C258.308 5.08374 258.417 5.34869 258.417 5.62496ZM253.001 3.33329C250.939 3.33329 250.602 3.33913 249.643 3.38163C248.99 3.41246 248.552 3.49996 248.145 3.65829C247.805 3.7836 247.497 3.98382 247.245 4.24413C246.984 4.49631 246.784 4.80391 246.658 5.14413C246.5 5.55246 246.412 5.98996 246.382 6.64246C246.339 7.56246 246.333 7.88413 246.333 9.99996C246.333 12.0625 246.339 12.3983 246.382 13.3575C246.412 14.01 246.5 14.4491 246.657 14.855C246.799 15.2175 246.966 15.4783 247.242 15.755C247.523 16.035 247.784 16.2025 248.142 16.3408C248.554 16.5 248.992 16.5883 249.642 16.6183C250.562 16.6616 250.884 16.6666 253 16.6666C255.062 16.6666 255.398 16.6608 256.357 16.6183C257.009 16.5875 257.447 16.5 257.855 16.3425C258.195 16.2172 258.503 16.0169 258.755 15.7566C259.036 15.4766 259.203 15.2158 259.342 14.8566C259.5 14.4466 259.588 14.0083 259.618 13.3566C259.662 12.4375 259.667 12.115 259.667 9.99996C259.667 7.93829 259.661 7.60163 259.618 6.64246C259.587 5.99079 259.499 5.55079 259.342 5.14413C259.216 4.80399 259.016 4.49639 258.756 4.24413C258.503 3.98352 258.196 3.78301 257.856 3.65746C257.447 3.49913 257.009 3.41163 256.357 3.38163C255.438 3.33829 255.117 3.33329 253 3.33329M253 1.66663C255.264 1.66663 255.547 1.67496 256.436 1.71663C257.322 1.75829 257.927 1.89746 258.458 2.10413C259.008 2.31579 259.472 2.60246 259.935 3.06496C260.359 3.4814 260.687 3.98535 260.896 4.54163C261.102 5.07246 261.242 5.67746 261.283 6.56496C261.322 7.45329 261.333 7.73579 261.333 9.99996C261.333 12.2641 261.325 12.5466 261.283 13.435C261.242 14.3233 261.102 14.9266 260.896 15.4583C260.687 16.0146 260.359 16.5185 259.935 16.935C259.518 17.3589 259.014 17.6868 258.458 17.8958C257.927 18.1016 257.322 18.2416 256.436 18.2833C255.547 18.3225 255.264 18.3333 253 18.3333C250.736 18.3333 250.453 18.325 249.564 18.2833C248.677 18.2416 248.073 18.1016 247.542 17.8958C246.985 17.6868 246.481 17.3589 246.065 16.935C245.641 16.5185 245.313 16.0146 245.104 15.4583C244.897 14.9275 244.758 14.3225 244.717 13.435C244.677 12.5466 244.667 12.2641 244.667 9.99996C244.667 7.73579 244.675 7.45329 244.717 6.56496C244.758 5.67663 244.897 5.07329 245.104 4.54163C245.313 3.98535 245.641 3.4814 246.065 3.06496C246.481 2.64105 246.985 2.31314 247.542 2.10413C248.072 1.89746 248.677 1.75829 249.564 1.71663C250.454 1.67746 250.737 1.66663 253.001 1.66663" fill="white" fill-opacity="0.5"/>
<defs>
<clipPath id="clip0_18_59">
<rect width="20" height="20" fill="white"/>
</clipPath>
</defs>
</svg>
