<svg width="263" height="20" viewBox="0 0 263 20" fill="none" xmlns="http://www.w3.org/2000/svg">
<g clip-path="url(#clip0_58_450)">
<mask id="mask0_58_450" style="mask-type:luminance" maskUnits="userSpaceOnUse" x="0" y="0" width="20" height="20">
<path d="M0 0H20V20H0V0Z" fill="white"/>
</mask>
<g mask="url(#mask0_58_450)">
<path d="M15.75 0.937012H18.8171L12.1171 8.61415L20 19.0627H13.8286L8.99143 12.727L3.46286 19.0627H0.392857L7.55857 10.8484L0 0.93844H6.32857L10.6943 6.72844L15.75 0.937012ZM14.6714 17.2227H16.3714L5.4 2.6813H3.57714L14.6714 17.2227Z" fill="white" fill-opacity="0.5"/>
</g>
</g>
<path d="M86.7833 4.16652C86.7831 4.60855 86.6073 5.03239 86.2945 5.34479C85.9818 5.6572 85.5578 5.83258 85.1158 5.83236C84.6738 5.83214 84.2499 5.65633 83.9375 5.34361C83.6251 5.0309 83.4497 4.60688 83.45 4.16486C83.4502 3.72283 83.626 3.29899 83.9387 2.98659C84.2514 2.67419 84.6754 2.4988 85.1175 2.49902C85.5595 2.49924 85.9833 2.67505 86.2957 2.98777C86.6081 3.30049 86.7835 3.7245 86.7833 4.16652ZM86.8333 7.06652H83.5V17.4999H86.8333V7.06652ZM92.1 7.06652H88.7833V17.4999H92.0666V12.0249C92.0666 8.97486 96.0416 8.69152 96.0416 12.0249V17.4999H99.3333V10.8915C99.3333 5.74986 93.45 5.94152 92.0666 8.46652L92.1 7.06652Z" fill="white" fill-opacity="0.5"/>
<path d="M169.665 17.9168H172.998V11.2418H176.002L176.332 7.92516H172.998V6.25016C172.998 6.02915 173.086 5.81719 173.242 5.66091C173.399 5.50463 173.611 5.41683 173.832 5.41683H176.332V2.0835H173.832C172.727 2.0835 171.667 2.52248 170.885 3.30388C170.104 4.08529 169.665 5.14509 169.665 6.25016V7.92516H167.998L167.668 11.2418H169.665V17.9168Z" fill="white" fill-opacity="0.5"/>
<path d="M253.001 7.49984C252.338 7.49984 251.702 7.76323 251.233 8.23207C250.764 8.70091 250.501 9.3368 250.501 9.99984C250.501 10.6629 250.764 11.2988 251.233 11.7676C251.702 12.2364 252.338 12.4998 253.001 12.4998C253.664 12.4998 254.3 12.2364 254.769 11.7676C255.237 11.2988 255.501 10.6629 255.501 9.99984C255.501 9.3368 255.237 8.70091 254.769 8.23207C254.3 7.76323 253.664 7.49984 253.001 7.49984ZM253.001 5.83317C254.106 5.83317 255.166 6.27216 255.947 7.05356C256.728 7.83496 257.167 8.89477 257.167 9.99984C257.167 11.1049 256.728 12.1647 255.947 12.9461C255.166 13.7275 254.106 14.1665 253.001 14.1665C251.896 14.1665 250.836 13.7275 250.055 12.9461C249.273 12.1647 248.834 11.1049 248.834 9.99984C248.834 8.89477 249.273 7.83496 250.055 7.05356C250.836 6.27216 251.896 5.83317 253.001 5.83317ZM258.417 5.62484C258.417 5.9011 258.308 6.16606 258.112 6.36141C257.917 6.55676 257.652 6.6665 257.376 6.6665C257.1 6.6665 256.835 6.55676 256.639 6.36141C256.444 6.16606 256.334 5.9011 256.334 5.62484C256.334 5.34857 256.444 5.08362 256.639 4.88827C256.835 4.69292 257.1 4.58317 257.376 4.58317C257.652 4.58317 257.917 4.69292 258.112 4.88827C258.308 5.08362 258.417 5.34857 258.417 5.62484ZM253.001 3.33317C250.939 3.33317 250.602 3.339 249.643 3.3815C248.99 3.41234 248.552 3.49984 248.145 3.65817C247.805 3.78348 247.497 3.9837 247.245 4.244C246.984 4.49619 246.784 4.80379 246.658 5.144C246.5 5.55234 246.412 5.98984 246.382 6.64234C246.339 7.56234 246.333 7.884 246.333 9.99984C246.333 12.0623 246.339 12.3982 246.382 13.3573C246.412 14.0098 246.5 14.449 246.657 14.8548C246.799 15.2173 246.966 15.4782 247.242 15.7548C247.523 16.0348 247.784 16.2023 248.142 16.3407C248.554 16.4998 248.992 16.5882 249.642 16.6182C250.562 16.6615 250.884 16.6665 253 16.6665C255.062 16.6665 255.398 16.6607 256.357 16.6182C257.009 16.5873 257.447 16.4998 257.855 16.3423C258.195 16.217 258.503 16.0168 258.755 15.7565C259.036 15.4765 259.203 15.2157 259.342 14.8565C259.5 14.4465 259.588 14.0082 259.618 13.3565C259.662 12.4373 259.667 12.1148 259.667 9.99984C259.667 7.93817 259.661 7.6015 259.618 6.64234C259.587 5.99067 259.499 5.55067 259.342 5.144C259.216 4.80386 259.016 4.49627 258.756 4.244C258.504 3.9834 258.196 3.78289 257.856 3.65734C257.447 3.499 257.009 3.4115 256.357 3.3815C255.438 3.33817 255.117 3.33317 253 3.33317M253 1.6665C255.264 1.6665 255.547 1.67484 256.436 1.7165C257.322 1.75817 257.927 1.89734 258.458 2.104C259.008 2.31567 259.472 2.60234 259.935 3.06484C260.359 3.48128 260.687 3.98523 260.896 4.5415C261.102 5.07234 261.242 5.67734 261.283 6.56484C261.322 7.45317 261.333 7.73567 261.333 9.99984C261.333 12.264 261.325 12.5465 261.283 13.4348C261.242 14.3232 261.102 14.9265 260.896 15.4582C260.687 16.0144 260.359 16.5184 259.935 16.9348C259.519 17.3587 259.015 17.6867 258.458 17.8957C257.927 18.1015 257.322 18.2415 256.436 18.2832C255.547 18.3223 255.264 18.3332 253 18.3332C250.736 18.3332 250.453 18.3248 249.564 18.2832C248.677 18.2415 248.073 18.1015 247.542 17.8957C246.985 17.6867 246.481 17.3587 246.065 16.9348C245.641 16.5184 245.313 16.0144 245.104 15.4582C244.897 14.9273 244.758 14.3223 244.717 13.4348C244.677 12.5465 244.667 12.264 244.667 9.99984C244.667 7.73567 244.675 7.45317 244.717 6.56484C244.758 5.6765 244.897 5.07317 245.104 4.5415C245.313 3.98523 245.641 3.48128 246.065 3.06484C246.481 2.64093 246.985 2.31302 247.542 2.104C248.072 1.89734 248.677 1.75817 249.564 1.7165C250.454 1.67734 250.737 1.6665 253.001 1.6665" fill="white" fill-opacity="0.5"/>
<defs>
<clipPath id="clip0_58_450">
<rect width="20" height="20" fill="white"/>
</clipPath>
</defs>
</svg>
