<svg width="24" height="24" viewBox="0 0 24 24" fill="none" xmlns="http://www.w3.org/2000/svg">
<path fill-rule="evenodd" clip-rule="evenodd" d="M15.15 16.189C15.29 16.439 15.54 16.5691 15.8 16.5691V16.5591C15.92 16.5591 16.05 16.529 16.17 16.4591L18.37 15.1891C18.5411 15.0896 18.6656 14.9263 18.7162 14.735C18.7669 14.5437 18.7395 14.3401 18.64 14.1691C18.5405 13.998 18.3772 13.8734 18.1859 13.8228C17.9946 13.7722 17.7911 13.7996 17.62 13.8991L15.42 15.1691C15.07 15.3691 14.94 15.8291 15.15 16.189ZM13.06 13.9991C13.4 14.2091 13.8 14.3191 14.21 14.3191L14.22 14.3091C14.83 14.3091 15.33 14.0191 16.23 13.4891C17.1 12.9991 17.63 12.6891 17.96 12.1391C18.15 11.7791 18.25 11.3991 18.25 11.0091C18.25 10.3791 17.93 9.82905 17.44 8.99905L14.4 3.70905C13.9611 2.95457 13.2412 2.40469 12.3978 2.17979C11.5544 1.95489 10.6563 2.07328 9.9 2.50905C9.14483 2.94986 8.59476 3.67157 8.36993 4.51658C8.14509 5.36159 8.26375 6.26124 8.7 7.01905L9.405 8.23405C9.16042 8.47978 8.97565 8.77848 8.865 9.10705C6.272 9.42205 4.25 11.6431 4.25 14.3191C4.25 17.0291 6.327 19.2741 8.97 19.5421L8.462 21.0691H4C3.59 21.0691 3.25 21.4091 3.25 21.8191C3.25 22.2291 3.59 22.5691 4 22.5691H8.896C8.966 22.5791 9.03567 22.5791 9.105 22.5691H13.499L13.489 22.5791C13.5318 22.5785 13.5746 22.5751 13.617 22.5691H20C20.41 22.5691 20.75 22.2291 20.75 21.8191C20.75 21.4091 20.41 21.0691 20 21.0691H14.037L13.539 19.5691H18C18.41 19.5691 18.75 19.2291 18.75 18.8191C18.75 18.4091 18.41 18.0691 18 18.0691H13.042L12.939 17.7591C12.689 17.0491 12.019 16.5791 11.219 16.5791C10.479 16.5791 9.809 17.049 9.559 17.769L9.459 18.0691C8.52105 18.0576 7.62142 17.6952 6.93751 17.0532C6.2536 16.4112 5.83504 15.5363 5.76438 14.6009C5.69371 13.6656 5.97606 12.7377 6.55576 12.0002C7.13545 11.2628 7.97041 10.7693 8.896 10.6171C9.09379 11.1353 9.47566 11.5625 9.96861 11.8169C10.4616 12.0713 11.031 12.1351 11.568 11.9961L11.74 12.2891L11.745 12.2971C12.242 13.1721 12.542 13.699 13.06 13.9991ZM12.814 11.1491L13.04 11.5391L13.048 11.5521C13.384 12.1451 13.641 12.6 13.82 12.7091C13.95 12.7891 14.07 12.8191 14.21 12.8191C14.401 12.8191 14.758 12.6121 15.303 12.2961L15.47 12.1991L15.548 12.1541C16.127 11.8181 16.535 11.5811 16.65 11.3991C16.7109 11.2818 16.7419 11.1512 16.74 11.0191C16.74 10.8091 16.51 10.3991 16.13 9.75905L13.09 4.45905C12.9726 4.25468 12.8159 4.07559 12.6289 3.93214C12.4419 3.78869 12.2283 3.68371 12.0005 3.62327C11.7727 3.56283 11.5352 3.54813 11.3017 3.58002C11.0681 3.61191 10.8433 3.68975 10.64 3.80905C9.78 4.30905 9.49 5.40905 9.99 6.26905L10.752 7.58205C11.0664 7.54766 11.3844 7.57983 11.6855 7.67648C11.9866 7.77312 12.264 7.93207 12.4996 8.14298C12.7353 8.35389 12.9239 8.61204 13.0531 8.90064C13.1824 9.18924 13.2495 9.50182 13.25 9.81805C13.25 10.3151 13.088 10.7751 12.814 11.1481M10.659 9.15105C10.7641 9.0966 10.8807 9.06813 10.999 9.06805C11.41 9.06805 11.75 9.40805 11.75 9.81805C11.75 10.2281 11.41 10.5681 11 10.5681C10.59 10.5681 10.25 10.2281 10.25 9.81805C10.25 9.53005 10.417 9.27605 10.659 9.15105ZM12.461 21.0681H10.048L10.98 18.2481C11.01 18.1381 11.11 18.0681 11.28 18.0681C11.39 18.0681 11.49 18.1481 11.52 18.2381L11.774 19.0011C11.7833 19.0344 11.7943 19.0667 11.807 19.0981L12.461 21.0681Z" fill="#0A2363"/>
</svg>
