<svg width="40" height="40" viewBox="0 0 40 40" fill="none" xmlns="http://www.w3.org/2000/svg">
<path d="M30 26.8C28.7333 26.8 27.6 27.3 26.7333 28.0834L14.85 21.1667C14.9333 20.7834 15 20.4 15 20C15 19.6 14.9333 19.2167 14.85 18.8334L26.6 11.9834C27.5 12.8167 28.6833 13.3334 30 13.3334C32.7667 13.3334 35 11.1 35 8.33337C35 5.56671 32.7667 3.33337 30 3.33337C27.2333 3.33337 25 5.56671 25 8.33337C25 8.73337 25.0667 9.11671 25.15 9.50004L13.4 16.35C12.5 15.5167 11.3167 15 10 15C7.23333 15 5 17.2334 5 20C5 22.7667 7.23333 25 10 25C11.3167 25 12.5 24.4834 13.4 23.65L25.2667 30.5834C25.1833 30.9334 25.1333 31.3 25.1333 31.6667C25.1333 34.35 27.3167 36.5334 30 36.5334C32.6833 36.5334 34.8667 34.35 34.8667 31.6667C34.8667 28.9834 32.6833 26.8 30 26.8Z" fill="white"/>
</svg>
