<svg width="24" height="24" viewBox="0 0 24 24" fill="none" xmlns="http://www.w3.org/2000/svg">
<path d="M11.9998 17.275L7.84984 19.775C7.66651 19.8916 7.47484 19.9416 7.27484 19.9249C7.07484 19.9083 6.89984 19.8416 6.74984 19.725C6.59984 19.6083 6.48317 19.4626 6.39984 19.288C6.31651 19.1133 6.29984 18.9173 6.34984 18.7L7.44984 13.975L3.77484 10.8C3.60817 10.65 3.50417 10.479 3.46284 10.287C3.42151 10.095 3.43384 9.90762 3.49984 9.72495C3.56584 9.54228 3.66584 9.39228 3.79984 9.27495C3.93384 9.15762 4.11717 9.08262 4.34984 9.04995L9.19984 8.62495L11.0748 4.17495C11.1582 3.97495 11.2875 3.82495 11.4628 3.72495C11.6382 3.62495 11.8172 3.57495 11.9998 3.57495C12.1825 3.57495 12.3615 3.62495 12.5368 3.72495C12.7122 3.82495 12.8415 3.97495 12.9248 4.17495L14.7998 8.62495L19.6498 9.04995C19.8832 9.08328 20.0665 9.15828 20.1998 9.27495C20.3332 9.39162 20.4332 9.54162 20.4998 9.72495C20.5665 9.90829 20.5792 10.096 20.5378 10.288C20.4965 10.48 20.3922 10.6506 20.2248 10.8L16.5498 13.975L17.6498 18.7C17.6998 18.9166 17.6832 19.1126 17.5998 19.288C17.5165 19.4633 17.3998 19.609 17.2498 19.725C17.0998 19.841 16.9248 19.9076 16.7248 19.9249C16.5248 19.9423 16.3332 19.8923 16.1498 19.775L11.9998 17.275Z" fill="#F9CB15"/>
</svg>
