<svg width="24" height="24" viewBox="0 0 24 24" fill="none" xmlns="http://www.w3.org/2000/svg">
<path d="M15.25 18.75C15.45 18.75 15.625 18.675 15.775 18.525C15.925 18.375 16 18.2 16 18C16 17.8 15.925 17.625 15.775 17.475C15.625 17.325 15.45 17.25 15.25 17.25C15.05 17.25 14.875 17.325 14.725 17.475C14.575 17.625 14.5 17.8 14.5 18C14.5 18.2 14.575 18.375 14.725 18.525C14.875 18.675 15.05 18.75 15.25 18.75ZM18 18.75C18.2 18.75 18.375 18.675 18.525 18.525C18.675 18.375 18.75 18.2 18.75 18C18.75 17.8 18.675 17.625 18.525 17.475C18.375 17.325 18.2 17.25 18 17.25C17.8 17.25 17.625 17.325 17.475 17.475C17.325 17.625 17.25 17.8 17.25 18C17.25 18.2 17.325 18.375 17.475 18.525C17.625 18.675 17.8 18.75 18 18.75ZM20.75 18.75C20.95 18.75 21.125 18.675 21.275 18.525C21.425 18.375 21.5 18.2 21.5 18C21.5 17.8 21.425 17.625 21.275 17.475C21.125 17.325 20.95 17.25 20.75 17.25C20.55 17.25 20.375 17.325 20.225 17.475C20.075 17.625 20 17.8 20 18C20 18.2 20.075 18.375 20.225 18.525C20.375 18.675 20.55 18.75 20.75 18.75ZM18 23C16.6167 23 15.4377 22.5123 14.463 21.537C13.4883 20.5617 13.0007 19.3827 13 18C12.9993 16.6173 13.487 15.4383 14.463 14.463C15.439 13.4877 16.618 13 18 13C19.382 13 20.5613 13.4877 21.538 14.463C22.5147 15.4383 23.002 16.6173 23 18C22.998 19.3827 22.5103 20.562 21.537 21.538C20.5637 22.514 19.3847 23.0013 18 23ZM7 9H17V7H7V9ZM11.675 21H5C4.45 21 3.97933 20.8043 3.588 20.413C3.19667 20.0217 3.00067 19.5507 3 19V5C3 4.45 3.196 3.97933 3.588 3.588C3.98 3.19667 4.45067 3.00067 5 3H19C19.55 3 20.021 3.196 20.413 3.588C20.805 3.98 21.0007 4.45067 21 5V11.7C20.5167 11.4667 20.029 11.2917 19.537 11.175C19.045 11.0583 18.5327 11 18 11C17.8167 11 17.6457 11.004 17.487 11.012C17.3283 11.02 17.166 11.041 17 11.075V11H7V13H13.125C12.825 13.2833 12.5543 13.5917 12.313 13.925C12.0717 14.2583 11.859 14.6167 11.675 15H7V17H11.075C11.0417 17.1667 11.021 17.3293 11.013 17.488C11.005 17.6467 11.0007 17.8173 11 18C11 18.55 11.05 19.0627 11.15 19.538C11.25 20.0133 11.425 20.5007 11.675 21Z" fill="#0A2363"/>
</svg>
