<svg width="40" height="40" viewBox="0 0 40 40" fill="none" xmlns="http://www.w3.org/2000/svg">
<path d="M20.0003 25.9582C19.7781 25.9582 19.5698 25.9237 19.3753 25.8548C19.1809 25.786 19.0003 25.6676 18.8337 25.4998L12.8337 19.4998C12.5003 19.1665 12.3403 18.7776 12.3537 18.3332C12.367 17.8887 12.527 17.4998 12.8337 17.1665C13.167 16.8332 13.5631 16.6598 14.022 16.6465C14.4809 16.6332 14.8764 16.7926 15.2087 17.1248L18.3337 20.2498V8.33318C18.3337 7.86095 18.4937 7.4654 18.8137 7.14651C19.1337 6.82762 19.5292 6.66762 20.0003 6.66651C20.4714 6.6654 20.8675 6.8254 21.1887 7.14651C21.5098 7.46762 21.6692 7.86318 21.667 8.33318V20.2498L24.792 17.1248C25.1253 16.7915 25.5214 16.6315 25.9803 16.6448C26.4392 16.6582 26.8348 16.8321 27.167 17.1665C27.4725 17.4998 27.6325 17.8887 27.647 18.3332C27.6614 18.7776 27.5014 19.1665 27.167 19.4998L21.167 25.4998C21.0003 25.6665 20.8198 25.7848 20.6253 25.8548C20.4309 25.9248 20.2225 25.9593 20.0003 25.9582ZM10.0003 33.3332C9.08366 33.3332 8.29921 33.0071 7.64699 32.3548C6.99477 31.7026 6.6681 30.9176 6.66699 29.9998V26.6665C6.66699 26.1943 6.82699 25.7987 7.14699 25.4798C7.46699 25.161 7.86255 25.001 8.33366 24.9998C8.80477 24.9987 9.20088 25.1587 9.52199 25.4798C9.8431 25.801 10.0025 26.1965 10.0003 26.6665V29.9998H30.0003V26.6665C30.0003 26.1943 30.1603 25.7987 30.4803 25.4798C30.8003 25.161 31.1959 25.001 31.667 24.9998C32.1381 24.9987 32.5342 25.1587 32.8553 25.4798C33.1764 25.801 33.3359 26.1965 33.3337 26.6665V29.9998C33.3337 30.9165 33.0075 31.7015 32.3553 32.3548C31.7031 33.0082 30.9181 33.3343 30.0003 33.3332H10.0003Z" fill="white"/>
</svg>
