<svg width="40" height="40" viewBox="0 0 40 40" fill="none" xmlns="http://www.w3.org/2000/svg">
<path d="M20.0001 25.9587C19.7779 25.9587 19.5695 25.9242 19.3751 25.8553C19.1806 25.7864 19.0001 25.6681 18.8334 25.5003L12.8334 19.5003C12.5001 19.167 12.3401 18.7781 12.3534 18.3337C12.3667 17.8892 12.5267 17.5003 12.8334 17.167C13.1667 16.8337 13.5629 16.6603 14.0217 16.647C14.4806 16.6337 14.8762 16.7931 15.2084 17.1253L18.3334 20.2503V8.33366C18.3334 7.86144 18.4934 7.46589 18.8134 7.147C19.1334 6.82811 19.529 6.66811 20.0001 6.667C20.4712 6.66589 20.8673 6.82589 21.1884 7.147C21.5095 7.46811 21.669 7.86366 21.6667 8.33366V20.2503L24.7917 17.1253C25.1251 16.792 25.5212 16.632 25.9801 16.6453C26.439 16.6587 26.8345 16.8326 27.1667 17.167C27.4723 17.5003 27.6323 17.8892 27.6467 18.3337C27.6612 18.7781 27.5012 19.167 27.1667 19.5003L21.1667 25.5003C21.0001 25.667 20.8195 25.7853 20.6251 25.8553C20.4306 25.9253 20.2223 25.9598 20.0001 25.9587ZM10.0001 33.3337C9.08341 33.3337 8.29897 33.0076 7.64675 32.3553C6.99453 31.7031 6.66786 30.9181 6.66675 30.0003V26.667C6.66675 26.1948 6.82675 25.7992 7.14675 25.4803C7.46675 25.1614 7.8623 25.0014 8.33341 25.0003C8.80453 24.9992 9.20064 25.1592 9.52175 25.4803C9.84286 25.8014 10.0023 26.197 10.0001 26.667V30.0003H30.0001V26.667C30.0001 26.1948 30.1601 25.7992 30.4801 25.4803C30.8001 25.1614 31.1956 25.0014 31.6667 25.0003C32.1379 24.9992 32.534 25.1592 32.8551 25.4803C33.1762 25.8014 33.3356 26.197 33.3334 26.667V30.0003C33.3334 30.917 33.0073 31.702 32.3551 32.3553C31.7029 33.0087 30.9179 33.3348 30.0001 33.3337H10.0001Z" fill="white"/>
</svg>
