<svg width="40" height="40" viewBox="0 0 40 40" fill="none" xmlns="http://www.w3.org/2000/svg">
<path d="M19.9998 25.9583C19.7776 25.9583 19.5693 25.9239 19.3748 25.855C19.1804 25.7861 18.9998 25.6677 18.8332 25.5L12.8332 19.5C12.4998 19.1666 12.3398 18.7777 12.3532 18.3333C12.3665 17.8889 12.5265 17.5 12.8332 17.1666C13.1665 16.8333 13.5626 16.66 14.0215 16.6466C14.4804 16.6333 14.8759 16.7927 15.2082 17.125L18.3332 20.25V8.3333C18.3332 7.86108 18.4932 7.46552 18.8132 7.14663C19.1332 6.82774 19.5287 6.66774 19.9998 6.66663C20.4709 6.66552 20.8671 6.82552 21.1882 7.14663C21.5093 7.46774 21.6687 7.8633 21.6665 8.3333V20.25L24.7915 17.125C25.1248 16.7916 25.5209 16.6316 25.9798 16.645C26.4387 16.6583 26.8343 16.8322 27.1665 17.1666C27.4721 17.5 27.6321 17.8889 27.6465 18.3333C27.6609 18.7777 27.5009 19.1666 27.1665 19.5L21.1665 25.5C20.9998 25.6666 20.8193 25.785 20.6248 25.855C20.4304 25.925 20.2221 25.9594 19.9998 25.9583ZM9.99984 33.3333C9.08317 33.3333 8.29873 33.0072 7.6465 32.355C6.99428 31.7027 6.66762 30.9177 6.6665 30V26.6666C6.6665 26.1944 6.8265 25.7989 7.1465 25.48C7.4665 25.1611 7.86206 25.0011 8.33317 25C8.80428 24.9989 9.20039 25.1589 9.5215 25.48C9.84261 25.8011 10.0021 26.1966 9.99984 26.6666V30H29.9998V26.6666C29.9998 26.1944 30.1598 25.7989 30.4798 25.48C30.7998 25.1611 31.1954 25.0011 31.6665 25C32.1376 24.9989 32.5337 25.1589 32.8548 25.48C33.1759 25.8011 33.3354 26.1966 33.3332 26.6666V30C33.3332 30.9166 33.0071 31.7016 32.3548 32.355C31.7026 33.0083 30.9176 33.3344 29.9998 33.3333H9.99984Z" fill="white"/>
</svg>
