<svg width="40" height="40" viewBox="0 0 40 40" fill="none" xmlns="http://www.w3.org/2000/svg">
<path d="M20 25.9587C19.7778 25.9587 19.5695 25.9242 19.375 25.8553C19.1806 25.7864 19 25.6681 18.8334 25.5003L12.8334 19.5003C12.5 19.167 12.34 18.7781 12.3534 18.3337C12.3667 17.8892 12.5267 17.5003 12.8334 17.167C13.1667 16.8337 13.5628 16.6603 14.0217 16.647C14.4806 16.6337 14.8761 16.7931 15.2084 17.1253L18.3334 20.2503V8.33366C18.3334 7.86144 18.4934 7.46589 18.8134 7.147C19.1334 6.82811 19.5289 6.66811 20 6.667C20.4711 6.66589 20.8672 6.82589 21.1884 7.147C21.5095 7.46811 21.6689 7.86366 21.6667 8.33366V20.2503L24.7917 17.1253C25.125 16.792 25.5211 16.632 25.98 16.6453C26.4389 16.6587 26.8345 16.8326 27.1667 17.167C27.4722 17.5003 27.6322 17.8892 27.6467 18.3337C27.6611 18.7781 27.5011 19.167 27.1667 19.5003L21.1667 25.5003C21 25.667 20.8195 25.7853 20.625 25.8553C20.4306 25.9253 20.2222 25.9598 20 25.9587ZM10 33.3337C9.08335 33.3337 8.29891 33.0076 7.64669 32.3553C6.99446 31.7031 6.6678 30.9181 6.66669 30.0003V26.667C6.66669 26.1948 6.82669 25.7992 7.14669 25.4803C7.46669 25.1614 7.86224 25.0014 8.33335 25.0003C8.80446 24.9992 9.20058 25.1592 9.52169 25.4803C9.8428 25.8014 10.0022 26.197 10 26.667V30.0003H30V26.667C30 26.1948 30.16 25.7992 30.48 25.4803C30.8 25.1614 31.1956 25.0014 31.6667 25.0003C32.1378 24.9992 32.5339 25.1592 32.855 25.4803C33.1761 25.8014 33.3356 26.197 33.3334 26.667V30.0003C33.3334 30.917 33.0072 31.702 32.355 32.3553C31.7028 33.0087 30.9178 33.3348 30 33.3337H10Z" fill="white"/>
</svg>
