<svg width="20" height="20" viewBox="0 0 20 20" fill="none" xmlns="http://www.w3.org/2000/svg">
<path d="M10.0012 7.49984C9.33812 7.49984 8.70223 7.76323 8.23339 8.23207C7.76455 8.70091 7.50116 9.3368 7.50116 9.99984C7.50116 10.6629 7.76455 11.2988 8.23339 11.7676C8.70223 12.2364 9.33812 12.4998 10.0012 12.4998C10.6642 12.4998 11.3001 12.2364 11.7689 11.7676C12.2378 11.2988 12.5012 10.6629 12.5012 9.99984C12.5012 9.3368 12.2378 8.70091 11.7689 8.23207C11.3001 7.76323 10.6642 7.49984 10.0012 7.49984ZM10.0012 5.83317C11.1062 5.83317 12.166 6.27216 12.9474 7.05356C13.7288 7.83496 14.1678 8.89477 14.1678 9.99984C14.1678 11.1049 13.7288 12.1647 12.9474 12.9461C12.166 13.7275 11.1062 14.1665 10.0012 14.1665C8.89609 14.1665 7.83628 13.7275 7.05488 12.9461C6.27348 12.1647 5.83449 11.1049 5.83449 9.99984C5.83449 8.89477 6.27348 7.83496 7.05488 7.05356C7.83628 6.27216 8.89609 5.83317 10.0012 5.83317ZM15.4178 5.62484C15.4178 5.9011 15.3081 6.16606 15.1127 6.36141C14.9174 6.55676 14.6524 6.6665 14.3762 6.6665C14.0999 6.6665 13.8349 6.55676 13.6396 6.36141C13.4442 6.16606 13.3345 5.9011 13.3345 5.62484C13.3345 5.34857 13.4442 5.08362 13.6396 4.88827C13.8349 4.69292 14.0999 4.58317 14.3762 4.58317C14.6524 4.58317 14.9174 4.69292 15.1127 4.88827C15.3081 5.08362 15.4178 5.34857 15.4178 5.62484ZM10.0012 3.33317C7.93949 3.33317 7.60283 3.339 6.64366 3.3815C5.99033 3.41234 5.55199 3.49984 5.14533 3.65817C4.80519 3.78348 4.49759 3.9837 4.24533 4.244C3.98472 4.49619 3.78421 4.80379 3.65866 5.144C3.50033 5.55234 3.41283 5.98984 3.38283 6.64234C3.33949 7.56234 3.33366 7.884 3.33366 9.99984C3.33366 12.0623 3.33949 12.3982 3.38199 13.3573C3.41283 14.0098 3.50033 14.449 3.65783 14.8548C3.79949 15.2173 3.96616 15.4782 4.24283 15.7548C4.52366 16.0348 4.78449 16.2023 5.14283 16.3407C5.55449 16.4998 5.99283 16.5882 6.64283 16.6182C7.56283 16.6615 7.88449 16.6665 10.0003 16.6665C12.0628 16.6665 12.3987 16.6607 13.3578 16.6182C14.0095 16.5873 14.4478 16.4998 14.8553 16.3423C15.1955 16.217 15.5031 16.0168 15.7553 15.7565C16.0362 15.4765 16.2037 15.2157 16.342 14.8565C16.5003 14.4465 16.5887 14.0082 16.6187 13.3565C16.662 12.4373 16.667 12.1148 16.667 9.99984C16.667 7.93817 16.6612 7.6015 16.6187 6.64234C16.5878 5.99067 16.4995 5.55067 16.342 5.144C16.2167 4.80386 16.0165 4.49627 15.7562 4.244C15.504 3.9834 15.1964 3.78289 14.8562 3.65734C14.4478 3.499 14.0095 3.4115 13.3578 3.3815C12.4387 3.33817 12.117 3.33317 10.0003 3.33317M10.0003 1.6665C12.2645 1.6665 12.547 1.67484 13.4362 1.7165C14.3228 1.75817 14.9278 1.89734 15.4587 2.104C16.0087 2.31567 16.472 2.60234 16.9353 3.06484C17.3592 3.48128 17.6871 3.98523 17.8962 4.5415C18.102 5.07234 18.242 5.67734 18.2837 6.56484C18.3228 7.45317 18.3337 7.73567 18.3337 9.99984C18.3337 12.264 18.3253 12.5465 18.2837 13.4348C18.242 14.3232 18.102 14.9265 17.8962 15.4582C17.6871 16.0144 17.3592 16.5184 16.9353 16.9348C16.5189 17.3587 16.0149 17.6867 15.4587 17.8957C14.9278 18.1015 14.3228 18.2415 13.4362 18.2832C12.547 18.3223 12.2645 18.3332 10.0003 18.3332C7.73616 18.3332 7.45366 18.3248 6.56449 18.2832C5.67783 18.2415 5.07366 18.1015 4.54199 17.8957C3.98572 17.6867 3.48177 17.3587 3.06533 16.9348C2.64141 16.5184 2.31351 16.0144 2.10449 15.4582C1.89783 14.9273 1.75866 14.3223 1.71699 13.4348C1.67699 12.5465 1.66699 12.264 1.66699 9.99984C1.66699 7.73567 1.67533 7.45317 1.71699 6.56484C1.75866 5.6765 1.89783 5.07317 2.10449 4.5415C2.31351 3.98523 2.64141 3.48128 3.06533 3.06484C3.48177 2.64093 3.98572 2.31302 4.54199 2.104C5.07283 1.89734 5.67699 1.75817 6.56449 1.7165C7.45449 1.67734 7.73699 1.6665 10.0012 1.6665" fill="white" fill-opacity="0.5"/>
</svg>
