<svg width="20" height="20" viewBox="0 0 20 20" fill="none" xmlns="http://www.w3.org/2000/svg">
<path d="M10.0008 7.49984C9.3378 7.49984 8.70191 7.76323 8.23307 8.23207C7.76423 8.70091 7.50084 9.3368 7.50084 9.99984C7.50084 10.6629 7.76423 11.2988 8.23307 11.7676C8.70191 12.2364 9.3378 12.4998 10.0008 12.4998C10.6639 12.4998 11.2998 12.2364 11.7686 11.7676C12.2374 11.2988 12.5008 10.6629 12.5008 9.99984C12.5008 9.3368 12.2374 8.70091 11.7686 8.23207C11.2998 7.76323 10.6639 7.49984 10.0008 7.49984ZM10.0008 5.83317C11.1059 5.83317 12.1657 6.27216 12.9471 7.05356C13.7285 7.83496 14.1675 8.89477 14.1675 9.99984C14.1675 11.1049 13.7285 12.1647 12.9471 12.9461C12.1657 13.7275 11.1059 14.1665 10.0008 14.1665C8.89577 14.1665 7.83596 13.7275 7.05456 12.9461C6.27316 12.1647 5.83417 11.1049 5.83417 9.99984C5.83417 8.89477 6.27316 7.83496 7.05456 7.05356C7.83596 6.27216 8.89577 5.83317 10.0008 5.83317ZM15.4175 5.62484C15.4175 5.9011 15.3078 6.16606 15.1124 6.36141C14.9171 6.55676 14.6521 6.6665 14.3758 6.6665C14.0996 6.6665 13.8346 6.55676 13.6393 6.36141C13.4439 6.16606 13.3342 5.9011 13.3342 5.62484C13.3342 5.34857 13.4439 5.08362 13.6393 4.88827C13.8346 4.69292 14.0996 4.58317 14.3758 4.58317C14.6521 4.58317 14.9171 4.69292 15.1124 4.88827C15.3078 5.08362 15.4175 5.34857 15.4175 5.62484ZM10.0008 3.33317C7.93917 3.33317 7.60251 3.339 6.64334 3.3815C5.99001 3.41234 5.55167 3.49984 5.145 3.65817C4.80487 3.78348 4.49727 3.9837 4.24501 4.244C3.9844 4.49619 3.78389 4.80379 3.65834 5.144C3.50001 5.55234 3.41251 5.98984 3.38251 6.64234C3.33917 7.56234 3.33334 7.884 3.33334 9.99984C3.33334 12.0623 3.33917 12.3982 3.38167 13.3573C3.41251 14.0098 3.50001 14.449 3.65751 14.8548C3.79917 15.2173 3.96584 15.4782 4.24251 15.7548C4.52334 16.0348 4.78417 16.2023 5.14251 16.3407C5.55417 16.4998 5.99251 16.5882 6.64251 16.6182C7.56251 16.6615 7.88417 16.6665 10 16.6665C12.0625 16.6665 12.3983 16.6607 13.3575 16.6182C14.0092 16.5873 14.4475 16.4998 14.855 16.3423C15.1951 16.217 15.5027 16.0168 15.755 15.7565C16.0358 15.4765 16.2033 15.2157 16.3417 14.8565C16.5 14.4465 16.5883 14.0082 16.6183 13.3565C16.6617 12.4373 16.6667 12.1148 16.6667 9.99984C16.6667 7.93817 16.6608 7.6015 16.6183 6.64234C16.5875 5.99067 16.4992 5.55067 16.3417 5.144C16.2164 4.80386 16.0161 4.49627 15.7558 4.244C15.5037 3.9834 15.1961 3.78289 14.8558 3.65734C14.4475 3.499 14.0092 3.4115 13.3575 3.3815C12.4383 3.33817 12.1167 3.33317 10 3.33317M10 1.6665C12.2642 1.6665 12.5467 1.67484 13.4358 1.7165C14.3225 1.75817 14.9275 1.89734 15.4583 2.104C16.0083 2.31567 16.4717 2.60234 16.935 3.06484C17.3589 3.48128 17.6868 3.98523 17.8958 4.5415C18.1017 5.07234 18.2417 5.67734 18.2833 6.56484C18.3225 7.45317 18.3333 7.73567 18.3333 9.99984C18.3333 12.264 18.325 12.5465 18.2833 13.4348C18.2417 14.3232 18.1017 14.9265 17.8958 15.4582C17.6868 16.0144 17.3589 16.5184 16.935 16.9348C16.5186 17.3587 16.0146 17.6867 15.4583 17.8957C14.9275 18.1015 14.3225 18.2415 13.4358 18.2832C12.5467 18.3223 12.2642 18.3332 10 18.3332C7.73584 18.3332 7.45334 18.3248 6.56417 18.2832C5.67751 18.2415 5.07334 18.1015 4.54167 17.8957C3.9854 17.6867 3.48145 17.3587 3.06501 16.9348C2.64109 16.5184 2.31319 16.0144 2.10417 15.4582C1.89751 14.9273 1.75834 14.3223 1.71667 13.4348C1.67667 12.5465 1.66667 12.264 1.66667 9.99984C1.66667 7.73567 1.67501 7.45317 1.71667 6.56484C1.75834 5.6765 1.89751 5.07317 2.10417 4.5415C2.31319 3.98523 2.64109 3.48128 3.06501 3.06484C3.48145 2.64093 3.9854 2.31302 4.54167 2.104C5.0725 1.89734 5.67667 1.75817 6.56417 1.7165C7.45417 1.67734 7.73667 1.6665 10.0008 1.6665" fill="white" fill-opacity="0.5"/>
</svg>
