<svg width="20" height="20" viewBox="0 0 20 20" fill="none" xmlns="http://www.w3.org/2000/svg">
<path d="M10.0007 7.49984C9.33763 7.49984 8.70175 7.76323 8.2329 8.23207C7.76406 8.70091 7.50067 9.3368 7.50067 9.99984C7.50067 10.6629 7.76406 11.2988 8.2329 11.7676C8.70175 12.2364 9.33763 12.4998 10.0007 12.4998C10.6637 12.4998 11.2996 12.2364 11.7684 11.7676C12.2373 11.2988 12.5007 10.6629 12.5007 9.99984C12.5007 9.3368 12.2373 8.70091 11.7684 8.23207C11.2996 7.76323 10.6637 7.49984 10.0007 7.49984ZM10.0007 5.83317C11.1057 5.83317 12.1655 6.27216 12.9469 7.05356C13.7284 7.83496 14.1673 8.89477 14.1673 9.99984C14.1673 11.1049 13.7284 12.1647 12.9469 12.9461C12.1655 13.7275 11.1057 14.1665 10.0007 14.1665C8.8956 14.1665 7.83579 13.7275 7.05439 12.9461C6.27299 12.1647 5.834 11.1049 5.834 9.99984C5.834 8.89477 6.27299 7.83496 7.05439 7.05356C7.83579 6.27216 8.8956 5.83317 10.0007 5.83317ZM15.4173 5.62484C15.4173 5.9011 15.3076 6.16606 15.1122 6.36141C14.9169 6.55676 14.6519 6.6665 14.3757 6.6665C14.0994 6.6665 13.8345 6.55676 13.6391 6.36141C13.4438 6.16606 13.334 5.9011 13.334 5.62484C13.334 5.34857 13.4438 5.08362 13.6391 4.88827C13.8345 4.69292 14.0994 4.58317 14.3757 4.58317C14.6519 4.58317 14.9169 4.69292 15.1122 4.88827C15.3076 5.08362 15.4173 5.34857 15.4173 5.62484ZM10.0007 3.33317C7.939 3.33317 7.60234 3.339 6.64317 3.3815C5.98984 3.41234 5.5515 3.49984 5.14484 3.65817C4.8047 3.78348 4.4971 3.9837 4.24484 4.244C3.98423 4.49619 3.78372 4.80379 3.65817 5.144C3.49984 5.55234 3.41234 5.98984 3.38234 6.64234C3.339 7.56234 3.33317 7.884 3.33317 9.99984C3.33317 12.0623 3.339 12.3982 3.3815 13.3573C3.41234 14.0098 3.49984 14.449 3.65734 14.8548C3.799 15.2173 3.96567 15.4782 4.24234 15.7548C4.52317 16.0348 4.784 16.2023 5.14234 16.3407C5.554 16.4998 5.99234 16.5882 6.64234 16.6182C7.56234 16.6615 7.884 16.6665 9.99984 16.6665C12.0623 16.6665 12.3982 16.6607 13.3573 16.6182C14.009 16.5873 14.4473 16.4998 14.8548 16.3423C15.195 16.217 15.5026 16.0168 15.7548 15.7565C16.0357 15.4765 16.2032 15.2157 16.3415 14.8565C16.4998 14.4465 16.5882 14.0082 16.6182 13.3565C16.6615 12.4373 16.6665 12.1148 16.6665 9.99984C16.6665 7.93817 16.6607 7.6015 16.6182 6.64234C16.5873 5.99067 16.499 5.55067 16.3415 5.144C16.2162 4.80386 16.016 4.49627 15.7557 4.244C15.5035 3.9834 15.1959 3.78289 14.8557 3.65734C14.4473 3.499 14.009 3.4115 13.3573 3.3815C12.4382 3.33817 12.1165 3.33317 9.99984 3.33317M9.99984 1.6665C12.264 1.6665 12.5465 1.67484 13.4357 1.7165C14.3223 1.75817 14.9273 1.89734 15.4582 2.104C16.0082 2.31567 16.4715 2.60234 16.9348 3.06484C17.3587 3.48128 17.6867 3.98523 17.8957 4.5415C18.1015 5.07234 18.2415 5.67734 18.2832 6.56484C18.3223 7.45317 18.3332 7.73567 18.3332 9.99984C18.3332 12.264 18.3248 12.5465 18.2832 13.4348C18.2415 14.3232 18.1015 14.9265 17.8957 15.4582C17.6867 16.0144 17.3587 16.5184 16.9348 16.9348C16.5184 17.3587 16.0144 17.6867 15.4582 17.8957C14.9273 18.1015 14.3223 18.2415 13.4357 18.2832C12.5465 18.3223 12.264 18.3332 9.99984 18.3332C7.73567 18.3332 7.45317 18.3248 6.564 18.2832C5.67734 18.2415 5.07317 18.1015 4.5415 17.8957C3.98523 17.6867 3.48128 17.3587 3.06484 16.9348C2.64093 16.5184 2.31302 16.0144 2.104 15.4582C1.89734 14.9273 1.75817 14.3223 1.7165 13.4348C1.6765 12.5465 1.6665 12.264 1.6665 9.99984C1.6665 7.73567 1.67484 7.45317 1.7165 6.56484C1.75817 5.6765 1.89734 5.07317 2.104 4.5415C2.31302 3.98523 2.64093 3.48128 3.06484 3.06484C3.48128 2.64093 3.98523 2.31302 4.5415 2.104C5.07234 1.89734 5.6765 1.75817 6.564 1.7165C7.454 1.67734 7.7365 1.6665 10.0007 1.6665" fill="white" fill-opacity="0.5"/>
</svg>
