<svg width="20" height="20" viewBox="0 0 20 20" fill="none" xmlns="http://www.w3.org/2000/svg">
<path d="M10.0009 7.50033C9.33787 7.50033 8.70199 7.76372 8.23315 8.23256C7.76431 8.7014 7.50092 9.33728 7.50092 10.0003C7.50092 10.6634 7.76431 11.2993 8.23315 11.7681C8.70199 12.2369 9.33787 12.5003 10.0009 12.5003C10.664 12.5003 11.2998 12.2369 11.7687 11.7681C12.2375 11.2993 12.5009 10.6634 12.5009 10.0003C12.5009 9.33728 12.2375 8.7014 11.7687 8.23256C11.2998 7.76372 10.664 7.50033 10.0009 7.50033ZM10.0009 5.83366C11.106 5.83366 12.1658 6.27265 12.9472 7.05405C13.7286 7.83545 14.1676 8.89526 14.1676 10.0003C14.1676 11.1054 13.7286 12.1652 12.9472 12.9466C12.1658 13.728 11.106 14.167 10.0009 14.167C8.89585 14.167 7.83604 13.728 7.05464 12.9466C6.27324 12.1652 5.83425 11.1054 5.83425 10.0003C5.83425 8.89526 6.27324 7.83545 7.05464 7.05405C7.83604 6.27265 8.89585 5.83366 10.0009 5.83366ZM15.4176 5.62533C15.4176 5.90159 15.3078 6.16654 15.1125 6.3619C14.9171 6.55725 14.6522 6.66699 14.3759 6.66699C14.0996 6.66699 13.8347 6.55725 13.6393 6.3619C13.444 6.16654 13.3342 5.90159 13.3342 5.62533C13.3342 5.34906 13.444 5.08411 13.6393 4.88876C13.8347 4.69341 14.0996 4.58366 14.3759 4.58366C14.6522 4.58366 14.9171 4.69341 15.1125 4.88876C15.3078 5.08411 15.4176 5.34906 15.4176 5.62533ZM10.0009 3.33366C7.93925 3.33366 7.60258 3.33949 6.64341 3.38199C5.99008 3.41283 5.55175 3.50033 5.14508 3.65866C4.80494 3.78397 4.49735 3.98419 4.24508 4.24449C3.98448 4.49667 3.78397 4.80427 3.65841 5.14449C3.50008 5.55283 3.41258 5.99033 3.38258 6.64283C3.33925 7.56283 3.33341 7.88449 3.33341 10.0003C3.33341 12.0628 3.33925 12.3987 3.38175 13.3578C3.41258 14.0103 3.50008 14.4495 3.65758 14.8553C3.79925 15.2178 3.96591 15.4787 4.24258 15.7553C4.52341 16.0353 4.78425 16.2028 5.14258 16.3412C5.55425 16.5003 5.99258 16.5887 6.64258 16.6187C7.56258 16.662 7.88425 16.667 10.0001 16.667C12.0626 16.667 12.3984 16.6612 13.3576 16.6187C14.0092 16.5878 14.4476 16.5003 14.8551 16.3428C15.1952 16.2175 15.5028 16.0173 15.7551 15.757C16.0359 15.477 16.2034 15.2162 16.3417 14.857C16.5001 14.447 16.5884 14.0087 16.6184 13.357C16.6617 12.4378 16.6667 12.1153 16.6667 10.0003C16.6667 7.93866 16.6609 7.60199 16.6184 6.64283C16.5876 5.99116 16.4992 5.55116 16.3417 5.14449C16.2164 4.80435 16.0162 4.49676 15.7559 4.24449C15.5037 3.98389 15.1961 3.78338 14.8559 3.65783C14.4476 3.49949 14.0092 3.41199 13.3576 3.38199C12.4384 3.33866 12.1167 3.33366 10.0001 3.33366M10.0001 1.66699C12.2642 1.66699 12.5467 1.67533 13.4359 1.71699C14.3226 1.75866 14.9276 1.89783 15.4584 2.10449C16.0084 2.31616 16.4717 2.60283 16.9351 3.06533C17.359 3.48177 17.6869 3.98572 17.8959 4.54199C18.1017 5.07283 18.2417 5.67783 18.2834 6.56533C18.3226 7.45366 18.3334 7.73616 18.3334 10.0003C18.3334 12.2645 18.3251 12.547 18.2834 13.4353C18.2417 14.3237 18.1017 14.927 17.8959 15.4587C17.6869 16.0149 17.359 16.5189 16.9351 16.9353C16.5186 17.3592 16.0147 17.6871 15.4584 17.8962C14.9276 18.102 14.3226 18.242 13.4359 18.2837C12.5467 18.3228 12.2642 18.3337 10.0001 18.3337C7.73592 18.3337 7.45341 18.3253 6.56425 18.2837C5.67758 18.242 5.07341 18.102 4.54175 17.8962C3.98548 17.6871 3.48153 17.3592 3.06508 16.9353C2.64117 16.5189 2.31326 16.0149 2.10425 15.4587C1.89758 14.9278 1.75841 14.3228 1.71675 13.4353C1.67675 12.547 1.66675 12.2645 1.66675 10.0003C1.66675 7.73616 1.67508 7.45366 1.71675 6.56533C1.75841 5.67699 1.89758 5.07366 2.10425 4.54199C2.31326 3.98572 2.64117 3.48177 3.06508 3.06533C3.48153 2.64141 3.98548 2.31351 4.54175 2.10449C5.07258 1.89783 5.67675 1.75866 6.56425 1.71699C7.45425 1.67783 7.73675 1.66699 10.0009 1.66699" fill="white" fill-opacity="0.5"/>
</svg>
