<svg width="20" height="20" viewBox="0 0 20 20" fill="none" xmlns="http://www.w3.org/2000/svg">
<path d="M10.0007 7.50033C9.33763 7.50033 8.70175 7.76372 8.2329 8.23256C7.76406 8.7014 7.50067 9.33728 7.50067 10.0003C7.50067 10.6634 7.76406 11.2993 8.2329 11.7681C8.70175 12.2369 9.33763 12.5003 10.0007 12.5003C10.6637 12.5003 11.2996 12.2369 11.7684 11.7681C12.2373 11.2993 12.5007 10.6634 12.5007 10.0003C12.5007 9.33728 12.2373 8.7014 11.7684 8.23256C11.2996 7.76372 10.6637 7.50033 10.0007 7.50033ZM10.0007 5.83366C11.1057 5.83366 12.1655 6.27265 12.9469 7.05405C13.7284 7.83545 14.1673 8.89526 14.1673 10.0003C14.1673 11.1054 13.7284 12.1652 12.9469 12.9466C12.1655 13.728 11.1057 14.167 10.0007 14.167C8.8956 14.167 7.83579 13.728 7.05439 12.9466C6.27299 12.1652 5.834 11.1054 5.834 10.0003C5.834 8.89526 6.27299 7.83545 7.05439 7.05405C7.83579 6.27265 8.8956 5.83366 10.0007 5.83366ZM15.4173 5.62533C15.4173 5.90159 15.3076 6.16654 15.1122 6.3619C14.9169 6.55725 14.6519 6.66699 14.3757 6.66699C14.0994 6.66699 13.8345 6.55725 13.6391 6.3619C13.4438 6.16654 13.334 5.90159 13.334 5.62533C13.334 5.34906 13.4438 5.08411 13.6391 4.88876C13.8345 4.69341 14.0994 4.58366 14.3757 4.58366C14.6519 4.58366 14.9169 4.69341 15.1122 4.88876C15.3076 5.08411 15.4173 5.34906 15.4173 5.62533ZM10.0007 3.33366C7.939 3.33366 7.60234 3.33949 6.64317 3.38199C5.98984 3.41283 5.5515 3.50033 5.14484 3.65866C4.8047 3.78397 4.4971 3.98419 4.24484 4.24449C3.98423 4.49667 3.78372 4.80427 3.65817 5.14449C3.49984 5.55283 3.41234 5.99033 3.38234 6.64283C3.339 7.56283 3.33317 7.88449 3.33317 10.0003C3.33317 12.0628 3.339 12.3987 3.3815 13.3578C3.41234 14.0103 3.49984 14.4495 3.65734 14.8553C3.799 15.2178 3.96567 15.4787 4.24234 15.7553C4.52317 16.0353 4.784 16.2028 5.14234 16.3412C5.554 16.5003 5.99234 16.5887 6.64234 16.6187C7.56234 16.662 7.884 16.667 9.99984 16.667C12.0623 16.667 12.3982 16.6612 13.3573 16.6187C14.009 16.5878 14.4473 16.5003 14.8548 16.3428C15.195 16.2175 15.5026 16.0173 15.7548 15.757C16.0357 15.477 16.2032 15.2162 16.3415 14.857C16.4998 14.447 16.5882 14.0087 16.6182 13.357C16.6615 12.4378 16.6665 12.1153 16.6665 10.0003C16.6665 7.93866 16.6607 7.60199 16.6182 6.64283C16.5873 5.99116 16.499 5.55116 16.3415 5.14449C16.2162 4.80435 16.016 4.49676 15.7557 4.24449C15.5035 3.98389 15.1959 3.78338 14.8557 3.65783C14.4473 3.49949 14.009 3.41199 13.3573 3.38199C12.4382 3.33866 12.1165 3.33366 9.99984 3.33366M9.99984 1.66699C12.264 1.66699 12.5465 1.67533 13.4357 1.71699C14.3223 1.75866 14.9273 1.89783 15.4582 2.10449C16.0082 2.31616 16.4715 2.60283 16.9348 3.06533C17.3587 3.48177 17.6867 3.98572 17.8957 4.54199C18.1015 5.07283 18.2415 5.67783 18.2832 6.56533C18.3223 7.45366 18.3332 7.73616 18.3332 10.0003C18.3332 12.2645 18.3248 12.547 18.2832 13.4353C18.2415 14.3237 18.1015 14.927 17.8957 15.4587C17.6867 16.0149 17.3587 16.5189 16.9348 16.9353C16.5184 17.3592 16.0144 17.6871 15.4582 17.8962C14.9273 18.102 14.3223 18.242 13.4357 18.2837C12.5465 18.3228 12.264 18.3337 9.99984 18.3337C7.73567 18.3337 7.45317 18.3253 6.564 18.2837C5.67734 18.242 5.07317 18.102 4.5415 17.8962C3.98523 17.6871 3.48128 17.3592 3.06484 16.9353C2.64093 16.5189 2.31302 16.0149 2.104 15.4587C1.89734 14.9278 1.75817 14.3228 1.7165 13.4353C1.6765 12.547 1.6665 12.2645 1.6665 10.0003C1.6665 7.73616 1.67484 7.45366 1.7165 6.56533C1.75817 5.67699 1.89734 5.07366 2.104 4.54199C2.31302 3.98572 2.64093 3.48177 3.06484 3.06533C3.48128 2.64141 3.98523 2.31351 4.5415 2.10449C5.07234 1.89783 5.6765 1.75866 6.564 1.71699C7.454 1.67783 7.7365 1.66699 10.0007 1.66699" fill="white" fill-opacity="0.5"/>
</svg>
