<svg width="20" height="20" viewBox="0 0 20 20" fill="none" xmlns="http://www.w3.org/2000/svg">
<path d="M10.0008 7.49984C9.33775 7.49984 8.70187 7.76323 8.23303 8.23207C7.76418 8.70091 7.50079 9.3368 7.50079 9.99984C7.50079 10.6629 7.76418 11.2988 8.23303 11.7676C8.70187 12.2364 9.33775 12.4998 10.0008 12.4998C10.6638 12.4998 11.2997 12.2364 11.7686 11.7676C12.2374 11.2988 12.5008 10.6629 12.5008 9.99984C12.5008 9.3368 12.2374 8.70091 11.7686 8.23207C11.2997 7.76323 10.6638 7.49984 10.0008 7.49984ZM10.0008 5.83317C11.1059 5.83317 12.1657 6.27216 12.9471 7.05356C13.7285 7.83496 14.1675 8.89477 14.1675 9.99984C14.1675 11.1049 13.7285 12.1647 12.9471 12.9461C12.1657 13.7275 11.1059 14.1665 10.0008 14.1665C8.89572 14.1665 7.83592 13.7275 7.05451 12.9461C6.27311 12.1647 5.83413 11.1049 5.83413 9.99984C5.83413 8.89477 6.27311 7.83496 7.05451 7.05356C7.83592 6.27216 8.89572 5.83317 10.0008 5.83317ZM15.4175 5.62484C15.4175 5.9011 15.3077 6.16606 15.1124 6.36141C14.917 6.55676 14.6521 6.6665 14.3758 6.6665C14.0995 6.6665 13.8346 6.55676 13.6392 6.36141C13.4439 6.16606 13.3341 5.9011 13.3341 5.62484C13.3341 5.34857 13.4439 5.08362 13.6392 4.88827C13.8346 4.69292 14.0995 4.58317 14.3758 4.58317C14.6521 4.58317 14.917 4.69292 15.1124 4.88827C15.3077 5.08362 15.4175 5.34857 15.4175 5.62484ZM10.0008 3.33317C7.93913 3.33317 7.60246 3.339 6.64329 3.3815C5.98996 3.41234 5.55163 3.49984 5.14496 3.65817C4.80482 3.78348 4.49723 3.9837 4.24496 4.244C3.98435 4.49619 3.78384 4.80379 3.65829 5.144C3.49996 5.55234 3.41246 5.98984 3.38246 6.64234C3.33913 7.56234 3.33329 7.884 3.33329 9.99984C3.33329 12.0623 3.33913 12.3982 3.38163 13.3573C3.41246 14.0098 3.49996 14.449 3.65746 14.8548C3.79913 15.2173 3.96579 15.4782 4.24246 15.7548C4.52329 16.0348 4.78413 16.2023 5.14246 16.3407C5.55413 16.4998 5.99246 16.5882 6.64246 16.6182C7.56246 16.6615 7.88413 16.6665 9.99996 16.6665C12.0625 16.6665 12.3983 16.6607 13.3575 16.6182C14.0091 16.5873 14.4475 16.4998 14.855 16.3423C15.1951 16.217 15.5027 16.0168 15.755 15.7565C16.0358 15.4765 16.2033 15.2157 16.3416 14.8565C16.5 14.4465 16.5883 14.0082 16.6183 13.3565C16.6616 12.4373 16.6666 12.1148 16.6666 9.99984C16.6666 7.93817 16.6608 7.6015 16.6183 6.64234C16.5875 5.99067 16.4991 5.55067 16.3416 5.144C16.2163 4.80386 16.0161 4.49627 15.7558 4.244C15.5036 3.9834 15.196 3.78289 14.8558 3.65734C14.4475 3.499 14.0091 3.4115 13.3575 3.3815C12.4383 3.33817 12.1166 3.33317 9.99996 3.33317M9.99996 1.6665C12.2641 1.6665 12.5466 1.67484 13.4358 1.7165C14.3225 1.75817 14.9275 1.89734 15.4583 2.104C16.0083 2.31567 16.4716 2.60234 16.935 3.06484C17.3589 3.48128 17.6868 3.98523 17.8958 4.5415C18.1016 5.07234 18.2416 5.67734 18.2833 6.56484C18.3225 7.45317 18.3333 7.73567 18.3333 9.99984C18.3333 12.264 18.325 12.5465 18.2833 13.4348C18.2416 14.3232 18.1016 14.9265 17.8958 15.4582C17.6868 16.0144 17.3589 16.5184 16.935 16.9348C16.5185 17.3587 16.0146 17.6867 15.4583 17.8957C14.9275 18.1015 14.3225 18.2415 13.4358 18.2832C12.5466 18.3223 12.2641 18.3332 9.99996 18.3332C7.73579 18.3332 7.45329 18.3248 6.56413 18.2832C5.67746 18.2415 5.07329 18.1015 4.54163 17.8957C3.98535 17.6867 3.4814 17.3587 3.06496 16.9348C2.64105 16.5184 2.31314 16.0144 2.10413 15.4582C1.89746 14.9273 1.75829 14.3223 1.71663 13.4348C1.67663 12.5465 1.66663 12.264 1.66663 9.99984C1.66663 7.73567 1.67496 7.45317 1.71663 6.56484C1.75829 5.6765 1.89746 5.07317 2.10413 4.5415C2.31314 3.98523 2.64105 3.48128 3.06496 3.06484C3.4814 2.64093 3.98535 2.31302 4.54163 2.104C5.07246 1.89734 5.67663 1.75817 6.56413 1.7165C7.45413 1.67734 7.73663 1.6665 10.0008 1.6665" fill="white" fill-opacity="0.5"/>
</svg>
