<svg width="20" height="20" viewBox="0 0 20 20" fill="none" xmlns="http://www.w3.org/2000/svg">
<path d="M10.0007 7.49996C9.33763 7.49996 8.70175 7.76335 8.2329 8.23219C7.76406 8.70103 7.50067 9.33692 7.50067 9.99996C7.50067 10.663 7.76406 11.2989 8.2329 11.7677C8.70175 12.2366 9.33763 12.5 10.0007 12.5C10.6637 12.5 11.2996 12.2366 11.7684 11.7677C12.2373 11.2989 12.5007 10.663 12.5007 9.99996C12.5007 9.33692 12.2373 8.70103 11.7684 8.23219C11.2996 7.76335 10.6637 7.49996 10.0007 7.49996ZM10.0007 5.83329C11.1057 5.83329 12.1655 6.27228 12.9469 7.05368C13.7284 7.83508 14.1673 8.89489 14.1673 9.99996C14.1673 11.105 13.7284 12.1648 12.9469 12.9462C12.1655 13.7276 11.1057 14.1666 10.0007 14.1666C8.8956 14.1666 7.83579 13.7276 7.05439 12.9462C6.27299 12.1648 5.834 11.105 5.834 9.99996C5.834 8.89489 6.27299 7.83508 7.05439 7.05368C7.83579 6.27228 8.8956 5.83329 10.0007 5.83329ZM15.4173 5.62496C15.4173 5.90123 15.3076 6.16618 15.1122 6.36153C14.9169 6.55688 14.6519 6.66663 14.3757 6.66663C14.0994 6.66663 13.8345 6.55688 13.6391 6.36153C13.4438 6.16618 13.334 5.90123 13.334 5.62496C13.334 5.34869 13.4438 5.08374 13.6391 4.88839C13.8345 4.69304 14.0994 4.58329 14.3757 4.58329C14.6519 4.58329 14.9169 4.69304 15.1122 4.88839C15.3076 5.08374 15.4173 5.34869 15.4173 5.62496ZM10.0007 3.33329C7.939 3.33329 7.60234 3.33913 6.64317 3.38163C5.98984 3.41246 5.5515 3.49996 5.14484 3.65829C4.8047 3.7836 4.4971 3.98382 4.24484 4.24413C3.98423 4.49631 3.78372 4.80391 3.65817 5.14413C3.49984 5.55246 3.41234 5.98996 3.38234 6.64246C3.339 7.56246 3.33317 7.88413 3.33317 9.99996C3.33317 12.0625 3.339 12.3983 3.3815 13.3575C3.41234 14.01 3.49984 14.4491 3.65734 14.855C3.799 15.2175 3.96567 15.4783 4.24234 15.755C4.52317 16.035 4.784 16.2025 5.14234 16.3408C5.554 16.5 5.99234 16.5883 6.64234 16.6183C7.56234 16.6616 7.884 16.6666 9.99984 16.6666C12.0623 16.6666 12.3982 16.6608 13.3573 16.6183C14.009 16.5875 14.4473 16.5 14.8548 16.3425C15.195 16.2172 15.5026 16.0169 15.7548 15.7566C16.0357 15.4766 16.2032 15.2158 16.3415 14.8566C16.4998 14.4466 16.5882 14.0083 16.6182 13.3566C16.6615 12.4375 16.6665 12.115 16.6665 9.99996C16.6665 7.93829 16.6607 7.60163 16.6182 6.64246C16.5873 5.99079 16.499 5.55079 16.3415 5.14413C16.2162 4.80399 16.016 4.49639 15.7557 4.24413C15.5035 3.98352 15.1959 3.78301 14.8557 3.65746C14.4473 3.49913 14.009 3.41163 13.3573 3.38163C12.4382 3.33829 12.1165 3.33329 9.99984 3.33329M9.99984 1.66663C12.264 1.66663 12.5465 1.67496 13.4357 1.71663C14.3223 1.75829 14.9273 1.89746 15.4582 2.10413C16.0082 2.31579 16.4715 2.60246 16.9348 3.06496C17.3587 3.4814 17.6867 3.98535 17.8957 4.54163C18.1015 5.07246 18.2415 5.67746 18.2832 6.56496C18.3223 7.45329 18.3332 7.73579 18.3332 9.99996C18.3332 12.2641 18.3248 12.5466 18.2832 13.435C18.2415 14.3233 18.1015 14.9266 17.8957 15.4583C17.6867 16.0146 17.3587 16.5185 16.9348 16.935C16.5184 17.3589 16.0144 17.6868 15.4582 17.8958C14.9273 18.1016 14.3223 18.2416 13.4357 18.2833C12.5465 18.3225 12.264 18.3333 9.99984 18.3333C7.73567 18.3333 7.45317 18.325 6.564 18.2833C5.67734 18.2416 5.07317 18.1016 4.5415 17.8958C3.98523 17.6868 3.48128 17.3589 3.06484 16.935C2.64093 16.5185 2.31302 16.0146 2.104 15.4583C1.89734 14.9275 1.75817 14.3225 1.7165 13.435C1.6765 12.5466 1.6665 12.2641 1.6665 9.99996C1.6665 7.73579 1.67484 7.45329 1.7165 6.56496C1.75817 5.67663 1.89734 5.07329 2.104 4.54163C2.31302 3.98535 2.64093 3.4814 3.06484 3.06496C3.48128 2.64105 3.98523 2.31314 4.5415 2.10413C5.07234 1.89746 5.6765 1.75829 6.564 1.71663C7.454 1.67746 7.7365 1.66663 10.0007 1.66663" fill="white" fill-opacity="0.5"/>
</svg>
