<svg width="20" height="20" viewBox="0 0 20 20" fill="none" xmlns="http://www.w3.org/2000/svg">
<path d="M10.0009 7.49984C9.33787 7.49984 8.70199 7.76323 8.23315 8.23207C7.76431 8.70091 7.50092 9.3368 7.50092 9.99984C7.50092 10.6629 7.76431 11.2988 8.23315 11.7676C8.70199 12.2364 9.33787 12.4998 10.0009 12.4998C10.664 12.4998 11.2998 12.2364 11.7687 11.7676C12.2375 11.2988 12.5009 10.6629 12.5009 9.99984C12.5009 9.3368 12.2375 8.70091 11.7687 8.23207C11.2998 7.76323 10.664 7.49984 10.0009 7.49984ZM10.0009 5.83317C11.106 5.83317 12.1658 6.27216 12.9472 7.05356C13.7286 7.83496 14.1676 8.89477 14.1676 9.99984C14.1676 11.1049 13.7286 12.1647 12.9472 12.9461C12.1658 13.7275 11.106 14.1665 10.0009 14.1665C8.89585 14.1665 7.83604 13.7275 7.05464 12.9461C6.27324 12.1647 5.83425 11.1049 5.83425 9.99984C5.83425 8.89477 6.27324 7.83496 7.05464 7.05356C7.83604 6.27216 8.89585 5.83317 10.0009 5.83317ZM15.4176 5.62484C15.4176 5.9011 15.3078 6.16606 15.1125 6.36141C14.9171 6.55676 14.6522 6.6665 14.3759 6.6665C14.0996 6.6665 13.8347 6.55676 13.6393 6.36141C13.444 6.16606 13.3342 5.9011 13.3342 5.62484C13.3342 5.34857 13.444 5.08362 13.6393 4.88827C13.8347 4.69292 14.0996 4.58317 14.3759 4.58317C14.6522 4.58317 14.9171 4.69292 15.1125 4.88827C15.3078 5.08362 15.4176 5.34857 15.4176 5.62484ZM10.0009 3.33317C7.93925 3.33317 7.60258 3.339 6.64341 3.3815C5.99008 3.41234 5.55175 3.49984 5.14508 3.65817C4.80494 3.78348 4.49735 3.9837 4.24508 4.244C3.98448 4.49619 3.78397 4.80379 3.65841 5.144C3.50008 5.55234 3.41258 5.98984 3.38258 6.64234C3.33925 7.56234 3.33341 7.884 3.33341 9.99984C3.33341 12.0623 3.33925 12.3982 3.38175 13.3573C3.41258 14.0098 3.50008 14.449 3.65758 14.8548C3.79925 15.2173 3.96591 15.4782 4.24258 15.7548C4.52341 16.0348 4.78425 16.2023 5.14258 16.3407C5.55425 16.4998 5.99258 16.5882 6.64258 16.6182C7.56258 16.6615 7.88425 16.6665 10.0001 16.6665C12.0626 16.6665 12.3984 16.6607 13.3576 16.6182C14.0092 16.5873 14.4476 16.4998 14.8551 16.3423C15.1952 16.217 15.5028 16.0168 15.7551 15.7565C16.0359 15.4765 16.2034 15.2157 16.3417 14.8565C16.5001 14.4465 16.5884 14.0082 16.6184 13.3565C16.6617 12.4373 16.6667 12.1148 16.6667 9.99984C16.6667 7.93817 16.6609 7.6015 16.6184 6.64234C16.5876 5.99067 16.4992 5.55067 16.3417 5.144C16.2164 4.80386 16.0162 4.49627 15.7559 4.244C15.5037 3.9834 15.1961 3.78289 14.8559 3.65734C14.4476 3.499 14.0092 3.4115 13.3576 3.3815C12.4384 3.33817 12.1167 3.33317 10.0001 3.33317M10.0001 1.6665C12.2642 1.6665 12.5467 1.67484 13.4359 1.7165C14.3226 1.75817 14.9276 1.89734 15.4584 2.104C16.0084 2.31567 16.4717 2.60234 16.9351 3.06484C17.359 3.48128 17.6869 3.98523 17.8959 4.5415C18.1017 5.07234 18.2417 5.67734 18.2834 6.56484C18.3226 7.45317 18.3334 7.73567 18.3334 9.99984C18.3334 12.264 18.3251 12.5465 18.2834 13.4348C18.2417 14.3232 18.1017 14.9265 17.8959 15.4582C17.6869 16.0144 17.359 16.5184 16.9351 16.9348C16.5186 17.3587 16.0147 17.6867 15.4584 17.8957C14.9276 18.1015 14.3226 18.2415 13.4359 18.2832C12.5467 18.3223 12.2642 18.3332 10.0001 18.3332C7.73592 18.3332 7.45341 18.3248 6.56425 18.2832C5.67758 18.2415 5.07341 18.1015 4.54175 17.8957C3.98548 17.6867 3.48153 17.3587 3.06508 16.9348C2.64117 16.5184 2.31326 16.0144 2.10425 15.4582C1.89758 14.9273 1.75841 14.3223 1.71675 13.4348C1.67675 12.5465 1.66675 12.264 1.66675 9.99984C1.66675 7.73567 1.67508 7.45317 1.71675 6.56484C1.75841 5.6765 1.89758 5.07317 2.10425 4.5415C2.31326 3.98523 2.64117 3.48128 3.06508 3.06484C3.48153 2.64093 3.98548 2.31302 4.54175 2.104C5.07258 1.89734 5.67675 1.75817 6.56425 1.7165C7.45425 1.67734 7.73675 1.6665 10.0009 1.6665" fill="white" fill-opacity="0.5"/>
</svg>
