<svg width="20" height="20" viewBox="0 0 20 20" fill="none" xmlns="http://www.w3.org/2000/svg">
<path d="M10.0008 7.50033C9.33775 7.50033 8.70187 7.76372 8.23303 8.23256C7.76418 8.7014 7.50079 9.33728 7.50079 10.0003C7.50079 10.6634 7.76418 11.2993 8.23303 11.7681C8.70187 12.2369 9.33775 12.5003 10.0008 12.5003C10.6638 12.5003 11.2997 12.2369 11.7686 11.7681C12.2374 11.2993 12.5008 10.6634 12.5008 10.0003C12.5008 9.33728 12.2374 8.7014 11.7686 8.23256C11.2997 7.76372 10.6638 7.50033 10.0008 7.50033ZM10.0008 5.83366C11.1059 5.83366 12.1657 6.27265 12.9471 7.05405C13.7285 7.83545 14.1675 8.89526 14.1675 10.0003C14.1675 11.1054 13.7285 12.1652 12.9471 12.9466C12.1657 13.728 11.1059 14.167 10.0008 14.167C8.89572 14.167 7.83592 13.728 7.05451 12.9466C6.27311 12.1652 5.83413 11.1054 5.83413 10.0003C5.83413 8.89526 6.27311 7.83545 7.05451 7.05405C7.83592 6.27265 8.89572 5.83366 10.0008 5.83366ZM15.4175 5.62533C15.4175 5.90159 15.3077 6.16654 15.1124 6.3619C14.917 6.55725 14.6521 6.66699 14.3758 6.66699C14.0995 6.66699 13.8346 6.55725 13.6392 6.3619C13.4439 6.16654 13.3341 5.90159 13.3341 5.62533C13.3341 5.34906 13.4439 5.08411 13.6392 4.88876C13.8346 4.69341 14.0995 4.58366 14.3758 4.58366C14.6521 4.58366 14.917 4.69341 15.1124 4.88876C15.3077 5.08411 15.4175 5.34906 15.4175 5.62533ZM10.0008 3.33366C7.93913 3.33366 7.60246 3.33949 6.64329 3.38199C5.98996 3.41283 5.55163 3.50033 5.14496 3.65866C4.80482 3.78397 4.49723 3.98419 4.24496 4.24449C3.98435 4.49667 3.78384 4.80427 3.65829 5.14449C3.49996 5.55283 3.41246 5.99033 3.38246 6.64283C3.33913 7.56283 3.33329 7.88449 3.33329 10.0003C3.33329 12.0628 3.33913 12.3987 3.38163 13.3578C3.41246 14.0103 3.49996 14.4495 3.65746 14.8553C3.79913 15.2178 3.96579 15.4787 4.24246 15.7553C4.52329 16.0353 4.78413 16.2028 5.14246 16.3412C5.55413 16.5003 5.99246 16.5887 6.64246 16.6187C7.56246 16.662 7.88413 16.667 9.99996 16.667C12.0625 16.667 12.3983 16.6612 13.3575 16.6187C14.0091 16.5878 14.4475 16.5003 14.855 16.3428C15.1951 16.2175 15.5027 16.0173 15.755 15.757C16.0358 15.477 16.2033 15.2162 16.3416 14.857C16.5 14.447 16.5883 14.0087 16.6183 13.357C16.6616 12.4378 16.6666 12.1153 16.6666 10.0003C16.6666 7.93866 16.6608 7.60199 16.6183 6.64283C16.5875 5.99116 16.4991 5.55116 16.3416 5.14449C16.2163 4.80435 16.0161 4.49676 15.7558 4.24449C15.5036 3.98389 15.196 3.78338 14.8558 3.65783C14.4475 3.49949 14.0091 3.41199 13.3575 3.38199C12.4383 3.33866 12.1166 3.33366 9.99996 3.33366M9.99996 1.66699C12.2641 1.66699 12.5466 1.67533 13.4358 1.71699C14.3225 1.75866 14.9275 1.89783 15.4583 2.10449C16.0083 2.31616 16.4716 2.60283 16.935 3.06533C17.3589 3.48177 17.6868 3.98572 17.8958 4.54199C18.1016 5.07283 18.2416 5.67783 18.2833 6.56533C18.3225 7.45366 18.3333 7.73616 18.3333 10.0003C18.3333 12.2645 18.325 12.547 18.2833 13.4353C18.2416 14.3237 18.1016 14.927 17.8958 15.4587C17.6868 16.0149 17.3589 16.5189 16.935 16.9353C16.5185 17.3592 16.0146 17.6871 15.4583 17.8962C14.9275 18.102 14.3225 18.242 13.4358 18.2837C12.5466 18.3228 12.2641 18.3337 9.99996 18.3337C7.73579 18.3337 7.45329 18.3253 6.56413 18.2837C5.67746 18.242 5.07329 18.102 4.54163 17.8962C3.98535 17.6871 3.4814 17.3592 3.06496 16.9353C2.64105 16.5189 2.31314 16.0149 2.10413 15.4587C1.89746 14.9278 1.75829 14.3228 1.71663 13.4353C1.67663 12.547 1.66663 12.2645 1.66663 10.0003C1.66663 7.73616 1.67496 7.45366 1.71663 6.56533C1.75829 5.67699 1.89746 5.07366 2.10413 4.54199C2.31314 3.98572 2.64105 3.48177 3.06496 3.06533C3.4814 2.64141 3.98535 2.31351 4.54163 2.10449C5.07246 1.89783 5.67663 1.75866 6.56413 1.71699C7.45413 1.67783 7.73663 1.66699 10.0008 1.66699" fill="white" fill-opacity="0.5"/>
</svg>
