<svg width="24" height="24" viewBox="0 0 24 24" fill="none" xmlns="http://www.w3.org/2000/svg">
<path d="M13.4372 18.2762C14.4252 16.4142 17.7182 16.4142 17.7182 16.4142C21.1502 16.3782 21.6142 14.2942 21.9242 13.2412C21.6508 15.4223 20.6668 17.4528 19.1241 19.0187C17.5814 20.5847 15.566 21.5991 13.3892 21.9052C13.0662 21.2252 12.6842 19.6952 13.4372 18.2762Z" fill="#0A2363"/>
<path d="M5.00601 5.83395L4.59401 5.48195C4.56032 5.45239 4.52764 5.42171 4.49601 5.38995C2.88419 7.21422 1.99628 9.56563 2.00001 11.9999C2.00001 17.4599 6.37701 21.8999 11.814 21.9979C11.461 20.9429 11.23 19.2339 12.112 17.5729C12.922 16.0469 14.552 15.4459 15.59 15.1899C16.2662 15.0268 16.9577 14.9346 17.653 14.9149H17.706C19.087 14.8989 19.623 14.492 19.87 14.2129C20.176 13.8689 20.296 13.4609 20.463 12.8919L20.485 12.8179C20.5799 12.4951 20.7807 12.2136 21.0549 12.0187C21.3291 11.8237 21.6609 11.7266 21.997 11.7429C21.9388 9.34371 21.0162 7.04618 19.399 5.27295C19.367 5.44995 19.329 5.61595 19.292 5.76195C19.122 6.42295 18.838 7.13695 18.488 7.66695C18.147 8.18695 17.539 8.64995 17.136 8.93995C16.831 9.15895 16.519 9.33995 16.263 9.48895L16.171 9.54195C15.939 9.67495 15.755 9.78195 15.579 9.89695C15.223 10.1319 15.009 10.3409 14.865 10.6239C14.953 10.9459 15.015 11.3169 15.017 11.7039C15.019 12.6259 14.547 13.3539 13.984 13.8079C13.4167 14.2616 12.7104 14.506 11.984 14.4999C9.03401 14.4679 7.30401 12.0609 7.08101 9.58195C7.01601 8.86095 6.69201 8.08395 6.23901 7.35995C5.89218 6.80262 5.47806 6.2901 5.00601 5.83395Z" fill="#0A2363"/>
<path d="M8.57482 9.44701C8.38782 7.36301 6.78082 5.42101 5.99982 4.71101L5.56982 4.34101C7.36942 2.82579 9.64728 1.99648 11.9998 2.00001C14.2138 2.00001 16.2598 2.72001 17.9158 3.93601C18.1498 4.64701 17.7038 6.13201 17.2358 6.84201C17.0658 7.09901 16.6818 7.41901 16.2598 7.72201C15.3098 8.40501 14.1098 8.74201 13.4998 10C13.3474 10.3167 13.3178 10.6787 13.4168 11.016C13.4768 11.236 13.5168 11.475 13.5168 11.708C13.5188 12.463 12.7548 13.008 11.9998 13C10.0358 12.979 8.74982 11.396 8.57482 9.44701Z" fill="#0A2363"/>
</svg>
