<svg width="24" height="24" viewBox="0 0 24 24" fill="none" xmlns="http://www.w3.org/2000/svg">
<path d="M13.4367 18.2762C14.4247 16.4142 17.7177 16.4142 17.7177 16.4142C21.1497 16.3782 21.6137 14.2942 21.9237 13.2412C21.6503 15.4223 20.6663 17.4528 19.1236 19.0187C17.5809 20.5847 15.5655 21.5991 13.3887 21.9052C13.0657 21.2252 12.6837 19.6952 13.4367 18.2762Z" fill="#0A2363"/>
<path d="M5.00601 5.83395L4.59401 5.48195C4.56032 5.45239 4.52764 5.42171 4.49601 5.38995C2.88419 7.21422 1.99628 9.56563 2.00001 11.9999C2.00001 17.4599 6.37701 21.8999 11.814 21.9979C11.461 20.9429 11.23 19.2339 12.112 17.5729C12.922 16.0469 14.552 15.4459 15.59 15.1899C16.2662 15.0268 16.9577 14.9346 17.653 14.9149H17.706C19.087 14.8989 19.623 14.492 19.87 14.2129C20.176 13.8689 20.296 13.4609 20.463 12.8919L20.485 12.8179C20.5799 12.4951 20.7807 12.2136 21.0549 12.0187C21.3291 11.8237 21.6609 11.7266 21.997 11.7429C21.9388 9.34371 21.0162 7.04618 19.399 5.27295C19.367 5.44995 19.329 5.61595 19.292 5.76195C19.122 6.42295 18.838 7.13695 18.488 7.66695C18.147 8.18695 17.539 8.64995 17.136 8.93995C16.831 9.15895 16.519 9.33995 16.263 9.48895L16.171 9.54195C15.939 9.67495 15.755 9.78195 15.579 9.89695C15.223 10.1319 15.009 10.3409 14.865 10.6239C14.953 10.9459 15.015 11.3169 15.017 11.7039C15.019 12.6259 14.547 13.3539 13.984 13.8079C13.4167 14.2616 12.7104 14.506 11.984 14.4999C9.03401 14.4679 7.30401 12.0609 7.08101 9.58195C7.01601 8.86095 6.69201 8.08395 6.23901 7.35995C5.89218 6.80262 5.47806 6.2901 5.00601 5.83395Z" fill="#0A2363"/>
<path d="M8.57531 9.44701C8.38831 7.36301 6.78131 5.42101 6.00031 4.71101L5.57031 4.34101C7.36991 2.82579 9.64777 1.99648 12.0003 2.00001C14.2143 2.00001 16.2603 2.72001 17.9163 3.93601C18.1503 4.64701 17.7043 6.13201 17.2363 6.84201C17.0663 7.09901 16.6823 7.41901 16.2603 7.72201C15.3103 8.40501 14.1103 8.74201 13.5003 10C13.3478 10.3167 13.3183 10.6787 13.4173 11.016C13.4773 11.236 13.5173 11.475 13.5173 11.708C13.5193 12.463 12.7553 13.008 12.0003 13C10.0363 12.979 8.75031 11.396 8.57531 9.44701Z" fill="#0A2363"/>
</svg>
