<svg width="20" height="20" viewBox="0 0 20 20" fill="none" xmlns="http://www.w3.org/2000/svg">
<path d="M10 2.49953C8.4529 2.49953 6.96917 3.11411 5.87521 4.20807C4.78125 5.30204 4.16667 6.78577 4.16667 8.33286C4.16667 10.7179 5.65167 13.0187 7.28167 14.8012C8.11512 15.7092 9.02453 16.5445 10 17.2979C10.1456 17.1862 10.3164 17.0501 10.5125 16.8895C11.2957 16.2464 12.0328 15.5491 12.7183 14.8029C14.3483 13.0187 15.8333 10.7187 15.8333 8.33286C15.8333 6.78577 15.2188 5.30204 14.1248 4.20807C13.0308 3.11411 11.5471 2.49953 10 2.49953ZM10 19.3445L9.5275 19.0195L9.525 19.0179L9.52 19.0137L9.50333 19.002L9.44083 18.9579L9.21583 18.7937C8.07572 17.9368 7.01656 16.9773 6.05167 15.927C4.34833 14.062 2.5 11.3629 2.5 8.33203C2.5 6.34291 3.29018 4.43525 4.6967 3.02873C6.10322 1.62221 8.01088 0.832031 10 0.832031C11.9891 0.832031 13.8968 1.62221 15.3033 3.02873C16.7098 4.43525 17.5 6.34291 17.5 8.33203C17.5 11.3629 15.6517 14.0629 13.9483 15.9254C12.9837 16.9756 11.9248 17.9351 10.785 18.792C10.69 18.863 10.5942 18.9327 10.4975 19.0012L10.48 19.0129L10.475 19.017L10.4733 19.0179L10 19.3445ZM10 6.6662C9.55797 6.6662 9.13405 6.84179 8.82149 7.15435C8.50893 7.46691 8.33333 7.89084 8.33333 8.33286C8.33333 8.77489 8.50893 9.19881 8.82149 9.51137C9.13405 9.82393 9.55797 9.99953 10 9.99953C10.442 9.99953 10.866 9.82393 11.1785 9.51137C11.4911 9.19881 11.6667 8.77489 11.6667 8.33286C11.6667 7.89084 11.4911 7.46691 11.1785 7.15435C10.866 6.84179 10.442 6.6662 10 6.6662ZM6.66667 8.33286C6.66667 7.44881 7.01786 6.60096 7.64298 5.97584C8.2681 5.35072 9.11594 4.99953 10 4.99953C10.8841 4.99953 11.7319 5.35072 12.357 5.97584C12.9821 6.60096 13.3333 7.44881 13.3333 8.33286C13.3333 9.21692 12.9821 10.0648 12.357 10.6899C11.7319 11.315 10.8841 11.6662 10 11.6662C9.11594 11.6662 8.2681 11.315 7.64298 10.6899C7.01786 10.0648 6.66667 9.21692 6.66667 8.33286Z" fill="white" fill-opacity="0.5"/>
</svg>
