<svg width="20" height="20" viewBox="0 0 20 20" fill="none" xmlns="http://www.w3.org/2000/svg">
<path d="M10 2.50002C8.4529 2.50002 6.96917 3.1146 5.87521 4.20856C4.78125 5.30253 4.16667 6.78626 4.16667 8.33335C4.16667 10.7184 5.65167 13.0192 7.28167 14.8017C8.11512 15.7097 9.02453 16.545 10 17.2984C10.1456 17.1867 10.3164 17.0506 10.5125 16.89C11.2957 16.2469 12.0328 15.5496 12.7183 14.8034C14.3483 13.0192 15.8333 10.7192 15.8333 8.33335C15.8333 6.78626 15.2188 5.30253 14.1248 4.20856C13.0308 3.1146 11.5471 2.50002 10 2.50002ZM10 19.345L9.5275 19.02L9.525 19.0184L9.52 19.0142L9.50333 19.0025L9.44083 18.9584L9.21583 18.7942C8.07572 17.9373 7.01656 16.9778 6.05167 15.9275C4.34833 14.0625 2.5 11.3634 2.5 8.33252C2.5 6.34339 3.29018 4.43574 4.6967 3.02922C6.10322 1.6227 8.01088 0.83252 10 0.83252C11.9891 0.83252 13.8968 1.6227 15.3033 3.02922C16.7098 4.43574 17.5 6.34339 17.5 8.33252C17.5 11.3634 15.6517 14.0634 13.9483 15.9259C12.9837 16.9761 11.9248 17.9356 10.785 18.7925C10.69 18.8634 10.5942 18.9332 10.4975 19.0017L10.48 19.0134L10.475 19.0175L10.4733 19.0184L10 19.345ZM10 6.66669C9.55797 6.66669 9.13405 6.84228 8.82149 7.15484C8.50893 7.4674 8.33333 7.89132 8.33333 8.33335C8.33333 8.77538 8.50893 9.1993 8.82149 9.51186C9.13405 9.82442 9.55797 10 10 10C10.442 10 10.866 9.82442 11.1785 9.51186C11.4911 9.1993 11.6667 8.77538 11.6667 8.33335C11.6667 7.89132 11.4911 7.4674 11.1785 7.15484C10.866 6.84228 10.442 6.66669 10 6.66669ZM6.66667 8.33335C6.66667 7.4493 7.01786 6.60145 7.64298 5.97633C8.2681 5.35121 9.11594 5.00002 10 5.00002C10.8841 5.00002 11.7319 5.35121 12.357 5.97633C12.9821 6.60145 13.3333 7.4493 13.3333 8.33335C13.3333 9.21741 12.9821 10.0653 12.357 10.6904C11.7319 11.3155 10.8841 11.6667 10 11.6667C9.11594 11.6667 8.2681 11.3155 7.64298 10.6904C7.01786 10.0653 6.66667 9.21741 6.66667 8.33335Z" fill="white" fill-opacity="0.5"/>
</svg>
