<svg width="47" height="46" viewBox="0 0 47 46" fill="none" xmlns="http://www.w3.org/2000/svg">
<path d="M34.5307 22.4094C34.4404 22.1765 34.305 21.9637 34.1322 21.7832L24.6441 12.2951C24.4672 12.1182 24.2571 11.9779 24.026 11.8821C23.7948 11.7863 23.547 11.7371 23.2968 11.7371C22.7915 11.7371 22.3068 11.9378 21.9495 12.2951C21.7726 12.4721 21.6322 12.6821 21.5365 12.9133C21.4407 13.1445 21.3914 13.3922 21.3914 13.6424C21.3914 14.1478 21.5922 14.6324 21.9495 14.9897L28.2116 21.2329H13.8087C13.3054 21.2329 12.8228 21.4328 12.4669 21.7887C12.111 22.1446 11.9111 22.6272 11.9111 23.1305C11.9111 23.6338 12.111 24.1165 12.4669 24.4723C12.8228 24.8282 13.3054 25.0281 13.8087 25.0281H28.2116L21.9495 31.2713C21.7716 31.4477 21.6305 31.6576 21.5341 31.8888C21.4378 32.1201 21.3882 32.3681 21.3882 32.6186C21.3882 32.8691 21.4378 33.1171 21.5341 33.3484C21.6305 33.5796 21.7716 33.7895 21.9495 33.9659C22.1259 34.1438 22.3358 34.2849 22.567 34.3813C22.7983 34.4776 23.0463 34.5272 23.2968 34.5272C23.5473 34.5272 23.7953 34.4776 24.0266 34.3813C24.2578 34.2849 24.4677 34.1438 24.6441 33.9659L34.1322 24.4778C34.305 24.2974 34.4404 24.0846 34.5307 23.8516C34.7205 23.3896 34.7205 22.8714 34.5307 22.4094Z" fill="black"/>
</svg>
