<svg width="32" height="32" viewBox="0 0 32 32" fill="none" xmlns="http://www.w3.org/2000/svg">
<path d="M23.8933 15.4929C23.8299 15.3293 23.7347 15.1797 23.6133 15.0529L16.9467 8.38626C16.8223 8.26194 16.6748 8.16333 16.5123 8.09605C16.3499 8.02877 16.1758 7.99414 16 7.99414C15.6449 7.99414 15.3044 8.13519 15.0533 8.38626C14.929 8.51058 14.8304 8.65817 14.7631 8.8206C14.6958 8.98303 14.6612 9.15712 14.6612 9.33293C14.6612 9.688 14.8023 10.0285 15.0533 10.2796L19.4533 14.6663H9.33333C8.97971 14.6663 8.64057 14.8067 8.39052 15.0568C8.14048 15.3068 8 15.646 8 15.9996C8 16.3532 8.14048 16.6924 8.39052 16.9424C8.64057 17.1925 8.97971 17.3329 9.33333 17.3329H19.4533L15.0533 21.7196C14.9284 21.8435 14.8292 21.991 14.7615 22.1535C14.6938 22.316 14.6589 22.4902 14.6589 22.6663C14.6589 22.8423 14.6938 23.0166 14.7615 23.179C14.8292 23.3415 14.9284 23.489 15.0533 23.6129C15.1773 23.7379 15.3248 23.8371 15.4872 23.9048C15.6497 23.9725 15.824 24.0073 16 24.0073C16.176 24.0073 16.3503 23.9725 16.5128 23.9048C16.6752 23.8371 16.8227 23.7379 16.9467 23.6129L23.6133 16.9463C23.7347 16.8195 23.8299 16.6699 23.8933 16.5063C24.0267 16.1816 24.0267 15.8175 23.8933 15.4929Z" fill="black"/>
</svg>
