<svg width="47" height="46" viewBox="0 0 47 46" fill="none" xmlns="http://www.w3.org/2000/svg">
<path d="M34.5307 22.4096C34.4404 22.1766 34.305 21.9638 34.1322 21.7833L24.6441 12.2953C24.4672 12.1183 24.2572 11.978 24.026 11.8822C23.7948 11.7865 23.5471 11.7372 23.2968 11.7372C22.7915 11.7372 22.3069 11.9379 21.9495 12.2953C21.7726 12.4722 21.6322 12.6822 21.5365 12.9134C21.4407 13.1446 21.3915 13.3923 21.3915 13.6426C21.3915 14.1479 21.5922 14.6325 21.9495 14.9899L28.2117 21.233H13.8087C13.3055 21.233 12.8228 21.433 12.4669 21.7888C12.1111 22.1447 11.9111 22.6274 11.9111 23.1306C11.9111 23.6339 12.1111 24.1166 12.4669 24.4725C12.8228 24.8283 13.3055 25.0283 13.8087 25.0283H28.2117L21.9495 31.2714C21.7717 31.4478 21.6305 31.6577 21.5342 31.889C21.4378 32.1202 21.3882 32.3682 21.3882 32.6187C21.3882 32.8692 21.4378 33.1173 21.5342 33.3485C21.6305 33.5798 21.7717 33.7896 21.9495 33.966C22.1259 34.1439 22.3358 34.2851 22.5671 34.3814C22.7983 34.4777 23.0463 34.5273 23.2968 34.5273C23.5473 34.5273 23.7954 34.4777 24.0266 34.3814C24.2579 34.2851 24.4677 34.1439 24.6441 33.966L34.1322 24.478C34.305 24.2975 34.4404 24.0847 34.5307 23.8517C34.7205 23.3897 34.7205 22.8715 34.5307 22.4096Z" fill="black"/>
</svg>
