<svg width="47" height="46" viewBox="0 0 47 46" fill="none" xmlns="http://www.w3.org/2000/svg">
<path d="M34.5307 22.4093C34.4404 22.1764 34.305 21.9636 34.1322 21.7831L24.6441 12.295C24.4672 12.1181 24.2571 11.9777 24.026 11.882C23.7948 11.7862 23.547 11.7369 23.2968 11.7369C22.7915 11.7369 22.3068 11.9377 21.9495 12.295C21.7726 12.4719 21.6322 12.682 21.5365 12.9132C21.4407 13.1443 21.3914 13.3921 21.3914 13.6423C21.3914 14.1477 21.5922 14.6323 21.9495 14.9896L28.2116 21.2328H13.8087C13.3054 21.2328 12.8228 21.4327 12.4669 21.7886C12.111 22.1445 11.9111 22.6271 11.9111 23.1304C11.9111 23.6337 12.111 24.1163 12.4669 24.4722C12.8228 24.8281 13.3054 25.028 13.8087 25.028H28.2116L21.9495 31.2712C21.7716 31.4476 21.6305 31.6575 21.5341 31.8887C21.4378 32.1199 21.3882 32.368 21.3882 32.6185C21.3882 32.869 21.4378 33.117 21.5341 33.3483C21.6305 33.5795 21.7716 33.7894 21.9495 33.9658C22.1259 34.1437 22.3358 34.2848 22.567 34.3812C22.7983 34.4775 23.0463 34.5271 23.2968 34.5271C23.5473 34.5271 23.7953 34.4775 24.0266 34.3812C24.2578 34.2848 24.4677 34.1437 24.6441 33.9658L34.1322 24.4777C34.305 24.2972 34.4404 24.0844 34.5307 23.8515C34.7205 23.3895 34.7205 22.8713 34.5307 22.4093Z" fill="black"/>
</svg>
