<svg width="24" height="24" viewBox="0 0 24 24" fill="none" xmlns="http://www.w3.org/2000/svg">
<path d="M22 11.0002C22.0028 10.2953 21.8193 9.60227 21.4681 8.99116C21.1169 8.38005 20.6104 7.87259 20 7.52018C20.015 7.34717 20.015 7.17318 20 7.00018C20 6.20453 19.6839 5.44147 19.1213 4.87886C18.5587 4.31625 17.7956 4.00018 17 4.00018H16.82C16.6535 3.53849 16.3762 3.12471 16.0125 2.79512C15.6488 2.46554 15.2099 2.23021 14.7341 2.10978C14.2583 1.98935 13.7602 1.9875 13.2835 2.10438C12.8068 2.22126 12.3661 2.45331 12 2.78018C11.6339 2.45331 11.1931 2.22126 10.7165 2.10438C10.2398 1.9875 9.7417 1.98935 9.2659 2.10978C8.7901 2.23021 8.35112 2.46554 7.98744 2.79512C7.62377 3.12471 7.34651 3.53849 7.17998 4.00018H6.99998C6.20433 4.00018 5.44127 4.31625 4.87866 4.87886C4.31605 5.44147 3.99998 6.20453 3.99998 7.00018C3.98493 7.17318 3.98493 7.34717 3.99998 7.52018C3.43244 7.84097 2.95192 8.29562 2.60022 8.84455C2.24853 9.39348 2.03634 10.02 1.98212 10.6697C1.9279 11.3194 2.03329 11.9725 2.28912 12.5721C2.54496 13.1717 2.94347 13.6997 3.44998 14.1102C3.12226 14.7214 2.9591 15.4074 2.97653 16.1008C2.99396 16.7941 3.19138 17.471 3.54941 18.0651C3.90744 18.6591 4.41377 19.1498 5.01871 19.4891C5.62366 19.8283 6.30642 20.0045 6.99998 20.0002H7.17998C7.34651 20.4619 7.62377 20.8756 7.98744 21.2052C8.35112 21.5348 8.7901 21.7701 9.2659 21.8906C9.7417 22.011 10.2398 22.0129 10.7165 21.896C11.1931 21.7791 11.6339 21.547 12 21.2202C12.3661 21.547 12.8068 21.7791 13.2835 21.896C13.7602 22.0129 14.2583 22.011 14.7341 21.8906C15.2099 21.7701 15.6488 21.5348 16.0125 21.2052C16.3762 20.8756 16.6535 20.4619 16.82 20.0002H17C17.6893 19.9958 18.3658 19.8134 18.9639 19.4706C19.5619 19.1278 20.0613 18.6362 20.4134 18.0436C20.7655 17.451 20.9586 16.7775 20.9737 16.0883C20.9889 15.3991 20.8257 14.7177 20.5 14.1102C20.9664 13.7367 21.3433 13.2635 21.6028 12.7254C21.8624 12.1872 21.9981 11.5977 22 11.0002ZM11 8.55018C10.7817 8.4266 10.5544 8.31963 10.32 8.23018C10.068 8.14531 9.79268 8.164 9.55451 8.28215C9.31634 8.4003 9.13485 8.60822 9.04998 8.86018C8.96512 9.11213 8.98381 9.38748 9.10196 9.62565C9.22011 9.86382 9.42803 10.0453 9.67998 10.1302C10.0649 10.2693 10.3979 10.5233 10.634 10.8577C10.87 11.1921 10.9978 11.5909 11 12.0002V13.5502C10.7817 13.4266 10.5544 13.3196 10.32 13.2302C10.068 13.1453 9.79268 13.164 9.55451 13.2822C9.31634 13.4003 9.13485 13.6082 9.04998 13.8602C8.96512 14.1121 8.98381 14.3875 9.10196 14.6257C9.22011 14.8638 9.42803 15.0453 9.67998 15.1302C10.0649 15.2693 10.3979 15.5233 10.634 15.8577C10.87 16.1921 10.9978 16.5909 11 17.0002V19.0002C11 19.2654 10.8946 19.5197 10.7071 19.7073C10.5196 19.8948 10.2652 20.0002 9.99998 20.0002C9.80652 19.9989 9.61757 19.9416 9.45605 19.8351C9.29453 19.7286 9.16737 19.5775 9.08998 19.4002C9.25779 19.302 9.41822 19.1917 9.56998 19.0702C9.6711 18.9861 9.75468 18.883 9.81593 18.7666C9.87719 18.6503 9.91493 18.523 9.92701 18.3921C9.93908 18.2612 9.92524 18.1291 9.88629 18.0036C9.84734 17.878 9.78403 17.7613 9.69998 17.6602C9.61594 17.5591 9.5128 17.4755 9.39645 17.4142C9.28011 17.353 9.15284 17.3152 9.02191 17.3032C8.89098 17.2911 8.75895 17.3049 8.63337 17.3439C8.50778 17.3828 8.3911 17.4461 8.28998 17.5302C7.92891 17.8342 7.47197 18.0006 6.99998 18.0002C6.46955 18.0002 5.96084 17.7895 5.58577 17.4144C5.2107 17.0393 4.99998 16.5306 4.99998 16.0002C5.00477 15.6238 5.11569 15.2564 5.31998 14.9402C5.54453 14.9795 5.77202 14.9996 5.99998 15.0002C6.2652 15.0002 6.51955 14.8948 6.70709 14.7073C6.89463 14.5197 6.99998 14.2654 6.99998 14.0002C6.99998 13.735 6.89463 13.4806 6.70709 13.2931C6.51955 13.1055 6.2652 13.0002 5.99998 13.0002C5.76368 13.0026 5.52922 12.9584 5.30998 12.8702C4.95033 12.7405 4.63539 12.5104 4.40247 12.2072C4.16956 11.904 4.02843 11.5404 3.99581 11.1594C3.96319 10.7785 4.04044 10.3962 4.21841 10.0578C4.39639 9.71943 4.66762 9.43915 4.99998 9.25018C5.14169 9.38138 5.29574 9.49859 5.45998 9.60018C5.69072 9.73279 5.96469 9.7683 6.22161 9.69891C6.47854 9.62952 6.69738 9.46091 6.82998 9.23018C6.96259 8.99944 6.99811 8.72547 6.92872 8.46855C6.85933 8.21162 6.69072 7.99279 6.45998 7.86018C6.31921 7.78252 6.20181 7.66857 6.11998 7.53018C6.02633 7.37009 5.98442 7.18499 5.99998 7.00018C5.99998 6.73496 6.10534 6.48061 6.29288 6.29307C6.48041 6.10553 6.73477 6.00018 6.99998 6.00018C7.06968 5.99095 7.14029 5.99095 7.20998 6.00018C7.26332 6.1607 7.32678 6.31769 7.39998 6.47018C7.46531 6.58476 7.55267 6.6853 7.65702 6.76598C7.76136 6.84666 7.88064 6.90591 8.00798 6.9403C8.13532 6.97469 8.26821 6.98355 8.39899 6.96637C8.52976 6.94918 8.65585 6.9063 8.76998 6.84018C8.99169 6.70678 9.15306 6.49265 9.22019 6.24277C9.28733 5.99289 9.25499 5.72672 9.12998 5.50018C9.04608 5.34678 9.00142 5.17501 8.99998 5.00018C8.99998 4.73496 9.10534 4.48061 9.29288 4.29307C9.48041 4.10553 9.73477 4.00018 9.99998 4.00018C10.2652 4.00018 10.5196 4.10553 10.7071 4.29307C10.8946 4.48061 11 4.73496 11 5.00018V8.55018ZM18.69 12.8702C18.4707 12.9584 18.2363 13.0026 18 13.0002C17.7348 13.0002 17.4804 13.1055 17.2929 13.2931C17.1053 13.4806 17 13.735 17 14.0002C17 14.2654 17.1053 14.5197 17.2929 14.7073C17.4804 14.8948 17.7348 15.0002 18 15.0002C18.2279 14.9996 18.4554 14.9795 18.68 14.9402C18.8843 15.2564 18.9952 15.6238 19 16.0002C19 16.5306 18.7893 17.0393 18.4142 17.4144C18.0391 17.7895 17.5304 18.0002 17 18.0002C16.528 18.0006 16.0711 17.8342 15.71 17.5302C15.5058 17.3604 15.2425 17.2788 14.9781 17.3032C14.7136 17.3275 14.4697 17.456 14.3 17.6602C14.1302 17.8644 14.0486 18.1277 14.073 18.3921C14.0973 18.6565 14.2258 18.9004 14.43 19.0702C14.5818 19.1917 14.7422 19.302 14.91 19.4002C14.8326 19.5775 14.7054 19.7286 14.5439 19.8351C14.3824 19.9416 14.1935 19.9989 14 20.0002C13.7348 20.0002 13.4804 19.8948 13.2929 19.7073C13.1053 19.5197 13 19.2654 13 19.0002V17.0002C13.0022 16.5909 13.13 16.1921 13.366 15.8577C13.6021 15.5233 13.935 15.2693 14.32 15.1302C14.5719 15.0453 14.7799 14.8638 14.898 14.6257C15.0162 14.3875 15.0349 14.1121 14.95 13.8602C14.8651 13.6082 14.6836 13.4003 14.4455 13.2822C14.2073 13.164 13.9319 13.1453 13.68 13.2302C13.4456 13.3196 13.2183 13.4266 13 13.5502V12.0002C13.0022 11.5909 13.13 11.1921 13.366 10.8577C13.6021 10.5233 13.935 10.2693 14.32 10.1302C14.4447 10.0882 14.56 10.022 14.6592 9.9354C14.7584 9.84884 14.8395 9.74358 14.898 9.62565C14.9565 9.50772 14.9912 9.37943 15.0001 9.24808C15.009 9.11674 14.992 8.98493 14.95 8.86018C14.908 8.73542 14.8418 8.62016 14.7552 8.52099C14.6686 8.42181 14.5634 8.34065 14.4455 8.28215C14.3275 8.22365 14.1992 8.18895 14.0679 8.18003C13.9366 8.17111 13.8047 8.18815 13.68 8.23018C13.4456 8.31963 13.2183 8.4266 13 8.55018V5.00018C13 4.73496 13.1053 4.48061 13.2929 4.29307C13.4804 4.10553 13.7348 4.00018 14 4.00018C14.2652 4.00018 14.5196 4.10553 14.7071 4.29307C14.8946 4.48061 15 4.73496 15 5.00018C14.9986 5.17501 14.9539 5.34678 14.87 5.50018C14.8035 5.61371 14.76 5.73927 14.7421 5.86964C14.7242 6.00001 14.7322 6.13263 14.7656 6.25991C14.799 6.38718 14.8573 6.5066 14.937 6.61133C15.0167 6.71605 15.1162 6.80401 15.23 6.87018C15.3441 6.9363 15.4702 6.97918 15.601 6.99637C15.7318 7.01355 15.8646 7.00469 15.992 6.9703C16.1193 6.93591 16.2386 6.87666 16.343 6.79598C16.4473 6.7153 16.5347 6.61476 16.6 6.50018C16.6744 6.33794 16.7379 6.1709 16.79 6.00018C16.8597 5.99095 16.9303 5.99095 17 6.00018C17.2652 6.00018 17.5196 6.10553 17.7071 6.29307C17.8946 6.48061 18 6.73496 18 7.00018C17.9985 7.19621 17.9393 7.38747 17.83 7.55018C17.7482 7.67994 17.6346 7.78665 17.5 7.86018C17.2692 7.99279 17.1006 8.21162 17.0312 8.46855C16.9619 8.72547 16.9974 8.99944 17.13 9.23018C17.2626 9.46091 17.4814 9.62952 17.7384 9.69891C17.9953 9.7683 18.2692 9.73279 18.5 9.60018C18.6793 9.50278 18.8471 9.38537 19 9.25018C19.3335 9.43581 19.6069 9.713 19.7879 10.049C19.969 10.385 20.0501 10.7658 20.0217 11.1465C19.9933 11.5271 19.8566 11.8916 19.6277 12.1971C19.3988 12.5025 19.0873 12.7361 18.73 12.8702H18.69Z" fill="#0A2363"/>
</svg>
