<svg width="24" height="24" viewBox="0 0 24 24" fill="none" xmlns="http://www.w3.org/2000/svg">
<path d="M22 11.0001C22.0028 10.2952 21.8193 9.60215 21.4681 8.99104C21.1169 8.37993 20.6104 7.87247 20 7.52005C20.015 7.34705 20.015 7.17306 20 7.00005C20 6.20441 19.6839 5.44134 19.1213 4.87873C18.5587 4.31613 17.7956 4.00005 17 4.00005H16.82C16.6535 3.53837 16.3762 3.12459 16.0125 2.795C15.6488 2.46542 15.2099 2.23009 14.7341 2.10966C14.2583 1.98923 13.7602 1.98737 13.2835 2.10426C12.8068 2.22114 12.3661 2.45319 12 2.78005C11.6339 2.45319 11.1931 2.22114 10.7165 2.10426C10.2398 1.98737 9.7417 1.98923 9.2659 2.10966C8.7901 2.23009 8.35112 2.46542 7.98744 2.795C7.62377 3.12459 7.34651 3.53837 7.17998 4.00005H6.99998C6.20433 4.00005 5.44127 4.31613 4.87866 4.87873C4.31605 5.44134 3.99998 6.20441 3.99998 7.00005C3.98493 7.17306 3.98493 7.34705 3.99998 7.52005C3.43244 7.84085 2.95192 8.2955 2.60022 8.84443C2.24853 9.39336 2.03634 10.0199 1.98212 10.6696C1.9279 11.3193 2.03329 11.9723 2.28912 12.572C2.54496 13.1716 2.94347 13.6996 3.44998 14.1101C3.12226 14.7213 2.9591 15.4073 2.97653 16.1007C2.99396 16.794 3.19138 17.4709 3.54941 18.065C3.90744 18.659 4.41377 19.1497 5.01871 19.489C5.62366 19.8282 6.30642 20.0043 6.99998 20.0001H7.17998C7.34651 20.4617 7.62377 20.8755 7.98744 21.2051C8.35112 21.5347 8.7901 21.77 9.2659 21.8905C9.7417 22.0109 10.2398 22.0127 10.7165 21.8959C11.1931 21.779 11.6339 21.5469 12 21.2201C12.3661 21.5469 12.8068 21.779 13.2835 21.8959C13.7602 22.0127 14.2583 22.0109 14.7341 21.8905C15.2099 21.77 15.6488 21.5347 16.0125 21.2051C16.3762 20.8755 16.6535 20.4617 16.82 20.0001H17C17.6893 19.9957 18.3658 19.8133 18.9639 19.4705C19.5619 19.1277 20.0613 18.6361 20.4134 18.0435C20.7655 17.4509 20.9586 16.7773 20.9737 16.0882C20.9889 15.399 20.8257 14.7176 20.5 14.1101C20.9664 13.7366 21.3433 13.2634 21.6028 12.7252C21.8624 12.1871 21.9981 11.5976 22 11.0001ZM11 8.55006C10.7817 8.42648 10.5544 8.31951 10.32 8.23005C10.068 8.14518 9.79268 8.16388 9.55451 8.28203C9.31634 8.40018 9.13485 8.6081 9.04998 8.86005C8.96512 9.11201 8.98381 9.38736 9.10196 9.62553C9.22011 9.8637 9.42803 10.0452 9.67998 10.1301C10.0649 10.2692 10.3979 10.5231 10.634 10.8575C10.87 11.192 10.9978 11.5907 11 12.0001V13.5501C10.7817 13.4265 10.5544 13.3195 10.32 13.2301C10.068 13.1452 9.79268 13.1639 9.55451 13.282C9.31634 13.4002 9.13485 13.6081 9.04998 13.8601C8.96512 14.112 8.98381 14.3874 9.10196 14.6255C9.22011 14.8637 9.42803 15.0452 9.67998 15.1301C10.0649 15.2692 10.3979 15.5231 10.634 15.8575C10.87 16.192 10.9978 16.5907 11 17.0001V19.0001C11 19.2653 10.8946 19.5196 10.7071 19.7072C10.5196 19.8947 10.2652 20.0001 9.99998 20.0001C9.80652 19.9988 9.61757 19.9414 9.45605 19.8349C9.29453 19.7284 9.16737 19.5774 9.08998 19.4001C9.25779 19.3019 9.41822 19.1916 9.56998 19.0701C9.6711 18.986 9.75468 18.8829 9.81593 18.7665C9.87719 18.6502 9.91493 18.5229 9.92701 18.392C9.93908 18.261 9.92524 18.129 9.88629 18.0034C9.84734 17.8779 9.78403 17.7612 9.69998 17.6601C9.61594 17.5589 9.5128 17.4754 9.39645 17.4141C9.28011 17.3528 9.15284 17.3151 9.02191 17.303C8.89098 17.291 8.75895 17.3048 8.63337 17.3437C8.50778 17.3827 8.3911 17.446 8.28998 17.5301C7.92891 17.834 7.47197 18.0005 6.99998 18.0001C6.46955 18.0001 5.96084 17.7893 5.58577 17.4143C5.2107 17.0392 4.99998 16.5305 4.99998 16.0001C5.00477 15.6236 5.11569 15.2562 5.31998 14.9401C5.54453 14.9794 5.77202 14.9995 5.99998 15.0001C6.2652 15.0001 6.51955 14.8947 6.70709 14.7072C6.89463 14.5196 6.99998 14.2653 6.99998 14.0001C6.99998 13.7348 6.89463 13.4805 6.70709 13.2929C6.51955 13.1054 6.2652 13.0001 5.99998 13.0001C5.76368 13.0024 5.52922 12.9583 5.30998 12.8701C4.95033 12.7403 4.63539 12.5103 4.40247 12.2071C4.16956 11.9039 4.02843 11.5403 3.99581 11.1593C3.96319 10.7784 4.04044 10.3961 4.21841 10.0577C4.39639 9.71931 4.66762 9.43903 4.99998 9.25005C5.14169 9.38126 5.29574 9.49847 5.45998 9.60006C5.69072 9.73266 5.96469 9.76818 6.22161 9.69879C6.47854 9.6294 6.69738 9.46079 6.82998 9.23005C6.96259 8.99932 6.99811 8.72535 6.92872 8.46843C6.85933 8.2115 6.69072 7.99266 6.45998 7.86005C6.31921 7.7824 6.20181 7.66845 6.11998 7.53006C6.02633 7.36997 5.98442 7.18487 5.99998 7.00005C5.99998 6.73484 6.10534 6.48048 6.29288 6.29295C6.48041 6.10541 6.73477 6.00005 6.99998 6.00005C7.06968 5.99083 7.14029 5.99083 7.20998 6.00005C7.26332 6.16058 7.32678 6.31756 7.39998 6.47005C7.46531 6.58464 7.55267 6.68517 7.65702 6.76586C7.76136 6.84654 7.88064 6.90579 8.00798 6.94018C8.13532 6.97457 8.26821 6.98343 8.39899 6.96624C8.52976 6.94906 8.65585 6.90617 8.76998 6.84005C8.99169 6.70666 9.15306 6.49253 9.22019 6.24265C9.28733 5.99277 9.25499 5.72659 9.12998 5.50005C9.04608 5.34666 9.00142 5.17489 8.99998 5.00005C8.99998 4.73484 9.10534 4.48048 9.29288 4.29295C9.48041 4.10541 9.73477 4.00005 9.99998 4.00005C10.2652 4.00005 10.5196 4.10541 10.7071 4.29295C10.8946 4.48048 11 4.73484 11 5.00005V8.55006ZM18.69 12.8701C18.4707 12.9583 18.2363 13.0024 18 13.0001C17.7348 13.0001 17.4804 13.1054 17.2929 13.2929C17.1053 13.4805 17 13.7348 17 14.0001C17 14.2653 17.1053 14.5196 17.2929 14.7072C17.4804 14.8947 17.7348 15.0001 18 15.0001C18.2279 14.9995 18.4554 14.9794 18.68 14.9401C18.8843 15.2562 18.9952 15.6236 19 16.0001C19 16.5305 18.7893 17.0392 18.4142 17.4143C18.0391 17.7893 17.5304 18.0001 17 18.0001C16.528 18.0005 16.0711 17.834 15.71 17.5301C15.5058 17.3603 15.2425 17.2787 14.9781 17.303C14.7136 17.3274 14.4697 17.4558 14.3 17.6601C14.1302 17.8643 14.0486 18.1276 14.073 18.392C14.0973 18.6564 14.2258 18.9003 14.43 19.0701C14.5818 19.1916 14.7422 19.3019 14.91 19.4001C14.8326 19.5774 14.7054 19.7284 14.5439 19.8349C14.3824 19.9414 14.1935 19.9988 14 20.0001C13.7348 20.0001 13.4804 19.8947 13.2929 19.7072C13.1053 19.5196 13 19.2653 13 19.0001V17.0001C13.0022 16.5907 13.13 16.192 13.366 15.8575C13.6021 15.5231 13.935 15.2692 14.32 15.1301C14.5719 15.0452 14.7799 14.8637 14.898 14.6255C15.0162 14.3874 15.0349 14.112 14.95 13.8601C14.8651 13.6081 14.6836 13.4002 14.4455 13.282C14.2073 13.1639 13.9319 13.1452 13.68 13.2301C13.4456 13.3195 13.2183 13.4265 13 13.5501V12.0001C13.0022 11.5907 13.13 11.192 13.366 10.8575C13.6021 10.5231 13.935 10.2692 14.32 10.1301C14.4447 10.088 14.56 10.0218 14.6592 9.93528C14.7584 9.84872 14.8395 9.74346 14.898 9.62553C14.9565 9.5076 14.9912 9.3793 15.0001 9.24796C15.009 9.11662 14.992 8.98481 14.95 8.86005C14.908 8.7353 14.8418 8.62004 14.7552 8.52086C14.6686 8.42169 14.5634 8.34053 14.4455 8.28203C14.3275 8.22353 14.1992 8.18883 14.0679 8.17991C13.9366 8.17099 13.8047 8.18803 13.68 8.23005C13.4456 8.31951 13.2183 8.42648 13 8.55006V5.00005C13 4.73484 13.1053 4.48048 13.2929 4.29295C13.4804 4.10541 13.7348 4.00005 14 4.00005C14.2652 4.00005 14.5196 4.10541 14.7071 4.29295C14.8946 4.48048 15 4.73484 15 5.00005C14.9986 5.17489 14.9539 5.34666 14.87 5.50005C14.8035 5.61359 14.76 5.73915 14.7421 5.86952C14.7242 5.99989 14.7322 6.13251 14.7656 6.25978C14.799 6.38706 14.8573 6.50648 14.937 6.6112C15.0167 6.71593 15.1162 6.80389 15.23 6.87005C15.3441 6.93617 15.4702 6.97906 15.601 6.99624C15.7318 7.01343 15.8646 7.00457 15.992 6.97018C16.1193 6.93579 16.2386 6.87654 16.343 6.79586C16.4473 6.71517 16.5347 6.61464 16.6 6.50005C16.6744 6.33781 16.7379 6.17077 16.79 6.00005C16.8597 5.99083 16.9303 5.99083 17 6.00005C17.2652 6.00005 17.5196 6.10541 17.7071 6.29295C17.8946 6.48048 18 6.73484 18 7.00005C17.9985 7.19609 17.9393 7.38735 17.83 7.55006C17.7482 7.67982 17.6346 7.78653 17.5 7.86005C17.2692 7.99266 17.1006 8.2115 17.0312 8.46843C16.9619 8.72535 16.9974 8.99932 17.13 9.23005C17.2626 9.46079 17.4814 9.6294 17.7384 9.69879C17.9953 9.76818 18.2692 9.73266 18.5 9.60006C18.6793 9.50266 18.8471 9.38524 19 9.25005C19.3335 9.43569 19.6069 9.71288 19.7879 10.0489C19.969 10.3849 20.0501 10.7657 20.0217 11.1463C19.9933 11.527 19.8566 11.8915 19.6277 12.1969C19.3988 12.5024 19.0873 12.7359 18.73 12.8701H18.69Z" fill="#0A2363"/>
</svg>
