<svg width="47" height="46" viewBox="0 0 47 46" fill="none" xmlns="http://www.w3.org/2000/svg">
<path d="M34.5307 22.0503C34.4404 21.8174 34.305 21.6046 34.1322 21.4241L24.6441 11.936C24.4672 11.7591 24.2572 11.6187 24.026 11.523C23.7948 11.4272 23.5471 11.3779 23.2968 11.3779C22.7915 11.3779 22.3069 11.5787 21.9495 11.936C21.7726 12.1129 21.6322 12.323 21.5365 12.5542C21.4407 12.7853 21.3915 13.0331 21.3915 13.2833C21.3915 13.7886 21.5922 14.2733 21.9495 14.6306L28.2117 20.8738H13.8087C13.3055 20.8738 12.8228 21.0737 12.4669 21.4296C12.1111 21.7854 11.9111 22.2681 11.9111 22.7714C11.9111 23.2747 12.1111 23.7573 12.4669 24.1132C12.8228 24.4691 13.3055 24.669 13.8087 24.669H28.2117L21.9495 30.9122C21.7717 31.0886 21.6305 31.2985 21.5342 31.5297C21.4378 31.7609 21.3882 32.009 21.3882 32.2595C21.3882 32.51 21.4378 32.758 21.5342 32.9893C21.6305 33.2205 21.7717 33.4304 21.9495 33.6068C22.1259 33.7846 22.3358 33.9258 22.5671 34.0222C22.7983 34.1185 23.0463 34.1681 23.2968 34.1681C23.5473 34.1681 23.7954 34.1185 24.0266 34.0222C24.2579 33.9258 24.4677 33.7846 24.6441 33.6068L34.1322 24.1187C34.305 23.9382 34.4404 23.7254 34.5307 23.4925C34.7205 23.0305 34.7205 22.5123 34.5307 22.0503Z" fill="#0A2363"/>
</svg>
