<svg width="24" height="24" viewBox="0 0 24 24" fill="none" xmlns="http://www.w3.org/2000/svg">
<path d="M22 10.9999C22.0028 10.2951 21.8193 9.60203 21.4681 8.99092C21.1169 8.37981 20.6104 7.87235 20 7.51993C20.015 7.34693 20.015 7.17294 20 6.99993C20 6.20428 19.6839 5.44122 19.1213 4.87861C18.5587 4.316 17.7956 3.99993 17 3.99993H16.82C16.6535 3.53825 16.3762 3.12447 16.0125 2.79488C15.6488 2.46529 15.2099 2.22997 14.7341 2.10954C14.2583 1.98911 13.7602 1.98725 13.2835 2.10413C12.8068 2.22102 12.3661 2.45306 12 2.77993C11.6339 2.45306 11.1931 2.22102 10.7165 2.10413C10.2398 1.98725 9.7417 1.98911 9.2659 2.10954C8.7901 2.22997 8.35112 2.46529 7.98744 2.79488C7.62377 3.12447 7.34651 3.53825 7.17998 3.99993H6.99998C6.20433 3.99993 5.44127 4.316 4.87866 4.87861C4.31605 5.44122 3.99998 6.20428 3.99998 6.99993C3.98493 7.17294 3.98493 7.34693 3.99998 7.51993C3.43244 7.84073 2.95192 8.29538 2.60022 8.84431C2.24853 9.39323 2.03634 10.0198 1.98212 10.6695C1.9279 11.3191 2.03329 11.9722 2.28912 12.5719C2.54496 13.1715 2.94347 13.6995 3.44998 14.1099C3.12226 14.7212 2.9591 15.4072 2.97653 16.1005C2.99396 16.7939 3.19138 17.4708 3.54941 18.0648C3.90744 18.6589 4.41377 19.1496 5.01871 19.4888C5.62366 19.8281 6.30642 20.0042 6.99998 19.9999H7.17998C7.34651 20.4616 7.62377 20.8754 7.98744 21.205C8.35112 21.5346 8.7901 21.7699 9.2659 21.8903C9.7417 22.0108 10.2398 22.0126 10.7165 21.8957C11.1931 21.7789 11.6339 21.5468 12 21.2199C12.3661 21.5468 12.8068 21.7789 13.2835 21.8957C13.7602 22.0126 14.2583 22.0108 14.7341 21.8903C15.2099 21.7699 15.6488 21.5346 16.0125 21.205C16.3762 20.8754 16.6535 20.4616 16.82 19.9999H17C17.6893 19.9956 18.3658 19.8131 18.9639 19.4703C19.5619 19.1275 20.0613 18.636 20.4134 18.0434C20.7655 17.4508 20.9586 16.7772 20.9737 16.088C20.9889 15.3989 20.8257 14.7175 20.5 14.1099C20.9664 13.7365 21.3433 13.2633 21.6028 12.7251C21.8624 12.1869 21.9981 11.5974 22 10.9999ZM11 8.54993C10.7817 8.42636 10.5544 8.31939 10.32 8.22993C10.068 8.14506 9.79268 8.16376 9.55451 8.28191C9.31634 8.40006 9.13485 8.60798 9.04998 8.85993C8.96512 9.11189 8.98381 9.38724 9.10196 9.62541C9.22011 9.86358 9.42803 10.0451 9.67998 10.1299C10.0649 10.2691 10.3979 10.523 10.634 10.8574C10.87 11.1918 10.9978 11.5906 11 11.9999V13.5499C10.7817 13.4264 10.5544 13.3194 10.32 13.2299C10.068 13.1451 9.79268 13.1638 9.55451 13.2819C9.31634 13.4001 9.13485 13.608 9.04998 13.8599C8.96512 14.1119 8.98381 14.3872 9.10196 14.6254C9.22011 14.8636 9.42803 15.0451 9.67998 15.1299C10.0649 15.2691 10.3979 15.523 10.634 15.8574C10.87 16.1918 10.9978 16.5906 11 16.9999V18.9999C11 19.2652 10.8946 19.5195 10.7071 19.707C10.5196 19.8946 10.2652 19.9999 9.99998 19.9999C9.80652 19.9987 9.61757 19.9413 9.45605 19.8348C9.29453 19.7283 9.16737 19.5773 9.08998 19.3999C9.25779 19.3017 9.41822 19.1915 9.56998 19.0699C9.6711 18.9859 9.75468 18.8827 9.81593 18.7664C9.87719 18.6501 9.91493 18.5228 9.92701 18.3919C9.93908 18.2609 9.92524 18.1289 9.88629 18.0033C9.84734 17.8777 9.78403 17.7611 9.69998 17.6599C9.61594 17.5588 9.5128 17.4752 9.39645 17.414C9.28011 17.3527 9.15284 17.315 9.02191 17.3029C8.89098 17.2908 8.75895 17.3047 8.63337 17.3436C8.50778 17.3826 8.3911 17.4459 8.28998 17.5299C7.92891 17.8339 7.47197 18.0004 6.99998 17.9999C6.46955 17.9999 5.96084 17.7892 5.58577 17.4141C5.2107 17.0391 4.99998 16.5304 4.99998 15.9999C5.00477 15.6235 5.11569 15.2561 5.31998 14.9399C5.54453 14.9793 5.77202 14.9993 5.99998 14.9999C6.2652 14.9999 6.51955 14.8946 6.70709 14.707C6.89463 14.5195 6.99998 14.2651 6.99998 13.9999C6.99998 13.7347 6.89463 13.4804 6.70709 13.2928C6.51955 13.1053 6.2652 12.9999 5.99998 12.9999C5.76368 13.0023 5.52922 12.9581 5.30998 12.8699C4.95033 12.7402 4.63539 12.5101 4.40247 12.2069C4.16956 11.9037 4.02843 11.5401 3.99581 11.1592C3.96319 10.7783 4.04044 10.396 4.21841 10.0576C4.39639 9.71919 4.66762 9.43891 4.99998 9.24993C5.14169 9.38113 5.29574 9.49834 5.45998 9.59993C5.69072 9.73254 5.96469 9.76806 6.22161 9.69867C6.47854 9.62928 6.69738 9.46067 6.82998 9.22993C6.96259 8.99919 6.99811 8.72523 6.92872 8.4683C6.85933 8.21138 6.69072 7.99254 6.45998 7.85993C6.31921 7.78228 6.20181 7.66833 6.11998 7.52993C6.02633 7.36985 5.98442 7.18474 5.99998 6.99993C5.99998 6.73472 6.10534 6.48036 6.29288 6.29283C6.48041 6.10529 6.73477 5.99993 6.99998 5.99993C7.06968 5.99071 7.14029 5.99071 7.20998 5.99993C7.26332 6.16046 7.32678 6.31744 7.39998 6.46993C7.46531 6.58452 7.55267 6.68505 7.65702 6.76574C7.76136 6.84642 7.88064 6.90566 8.00798 6.94005C8.13532 6.97445 8.26821 6.9833 8.39899 6.96612C8.52976 6.94894 8.65585 6.90605 8.76998 6.83993C8.99169 6.70654 9.15306 6.49241 9.22019 6.24253C9.28733 5.99265 9.25499 5.72647 9.12998 5.49993C9.04608 5.34654 9.00142 5.17477 8.99998 4.99993C8.99998 4.73472 9.10534 4.48036 9.29288 4.29283C9.48041 4.10529 9.73477 3.99993 9.99998 3.99993C10.2652 3.99993 10.5196 4.10529 10.7071 4.29283C10.8946 4.48036 11 4.73472 11 4.99993V8.54993ZM18.69 12.8699C18.4707 12.9581 18.2363 13.0023 18 12.9999C17.7348 12.9999 17.4804 13.1053 17.2929 13.2928C17.1053 13.4804 17 13.7347 17 13.9999C17 14.2651 17.1053 14.5195 17.2929 14.707C17.4804 14.8946 17.7348 14.9999 18 14.9999C18.2279 14.9993 18.4554 14.9793 18.68 14.9399C18.8843 15.2561 18.9952 15.6235 19 15.9999C19 16.5304 18.7893 17.0391 18.4142 17.4141C18.0391 17.7892 17.5304 17.9999 17 17.9999C16.528 18.0004 16.0711 17.8339 15.71 17.5299C15.5058 17.3602 15.2425 17.2785 14.9781 17.3029C14.7136 17.3273 14.4697 17.4557 14.3 17.6599C14.1302 17.8641 14.0486 18.1274 14.073 18.3919C14.0973 18.6563 14.2258 18.9002 14.43 19.0699C14.5818 19.1915 14.7422 19.3017 14.91 19.3999C14.8326 19.5773 14.7054 19.7283 14.5439 19.8348C14.3824 19.9413 14.1935 19.9987 14 19.9999C13.7348 19.9999 13.4804 19.8946 13.2929 19.707C13.1053 19.5195 13 19.2652 13 18.9999V16.9999C13.0022 16.5906 13.13 16.1918 13.366 15.8574C13.6021 15.523 13.935 15.2691 14.32 15.1299C14.5719 15.0451 14.7799 14.8636 14.898 14.6254C15.0162 14.3872 15.0349 14.1119 14.95 13.8599C14.8651 13.608 14.6836 13.4001 14.4455 13.2819C14.2073 13.1638 13.9319 13.1451 13.68 13.2299C13.4456 13.3194 13.2183 13.4264 13 13.5499V11.9999C13.0022 11.5906 13.13 11.1918 13.366 10.8574C13.6021 10.523 13.935 10.2691 14.32 10.1299C14.4447 10.0879 14.56 10.0217 14.6592 9.93516C14.7584 9.84859 14.8395 9.74334 14.898 9.62541C14.9565 9.50748 14.9912 9.37918 15.0001 9.24784C15.009 9.1165 14.992 8.98469 14.95 8.85993C14.908 8.73518 14.8418 8.61992 14.7552 8.52074C14.6686 8.42156 14.5634 8.34041 14.4455 8.28191C14.3275 8.22341 14.1992 8.18871 14.0679 8.17979C13.9366 8.17087 13.8047 8.18791 13.68 8.22993C13.4456 8.31939 13.2183 8.42636 13 8.54993V4.99993C13 4.73472 13.1053 4.48036 13.2929 4.29283C13.4804 4.10529 13.7348 3.99993 14 3.99993C14.2652 3.99993 14.5196 4.10529 14.7071 4.29283C14.8946 4.48036 15 4.73472 15 4.99993C14.9986 5.17477 14.9539 5.34654 14.87 5.49993C14.8035 5.61347 14.76 5.73902 14.7421 5.86939C14.7242 5.99976 14.7322 6.13239 14.7656 6.25966C14.799 6.38694 14.8573 6.50636 14.937 6.61108C15.0167 6.71581 15.1162 6.80377 15.23 6.86993C15.3441 6.93605 15.4702 6.97894 15.601 6.99612C15.7318 7.0133 15.8646 7.00445 15.992 6.97005C16.1193 6.93566 16.2386 6.87642 16.343 6.79574C16.4473 6.71505 16.5347 6.61452 16.6 6.49993C16.6744 6.33769 16.7379 6.17065 16.79 5.99993C16.8597 5.99071 16.9303 5.99071 17 5.99993C17.2652 5.99993 17.5196 6.10529 17.7071 6.29283C17.8946 6.48036 18 6.73472 18 6.99993C17.9985 7.19597 17.9393 7.38723 17.83 7.54993C17.7482 7.6797 17.6346 7.78641 17.5 7.85993C17.2692 7.99254 17.1006 8.21138 17.0312 8.4683C16.9619 8.72523 16.9974 8.99919 17.13 9.22993C17.2626 9.46067 17.4814 9.62928 17.7384 9.69867C17.9953 9.76806 18.2692 9.73254 18.5 9.59993C18.6793 9.50254 18.8471 9.38512 19 9.24993C19.3335 9.43557 19.6069 9.71276 19.7879 10.0488C19.969 10.3848 20.0501 10.7656 20.0217 11.1462C19.9933 11.5268 19.8566 11.8914 19.6277 12.1968C19.3988 12.5023 19.0873 12.7358 18.73 12.8699H18.69Z" fill="#0A2363"/>
</svg>
