<svg width="24" height="24" viewBox="0 0 24 24" fill="none" xmlns="http://www.w3.org/2000/svg">
<path d="M22.0005 11.0002C22.0033 10.2953 21.8198 9.60227 21.4686 8.99116C21.1173 8.38005 20.6109 7.87259 20.0005 7.52018C20.0155 7.34717 20.0155 7.17318 20.0005 7.00018C20.0005 6.20453 19.6844 5.44147 19.1218 4.87886C18.5592 4.31625 17.7961 4.00018 17.0005 4.00018H16.8205C16.6539 3.53849 16.3767 3.12471 16.013 2.79512C15.6493 2.46554 15.2104 2.23021 14.7346 2.10978C14.2588 1.98935 13.7607 1.9875 13.284 2.10438C12.8073 2.22126 12.3666 2.45331 12.0005 2.78018C11.6344 2.45331 11.1936 2.22126 10.7169 2.10438C10.2403 1.9875 9.74219 1.98935 9.26639 2.10978C8.79059 2.23021 8.35161 2.46554 7.98793 2.79512C7.62426 3.12471 7.347 3.53849 7.18047 4.00018H7.00047C6.20482 4.00018 5.44176 4.31625 4.87915 4.87886C4.31654 5.44147 4.00047 6.20453 4.00047 7.00018C3.98542 7.17318 3.98542 7.34717 4.00047 7.52018C3.43293 7.84097 2.9524 8.29562 2.60071 8.84455C2.24902 9.39348 2.03683 10.02 1.98261 10.6697C1.92839 11.3194 2.03378 11.9725 2.28961 12.5721C2.54544 13.1717 2.94396 13.6997 3.45047 14.1102C3.12274 14.7214 2.95959 15.4074 2.97702 16.1008C2.99445 16.7941 3.19187 17.471 3.5499 18.0651C3.90792 18.6591 4.41426 19.1498 5.0192 19.4891C5.62415 19.8283 6.30691 20.0045 7.00047 20.0002H7.18047C7.347 20.4619 7.62426 20.8756 7.98793 21.2052C8.35161 21.5348 8.79059 21.7701 9.26639 21.8906C9.74219 22.011 10.2403 22.0129 10.7169 21.896C11.1936 21.7791 11.6344 21.547 12.0005 21.2202C12.3666 21.547 12.8073 21.7791 13.284 21.896C13.7607 22.0129 14.2588 22.011 14.7346 21.8906C15.2104 21.7701 15.6493 21.5348 16.013 21.2052C16.3767 20.8756 16.6539 20.4619 16.8205 20.0002H17.0005C17.6898 19.9958 18.3663 19.8134 18.9644 19.4706C19.5624 19.1278 20.0617 18.6362 20.4139 18.0436C20.766 17.451 20.9591 16.7775 20.9742 16.0883C20.9894 15.3991 20.8262 14.7177 20.5005 14.1102C20.9669 13.7367 21.3438 13.2635 21.6033 12.7254C21.8629 12.1872 21.9986 11.5977 22.0005 11.0002ZM11.0005 8.55018C10.7822 8.4266 10.5548 8.31963 10.3205 8.23018C10.0685 8.14531 9.79317 8.164 9.555 8.28215C9.31682 8.4003 9.13534 8.60822 9.05047 8.86018C8.9656 9.11213 8.9843 9.38748 9.10245 9.62565C9.22059 9.86382 9.42852 10.0453 9.68047 10.1302C10.0654 10.2693 10.3984 10.5233 10.6344 10.8577C10.8705 11.1921 10.9983 11.5909 11.0005 12.0002V13.5502C10.7822 13.4266 10.5548 13.3196 10.3205 13.2302C10.0685 13.1453 9.79317 13.164 9.555 13.2822C9.31682 13.4003 9.13534 13.6082 9.05047 13.8602C8.9656 14.1121 8.9843 14.3875 9.10245 14.6257C9.22059 14.8638 9.42852 15.0453 9.68047 15.1302C10.0654 15.2693 10.3984 15.5233 10.6344 15.8577C10.8705 16.1921 10.9983 16.5909 11.0005 17.0002V19.0002C11.0005 19.2654 10.8951 19.5197 10.7076 19.7073C10.52 19.8948 10.2657 20.0002 10.0005 20.0002C9.80701 19.9989 9.61806 19.9416 9.45654 19.8351C9.29502 19.7286 9.16786 19.5775 9.09047 19.4002C9.25828 19.302 9.4187 19.1917 9.57047 19.0702C9.67159 18.9861 9.75516 18.883 9.81642 18.7666C9.87768 18.6503 9.91542 18.523 9.92749 18.3921C9.93957 18.2612 9.92573 18.1291 9.88678 18.0036C9.84783 17.878 9.78452 17.7613 9.70047 17.6602C9.61643 17.5591 9.51329 17.4755 9.39694 17.4142C9.2806 17.353 9.15333 17.3152 9.0224 17.3032C8.89147 17.2911 8.75944 17.3049 8.63386 17.3439C8.50827 17.3828 8.39159 17.4461 8.29047 17.5302C7.9294 17.8342 7.47246 18.0006 7.00047 18.0002C6.47004 18.0002 5.96133 17.7895 5.58626 17.4144C5.21119 17.0393 5.00047 16.5306 5.00047 16.0002C5.00526 15.6238 5.11618 15.2564 5.32047 14.9402C5.54502 14.9795 5.77251 14.9996 6.00047 15.0002C6.26569 15.0002 6.52004 14.8948 6.70758 14.7073C6.89512 14.5197 7.00047 14.2654 7.00047 14.0002C7.00047 13.735 6.89512 13.4806 6.70758 13.2931C6.52004 13.1055 6.26569 13.0002 6.00047 13.0002C5.76417 13.0026 5.52971 12.9584 5.31047 12.8702C4.95082 12.7405 4.63588 12.5104 4.40296 12.2072C4.17005 11.904 4.02892 11.5404 3.9963 11.1594C3.96368 10.7785 4.04093 10.3962 4.2189 10.0578C4.39687 9.71943 4.66811 9.43915 5.00047 9.25018C5.14218 9.38138 5.29623 9.49859 5.46047 9.60018C5.69121 9.73279 5.96518 9.7683 6.2221 9.69891C6.47903 9.62952 6.69786 9.46091 6.83047 9.23018C6.96308 8.99944 6.9986 8.72547 6.92921 8.46855C6.85982 8.21162 6.69121 7.99279 6.46047 7.86018C6.3197 7.78252 6.2023 7.66857 6.12047 7.53018C6.02682 7.37009 5.98491 7.18499 6.00047 7.00018C6.00047 6.73496 6.10583 6.48061 6.29337 6.29307C6.4809 6.10553 6.73526 6.00018 7.00047 6.00018C7.07017 5.99095 7.14078 5.99095 7.21047 6.00018C7.2638 6.1607 7.32727 6.31769 7.40047 6.47018C7.4658 6.58476 7.55316 6.6853 7.6575 6.76598C7.76185 6.84666 7.88113 6.90591 8.00847 6.9403C8.13581 6.97469 8.2687 6.98355 8.39947 6.96637C8.53025 6.94918 8.65634 6.9063 8.77047 6.84018C8.99218 6.70678 9.15355 6.49265 9.22068 6.24277C9.28781 5.99289 9.25548 5.72672 9.13047 5.50018C9.04657 5.34678 9.00191 5.17501 9.00047 5.00018C9.00047 4.73496 9.10583 4.48061 9.29337 4.29307C9.4809 4.10553 9.73526 4.00018 10.0005 4.00018C10.2657 4.00018 10.52 4.10553 10.7076 4.29307C10.8951 4.48061 11.0005 4.73496 11.0005 5.00018V8.55018ZM18.6905 12.8702C18.4712 12.9584 18.2368 13.0026 18.0005 13.0002C17.7353 13.0002 17.4809 13.1055 17.2934 13.2931C17.1058 13.4806 17.0005 13.735 17.0005 14.0002C17.0005 14.2654 17.1058 14.5197 17.2934 14.7073C17.4809 14.8948 17.7353 15.0002 18.0005 15.0002C18.2284 14.9996 18.4559 14.9795 18.6805 14.9402C18.8848 15.2564 18.9957 15.6238 19.0005 16.0002C19.0005 16.5306 18.7898 17.0393 18.4147 17.4144C18.0396 17.7895 17.5309 18.0002 17.0005 18.0002C16.5285 18.0006 16.0715 17.8342 15.7105 17.5302C15.5063 17.3604 15.243 17.2788 14.9785 17.3032C14.7141 17.3275 14.4702 17.456 14.3005 17.6602C14.1307 17.8644 14.0491 18.1277 14.0735 18.3921C14.0978 18.6565 14.2263 18.9004 14.4305 19.0702C14.5822 19.1917 14.7427 19.302 14.9105 19.4002C14.8331 19.5775 14.7059 19.7286 14.5444 19.8351C14.3829 19.9416 14.1939 19.9989 14.0005 20.0002C13.7353 20.0002 13.4809 19.8948 13.2934 19.7073C13.1058 19.5197 13.0005 19.2654 13.0005 19.0002V17.0002C13.0027 16.5909 13.1305 16.1921 13.3665 15.8577C13.6026 15.5233 13.9355 15.2693 14.3205 15.1302C14.5724 15.0453 14.7804 14.8638 14.8985 14.6257C15.0166 14.3875 15.0353 14.1121 14.9505 13.8602C14.8656 13.6082 14.6841 13.4003 14.446 13.2822C14.2078 13.164 13.9324 13.1453 13.6805 13.2302C13.4461 13.3196 13.2188 13.4266 13.0005 13.5502V12.0002C13.0027 11.5909 13.1305 11.1921 13.3665 10.8577C13.6026 10.5233 13.9355 10.2693 14.3205 10.1302C14.4452 10.0882 14.5605 10.022 14.6597 9.9354C14.7588 9.84884 14.84 9.74358 14.8985 9.62565C14.957 9.50772 14.9917 9.37943 15.0006 9.24808C15.0095 9.11674 14.9925 8.98493 14.9505 8.86018C14.9085 8.73542 14.8423 8.62016 14.7557 8.52099C14.6691 8.42181 14.5639 8.34065 14.446 8.28215C14.328 8.22365 14.1997 8.18895 14.0684 8.18003C13.937 8.17111 13.8052 8.18815 13.6805 8.23018C13.4461 8.31963 13.2188 8.4266 13.0005 8.55018V5.00018C13.0005 4.73496 13.1058 4.48061 13.2934 4.29307C13.4809 4.10553 13.7353 4.00018 14.0005 4.00018C14.2657 4.00018 14.52 4.10553 14.7076 4.29307C14.8951 4.48061 15.0005 4.73496 15.0005 5.00018C14.999 5.17501 14.9544 5.34678 14.8705 5.50018C14.8039 5.61371 14.7605 5.73927 14.7426 5.86964C14.7246 6.00001 14.7326 6.13263 14.7661 6.25991C14.7995 6.38718 14.8578 6.5066 14.9375 6.61133C15.0171 6.71605 15.1167 6.80401 15.2305 6.87018C15.3446 6.9363 15.4707 6.97918 15.6015 6.99637C15.7323 7.01355 15.8651 7.00469 15.9925 6.9703C16.1198 6.93591 16.2391 6.87666 16.3434 6.79598C16.4478 6.7153 16.5351 6.61476 16.6005 6.50018C16.6749 6.33794 16.7384 6.1709 16.7905 6.00018C16.8602 5.99095 16.9308 5.99095 17.0005 6.00018C17.2657 6.00018 17.52 6.10553 17.7076 6.29307C17.8951 6.48061 18.0005 6.73496 18.0005 7.00018C17.9989 7.19621 17.9398 7.38747 17.8305 7.55018C17.7487 7.67994 17.6351 7.78665 17.5005 7.86018C17.2697 7.99279 17.1011 8.21162 17.0317 8.46855C16.9623 8.72547 16.9979 8.99944 17.1305 9.23018C17.2631 9.46091 17.4819 9.62952 17.7388 9.69891C17.9958 9.7683 18.2697 9.73279 18.5005 9.60018C18.6798 9.50278 18.8476 9.38537 19.0005 9.25018C19.334 9.43581 19.6074 9.713 19.7884 10.049C19.9695 10.385 20.0506 10.7658 20.0222 11.1465C19.9938 11.5271 19.8571 11.8916 19.6282 12.1971C19.3993 12.5025 19.0878 12.7361 18.7305 12.8702H18.6905Z" fill="#0A2363"/>
</svg>
