<svg width="12" height="12" viewBox="0 0 12 12" fill="none" xmlns="http://www.w3.org/2000/svg">
<path d="M11.92 5.62019C11.8724 5.49743 11.801 5.38529 11.71 5.29019L6.71 0.290185C6.61676 0.196947 6.50607 0.122986 6.38425 0.072526C6.26243 0.0220657 6.13186 -0.00390625 6 -0.00390625C5.7337 -0.00390625 5.4783 0.101882 5.29 0.290185C5.19676 0.383424 5.1228 0.494114 5.07234 0.615936C5.02188 0.737758 4.99591 0.868326 4.99591 1.00019C4.99591 1.26649 5.1017 1.52188 5.29 1.71019L8.59 5.00019H1C0.734784 5.00019 0.48043 5.10554 0.292893 5.29308C0.105357 5.48062 0 5.73497 0 6.00019C0 6.2654 0.105357 6.51976 0.292893 6.70729C0.48043 6.89483 0.734784 7.00019 1 7.00019H8.59L5.29 10.2902C5.19627 10.3831 5.12188 10.4937 5.07111 10.6156C5.02034 10.7375 4.9942 10.8682 4.9942 11.0002C4.9942 11.1322 5.02034 11.2629 5.07111 11.3848C5.12188 11.5066 5.19627 11.6172 5.29 11.7102C5.38296 11.8039 5.49356 11.8783 5.61542 11.9291C5.73728 11.9798 5.86799 12.006 6 12.006C6.13201 12.006 6.26272 11.9798 6.38458 11.9291C6.50644 11.8783 6.61704 11.8039 6.71 11.7102L11.71 6.71019C11.801 6.61508 11.8724 6.50294 11.92 6.38019C12.02 6.13672 12.02 5.86365 11.92 5.62019Z" fill="white"/>
</svg>
