<svg width="24" height="24" viewBox="0 0 24 24" fill="none" xmlns="http://www.w3.org/2000/svg">
<path fill-rule="evenodd" clip-rule="evenodd" d="M15.1184 22.963C13.7069 23.1105 11.7724 23.25 9.49991 23.25C7.09291 23.25 5.06491 23.0935 3.63691 22.9365C2.38691 22.7995 1.59341 22.6615 1.40391 22.627C1.01491 22.556 0.714409 22.2235 0.753409 21.812C0.77084 21.6261 0.857015 21.4533 0.995077 21.3275C1.13314 21.2018 1.31315 21.1321 1.49991 21.132C1.73241 21.132 2.35641 21.0185 2.88341 20.599C3.36341 20.216 3.82991 19.529 3.75141 18.2215C3.49613 13.9723 3.33559 9.71788 3.26991 5.4615C3.23141 2.8415 5.35491 0.75 7.95491 0.75H19.4999C21.3549 0.75 23.2499 2.1265 23.2499 4.549C23.2499 5.6825 22.7364 6.785 21.4859 6.9605C20.8964 7.0435 20.0809 7.1305 19.0109 7.1875C19.0209 6.5845 19.0784 5.9175 19.2494 5.3205C19.4974 4.4555 19.9294 3.8965 20.6644 3.732C20.8585 3.68844 21.0274 3.56954 21.1339 3.40146C21.2404 3.23338 21.2757 3.02989 21.2322 2.83575C21.1886 2.64161 21.0697 2.47273 20.9016 2.36626C20.7335 2.25978 20.53 2.22444 20.3359 2.268C18.8419 2.603 18.1309 3.779 17.8074 4.907C17.6389 5.4955 17.5604 6.1145 17.5284 6.682C17.6154 8.95 17.7474 10.96 17.8749 12.907L17.8894 13.127C18.0254 15.2 18.1544 17.2115 18.2144 19.378C18.2649 21.193 16.9579 22.7705 15.1184 22.963ZM7.99991 6.5C7.99991 6.30109 8.07893 6.11032 8.21958 5.96967C8.36023 5.82902 8.551 5.75 8.74991 5.75H13.7499C13.9488 5.75 14.1396 5.82902 14.2802 5.96967C14.4209 6.11032 14.4999 6.30109 14.4999 6.5C14.4999 6.69891 14.4209 6.88968 14.2802 7.03033C14.1396 7.17098 13.9488 7.25 13.7499 7.25H8.74991C8.551 7.25 8.36023 7.17098 8.21958 7.03033C8.07893 6.88968 7.99991 6.69891 7.99991 6.5ZM6.74991 9.25C6.551 9.25 6.36023 9.32902 6.21958 9.46967C6.07893 9.61032 5.99991 9.80109 5.99991 10C5.99991 10.1989 6.07893 10.3897 6.21958 10.5303C6.36023 10.671 6.551 10.75 6.74991 10.75H13.7499C13.9488 10.75 14.1396 10.671 14.2802 10.5303C14.4209 10.3897 14.4999 10.1989 14.4999 10C14.4999 9.80109 14.4209 9.61032 14.2802 9.46967C14.1396 9.32902 13.9488 9.25 13.7499 9.25H6.74991ZM6.24991 13.5C6.24991 13.3011 6.32893 13.1103 6.46958 12.9697C6.61023 12.829 6.801 12.75 6.99991 12.75H13.9999C14.1988 12.75 14.3896 12.829 14.5302 12.9697C14.6709 13.1103 14.7499 13.3011 14.7499 13.5C14.7499 13.6989 14.6709 13.8897 14.5302 14.0303C14.3896 14.171 14.1988 14.25 13.9999 14.25H6.99991C6.801 14.25 6.61023 14.171 6.46958 14.0303C6.32893 13.8897 6.24991 13.6989 6.24991 13.5ZM7.24991 16.25C7.051 16.25 6.86023 16.329 6.71958 16.4697C6.57893 16.6103 6.49991 16.8011 6.49991 17C6.49991 17.1989 6.57893 17.3897 6.71958 17.5303C6.86023 17.671 7.051 17.75 7.24991 17.75H14.2499C14.4488 17.75 14.6396 17.671 14.7802 17.5303C14.9209 17.3897 14.9999 17.1989 14.9999 17C14.9999 16.8011 14.9209 16.6103 14.7802 16.4697C14.6396 16.329 14.4488 16.25 14.2499 16.25H7.24991Z" fill="#0A2363"/>
</svg>
