<svg width="16" height="16" viewBox="0 0 16 16" fill="none" xmlns="http://www.w3.org/2000/svg">
<path d="M15.8933 7.49342C15.8299 7.32975 15.7347 7.18022 15.6133 7.05342L8.94667 0.386751C8.82235 0.262433 8.67476 0.163819 8.51233 0.0965386C8.34991 0.0292581 8.17581 -0.00537109 8 -0.00537109C7.64493 -0.00537109 7.30441 0.13568 7.05333 0.386751C6.92902 0.511069 6.8304 0.658656 6.76312 0.821086C6.69584 0.983515 6.66121 1.15761 6.66121 1.33342C6.66121 1.68849 6.80226 2.02901 7.05333 2.28008L11.4533 6.66675H1.33333C0.979711 6.66675 0.640573 6.80723 0.390525 7.05728C0.140476 7.30733 0 7.64646 0 8.00009C0 8.35371 0.140476 8.69285 0.390525 8.94289C0.640573 9.19294 0.979711 9.33342 1.33333 9.33342H11.4533L7.05333 13.7201C6.92836 13.844 6.82917 13.9915 6.76148 14.154C6.69379 14.3165 6.65894 14.4907 6.65894 14.6668C6.65894 14.8428 6.69379 15.017 6.76148 15.1795C6.82917 15.342 6.92836 15.4895 7.05333 15.6134C7.17728 15.7384 7.32475 15.8376 7.48723 15.9053C7.64971 15.973 7.82399 16.0078 8 16.0078C8.17602 16.0078 8.35029 15.973 8.51277 15.9053C8.67525 15.8376 8.82272 15.7384 8.94667 15.6134L15.6133 8.94675C15.7347 8.81995 15.8299 8.67042 15.8933 8.50675C16.0267 8.18214 16.0267 7.81803 15.8933 7.49342Z" fill="black"/>
</svg>
