<svg width="21" height="20" viewBox="0 0 21 20" fill="none" xmlns="http://www.w3.org/2000/svg">
<path d="M21 9.00005C21.0028 8.29521 20.8193 7.60215 20.4681 6.99104C20.1169 6.37993 19.6104 5.87247 19 5.52005C19.015 5.34705 19.015 5.17306 19 5.00005C19 4.20441 18.6839 3.44134 18.1213 2.87873C17.5587 2.31613 16.7956 2.00005 16 2.00005H15.82C15.6535 1.53837 15.3762 1.12459 15.0125 0.795002C14.6488 0.465415 14.2099 0.230089 13.7341 0.109659C13.2583 -0.0107711 12.7602 -0.0126266 12.2835 0.104255C11.8068 0.221137 11.3661 0.453187 11 0.780055C10.6339 0.453187 10.1931 0.221137 9.71646 0.104255C9.23978 -0.0126266 8.7417 -0.0107711 8.2659 0.109659C7.7901 0.230089 7.35112 0.465415 6.98744 0.795002C6.62377 1.12459 6.34651 1.53837 6.17998 2.00005H5.99998C5.20433 2.00005 4.44127 2.31613 3.87866 2.87873C3.31605 3.44134 2.99998 4.20441 2.99998 5.00005C2.98493 5.17306 2.98493 5.34705 2.99998 5.52005C2.43244 5.84085 1.95192 6.2955 1.60022 6.84443C1.24853 7.39336 1.03634 8.01993 0.982121 8.6696C0.9279 9.31926 1.03329 9.97234 1.28912 10.572C1.54496 11.1716 1.94347 11.6996 2.44998 12.1101C2.12226 12.7213 1.9591 13.4073 1.97653 14.1007C1.99396 14.794 2.19138 15.4709 2.54941 16.065C2.90744 16.659 3.41377 17.1497 4.01871 17.489C4.62366 17.8282 5.30642 18.0043 5.99998 18.0001H6.17998C6.34651 18.4617 6.62377 18.8755 6.98744 19.2051C7.35112 19.5347 7.7901 19.77 8.2659 19.8905C8.7417 20.0109 9.23978 20.0127 9.71646 19.8959C10.1931 19.779 10.6339 19.5469 11 19.2201C11.3661 19.5469 11.8068 19.779 12.2835 19.8959C12.7602 20.0127 13.2583 20.0109 13.7341 19.8905C14.2099 19.77 14.6488 19.5347 15.0125 19.2051C15.3762 18.8755 15.6535 18.4617 15.82 18.0001H16C16.6893 17.9957 17.3658 17.8133 17.9639 17.4705C18.5619 17.1277 19.0613 16.6361 19.4134 16.0435C19.7655 15.4509 19.9586 14.7773 19.9737 14.0882C19.9889 13.399 19.8257 12.7176 19.5 12.1101C19.9664 11.7366 20.3433 11.2634 20.6028 10.7252C20.8624 10.1871 20.9981 9.59756 21 9.00005ZM9.99998 6.55006C9.78167 6.42648 9.55436 6.31951 9.31998 6.23005C9.06803 6.14518 8.79268 6.16388 8.55451 6.28203C8.31634 6.40018 8.13485 6.6081 8.04998 6.86005C7.96512 7.11201 7.98381 7.38736 8.10196 7.62553C8.22011 7.8637 8.42803 8.04519 8.67998 8.13005C9.06493 8.26922 9.3979 8.52314 9.63395 8.85755C9.87 9.19195 9.99776 9.59074 9.99998 10.0001V11.5501C9.78167 11.4265 9.55436 11.3195 9.31998 11.2301C9.06803 11.1452 8.79268 11.1639 8.55451 11.282C8.31634 11.4002 8.13485 11.6081 8.04998 11.8601C7.96512 12.112 7.98381 12.3874 8.10196 12.6255C8.22011 12.8637 8.42803 13.0452 8.67998 13.1301C9.06493 13.2692 9.3979 13.5231 9.63395 13.8575C9.87 14.192 9.99776 14.5907 9.99998 15.0001V17.0001C9.99998 17.2653 9.89463 17.5196 9.70709 17.7072C9.51956 17.8947 9.2652 18.0001 8.99998 18.0001C8.80652 17.9988 8.61757 17.9414 8.45605 17.8349C8.29453 17.7284 8.16737 17.5774 8.08998 17.4001C8.25779 17.3019 8.41822 17.1916 8.56998 17.0701C8.6711 16.986 8.75468 16.8829 8.81593 16.7665C8.87719 16.6502 8.91493 16.5229 8.92701 16.392C8.93908 16.261 8.92524 16.129 8.88629 16.0034C8.84734 15.8779 8.78403 15.7612 8.69998 15.6601C8.61594 15.5589 8.5128 15.4754 8.39645 15.4141C8.28011 15.3528 8.15284 15.3151 8.02191 15.303C7.89098 15.291 7.75895 15.3048 7.63337 15.3437C7.50778 15.3827 7.3911 15.446 7.28998 15.5301C6.92891 15.834 6.47197 16.0005 5.99998 16.0001C5.46955 16.0001 4.96084 15.7893 4.58577 15.4143C4.2107 15.0392 3.99998 14.5305 3.99998 14.0001C4.00477 13.6236 4.11569 13.2562 4.31998 12.9401C4.54453 12.9794 4.77202 12.9995 4.99998 13.0001C5.2652 13.0001 5.51955 12.8947 5.70709 12.7072C5.89463 12.5196 5.99998 12.2653 5.99998 12.0001C5.99998 11.7348 5.89463 11.4805 5.70709 11.2929C5.51955 11.1054 5.2652 11.0001 4.99998 11.0001C4.76368 11.0024 4.52922 10.9583 4.30998 10.8701C3.95033 10.7403 3.63539 10.5103 3.40247 10.2071C3.16956 9.90386 3.02843 9.54026 2.99581 9.15932C2.96319 8.77838 3.04044 8.39608 3.21841 8.05769C3.39639 7.71931 3.66762 7.43903 3.99998 7.25005C4.14169 7.38126 4.29574 7.49847 4.45998 7.60006C4.69072 7.73266 4.96469 7.76818 5.22161 7.69879C5.47854 7.6294 5.69738 7.46079 5.82998 7.23005C5.96259 6.99932 5.99811 6.72535 5.92872 6.46843C5.85933 6.2115 5.69072 5.99266 5.45998 5.86005C5.31921 5.7824 5.20181 5.66845 5.11998 5.53006C5.02633 5.36997 4.98442 5.18487 4.99998 5.00005C4.99998 4.73484 5.10534 4.48048 5.29288 4.29295C5.48041 4.10541 5.73477 4.00005 5.99998 4.00005C6.06968 3.99083 6.14029 3.99083 6.20998 4.00005C6.26332 4.16058 6.32678 4.31756 6.39998 4.47005C6.46531 4.58464 6.55267 4.68517 6.65702 4.76586C6.76136 4.84654 6.88064 4.90579 7.00798 4.94018C7.13532 4.97457 7.26821 4.98343 7.39899 4.96624C7.52976 4.94906 7.65585 4.90617 7.76998 4.84005C7.99169 4.70666 8.15306 4.49253 8.22019 4.24265C8.28733 3.99277 8.25499 3.72659 8.12998 3.50005C8.04608 3.34666 8.00142 3.17489 7.99998 3.00005C7.99998 2.73484 8.10534 2.48048 8.29288 2.29295C8.48041 2.10541 8.73477 2.00005 8.99998 2.00005C9.2652 2.00005 9.51956 2.10541 9.70709 2.29295C9.89463 2.48048 9.99998 2.73484 9.99998 3.00005V6.55006ZM17.69 10.8701C17.4707 10.9583 17.2363 11.0024 17 11.0001C16.7348 11.0001 16.4804 11.1054 16.2929 11.2929C16.1053 11.4805 16 11.7348 16 12.0001C16 12.2653 16.1053 12.5196 16.2929 12.7072C16.4804 12.8947 16.7348 13.0001 17 13.0001C17.2279 12.9995 17.4554 12.9794 17.68 12.9401C17.8843 13.2562 17.9952 13.6236 18 14.0001C18 14.5305 17.7893 15.0392 17.4142 15.4143C17.0391 15.7893 16.5304 16.0001 16 16.0001C15.528 16.0005 15.0711 15.834 14.71 15.5301C14.5058 15.3603 14.2425 15.2787 13.9781 15.303C13.7136 15.3274 13.4697 15.4558 13.3 15.6601C13.1302 15.8643 13.0486 16.1276 13.073 16.392C13.0973 16.6564 13.2258 16.9003 13.43 17.0701C13.5818 17.1916 13.7422 17.3019 13.91 17.4001C13.8326 17.5774 13.7054 17.7284 13.5439 17.8349C13.3824 17.9414 13.1935 17.9988 13 18.0001C12.7348 18.0001 12.4804 17.8947 12.2929 17.7072C12.1053 17.5196 12 17.2653 12 17.0001V15.0001C12.0022 14.5907 12.13 14.192 12.366 13.8575C12.6021 13.5231 12.935 13.2692 13.32 13.1301C13.5719 13.0452 13.7799 12.8637 13.898 12.6255C14.0162 12.3874 14.0349 12.112 13.95 11.8601C13.8651 11.6081 13.6836 11.4002 13.4455 11.282C13.2073 11.1639 12.9319 11.1452 12.68 11.2301C12.4456 11.3195 12.2183 11.4265 12 11.5501V10.0001C12.0022 9.59074 12.13 9.19195 12.366 8.85755C12.6021 8.52314 12.935 8.26922 13.32 8.13005C13.4447 8.08803 13.56 8.02185 13.6592 7.93528C13.7584 7.84872 13.8395 7.74346 13.898 7.62553C13.9565 7.5076 13.9912 7.3793 14.0001 7.24796C14.009 7.11662 13.992 6.98481 13.95 6.86005C13.908 6.7353 13.8418 6.62004 13.7552 6.52086C13.6686 6.42169 13.5634 6.34053 13.4455 6.28203C13.3275 6.22353 13.1992 6.18883 13.0679 6.17991C12.9366 6.17099 12.8047 6.18803 12.68 6.23005C12.4456 6.31951 12.2183 6.42648 12 6.55006V3.00005C12 2.73484 12.1053 2.48048 12.2929 2.29295C12.4804 2.10541 12.7348 2.00005 13 2.00005C13.2652 2.00005 13.5196 2.10541 13.7071 2.29295C13.8946 2.48048 14 2.73484 14 3.00005C13.9986 3.17489 13.9539 3.34666 13.87 3.50005C13.8035 3.61359 13.76 3.73915 13.7421 3.86952C13.7242 3.99989 13.7322 4.13251 13.7656 4.25978C13.799 4.38706 13.8573 4.50648 13.937 4.6112C14.0167 4.71593 14.1162 4.80389 14.23 4.87005C14.3441 4.93617 14.4702 4.97906 14.601 4.99624C14.7318 5.01343 14.8646 5.00457 14.992 4.97018C15.1193 4.93579 15.2386 4.87654 15.343 4.79586C15.4473 4.71517 15.5347 4.61464 15.6 4.50005C15.6744 4.33781 15.7379 4.17077 15.79 4.00005C15.8597 3.99083 15.9303 3.99083 16 4.00005C16.2652 4.00005 16.5196 4.10541 16.7071 4.29295C16.8946 4.48048 17 4.73484 17 5.00005C16.9985 5.19609 16.9393 5.38735 16.83 5.55006C16.7482 5.67982 16.6346 5.78653 16.5 5.86005C16.2692 5.99266 16.1006 6.2115 16.0312 6.46843C15.9619 6.72535 15.9974 6.99932 16.13 7.23005C16.2626 7.46079 16.4814 7.6294 16.7384 7.69879C16.9953 7.76818 17.2692 7.73266 17.5 7.60006C17.6793 7.50266 17.8471 7.38524 18 7.25005C18.3335 7.43569 18.6069 7.71288 18.7879 8.04889C18.969 8.3849 19.0501 8.7657 19.0217 9.14633C18.9933 9.52696 18.8566 9.89151 18.6277 10.1969C18.3988 10.5024 18.0873 10.7359 17.73 10.8701H17.69Z" fill="#0A2363"/>
</svg>
