<svg width="24" height="24" viewBox="0 0 24 24" fill="none" xmlns="http://www.w3.org/2000/svg">
<path d="M23.5307 11.0503C23.4404 10.8174 23.305 10.6046 23.1322 10.4241L13.6441 0.936003C13.4672 0.759072 13.2572 0.618723 13.026 0.522969C12.7948 0.427214 12.5471 0.37793 12.2968 0.37793C11.7915 0.37793 11.3069 0.578675 10.9495 0.936003C10.7726 1.11293 10.6322 1.32298 10.5365 1.55415C10.4407 1.78532 10.3915 2.03309 10.3915 2.28331C10.3915 2.78865 10.5922 3.27329 10.9495 3.63062L17.2117 9.87378H2.80875C2.30547 9.87378 1.8228 10.0737 1.46693 10.4296C1.11106 10.7854 0.911133 11.2681 0.911133 11.7714C0.911133 12.2747 1.11106 12.7573 1.46693 13.1132C1.8228 13.4691 2.30547 13.669 2.80875 13.669H17.2117L10.9495 19.9122C10.7717 20.0886 10.6305 20.2985 10.5342 20.5297C10.4378 20.7609 10.3882 21.009 10.3882 21.2595C10.3882 21.51 10.4378 21.758 10.5342 21.9893C10.6305 22.2205 10.7717 22.4304 10.9495 22.6068C11.1259 22.7846 11.3358 22.9258 11.5671 23.0222C11.7983 23.1185 12.0463 23.1681 12.2968 23.1681C12.5473 23.1681 12.7954 23.1185 13.0266 23.0222C13.2579 22.9258 13.4677 22.7846 13.6441 22.6068L23.1322 13.1187C23.305 12.9382 23.4404 12.7254 23.5307 12.4925C23.7205 12.0305 23.7205 11.5123 23.5307 11.0503Z" fill="#0A2363"/>
</svg>
