<svg width="20" height="17" viewBox="0 0 20 17" fill="none" xmlns="http://www.w3.org/2000/svg">
<path d="M3.00601 0.83395L2.59401 0.481949C2.56032 0.452389 2.52764 0.421705 2.49601 0.389949C0.884193 2.21422 -0.00372015 4.56563 1.1716e-05 6.99995C1.1716e-05 12.4599 4.37701 16.8999 9.81401 16.9979C9.46101 15.9429 9.23001 14.2339 10.112 12.5729C10.922 11.0469 12.552 10.4459 13.59 10.1899C14.2662 10.0268 14.9577 9.93461 15.653 9.91495H15.706C17.087 9.89895 17.623 9.49195 17.87 9.21295C18.176 8.86895 18.296 8.46095 18.463 7.89195L18.485 7.81795C18.5799 7.49515 18.7807 7.21364 19.0549 7.01867C19.3291 6.82369 19.6609 6.72659 19.997 6.74295C19.9388 4.34371 19.0162 2.04618 17.399 0.272949C17.367 0.449949 17.329 0.61595 17.292 0.76195C17.122 1.42295 16.838 2.13695 16.488 2.66695C16.147 3.18695 15.539 3.64995 15.136 3.93995C14.831 4.15895 14.519 4.33995 14.263 4.48895L14.171 4.54195C13.939 4.67495 13.755 4.78195 13.579 4.89695C13.223 5.13195 13.009 5.34095 12.865 5.62395C12.953 5.94595 13.015 6.31695 13.017 6.70395C13.019 7.62595 12.547 8.35395 11.984 8.80795C11.4167 9.26164 10.7104 9.50602 9.98401 9.49995C7.03401 9.46795 5.30401 7.06095 5.08101 4.58195C5.01601 3.86095 4.69201 3.08395 4.23901 2.35995C3.89218 1.80262 3.47806 1.2901 3.00601 0.83395Z" fill="#0A2363"/>
</svg>
