<svg width="20" height="20" viewBox="0 0 20 20" fill="none" xmlns="http://www.w3.org/2000/svg">
<path d="M9 19V0.352C8.53293 0.123091 8.02014 0.00275714 7.5 0C6.79417 0.000718199 6.10504 0.214828 5.52308 0.614226C4.94111 1.01362 4.4935 1.57965 4.239 2.238C3.4983 2.52465 2.87712 3.05471 2.47751 3.74108C2.07789 4.42746 1.92361 5.22934 2.04 6.015C1.71319 6.33715 1.45292 6.72042 1.274 7.143C1.232 7.243 1.21 7.352 1.174 7.456C1.13181 7.56844 1.09642 7.68332 1.068 7.8C0.970808 8.28524 0.977624 8.78558 1.088 9.268C0.751855 9.62675 0.484724 10.0444 0.3 10.5L0.285 10.536C0.186878 10.7877 0.114509 11.0487 0.069 11.315C0.0263563 11.5409 0.00327076 11.7701 0 12C0.00333333 12.2407 0.0273334 12.4793 0.072 12.716C0.120044 13.001 0.198838 13.28 0.307 13.548L0.328 13.589C0.441159 13.8453 0.580926 14.0889 0.745 14.316C0.850333 14.4627 0.964333 14.601 1.087 14.731C1.15967 14.8063 1.23467 14.8783 1.312 14.947C1.412 15.0383 1.517 15.125 1.627 15.207C1.737 15.288 1.827 15.347 1.935 15.407L1.994 15.447V15.5C1.9951 16.3466 2.3025 17.1642 2.85944 17.8019C3.41637 18.4395 4.18523 18.8541 5.024 18.969C5.55465 19.5118 6.25054 19.8629 7.0024 19.9674C7.75425 20.0718 8.51951 19.9236 9.178 19.546C9.06492 19.3861 9.00286 19.1958 9 19ZM19.934 11.32C19.8888 11.0537 19.8168 10.7927 19.719 10.541L19.702 10.503C19.517 10.0462 19.2492 9.62748 18.912 9.268C19.0245 8.78574 19.0303 8.28473 18.929 7.8C18.9021 7.68716 18.8687 7.57597 18.829 7.467C18.795 7.359 18.772 7.247 18.729 7.143C18.5501 6.72042 18.2898 6.33715 17.963 6.015C18.0792 5.22898 17.9245 4.42681 17.5243 3.74039C17.1241 3.05396 16.5023 2.52413 15.761 2.238C15.5065 1.57965 15.0589 1.01362 14.4769 0.614226C13.895 0.214828 13.2058 0.000718199 12.5 0C11.9799 0.00275714 11.4671 0.123091 11 0.352V19C10.9954 19.1964 10.9312 19.3868 10.816 19.546C11.4745 19.9236 12.2397 20.0718 12.9916 19.9674C13.7435 19.8629 14.4393 19.5118 14.97 18.969C15.8088 18.8541 16.5776 18.4395 17.1346 17.8019C17.6915 17.1642 17.9989 16.3466 18 15.5V15.451L18.059 15.411C18.165 15.347 18.2677 15.2803 18.367 15.211C18.516 15.107 18.581 15.042 18.682 14.951C18.7593 14.8817 18.8343 14.8097 18.907 14.735C19.078 14.5537 19.2316 14.3569 19.366 14.147C19.4813 13.971 19.5813 13.7863 19.666 13.593L19.687 13.552C19.7743 13.3387 19.8427 13.119 19.892 12.893C19.9047 12.8357 19.9163 12.778 19.927 12.72C19.973 12.4827 19.9973 12.2427 20 12C19.9974 11.7719 19.9754 11.5444 19.934 11.32Z" fill="#0A2363"/>
</svg>
