<svg width="13" height="11" viewBox="0 0 13 11" fill="none" xmlns="http://www.w3.org/2000/svg">
<path d="M3.57482 7.44701C3.38782 5.36301 1.78082 3.42101 0.999824 2.71101L0.569824 2.34101C2.36942 0.825786 4.64728 -0.00352463 6.99982 1.12603e-05C9.21382 1.12603e-05 11.2598 0.720011 12.9158 1.93601C13.1498 2.64701 12.7038 4.13201 12.2358 4.84201C12.0658 5.09901 11.6818 5.41901 11.2598 5.72201C10.3098 6.40501 9.10982 6.74201 8.49982 8.00001C8.34736 8.31673 8.31779 8.67874 8.41682 9.01601C8.47682 9.23601 8.51682 9.47501 8.51682 9.70801C8.51882 10.463 7.75482 11.008 6.99982 11C5.03582 10.979 3.74982 9.39601 3.57482 7.44701Z" fill="#0A2363"/>
</svg>
