<svg width="13" height="11" viewBox="0 0 13 11" fill="none" xmlns="http://www.w3.org/2000/svg">
<path d="M3.57507 7.44701C3.38807 5.36301 1.78107 3.42101 1.00007 2.71101L0.570068 2.34101C2.36967 0.825786 4.64753 -0.00352463 7.00007 1.12603e-05C9.21407 1.12603e-05 11.2601 0.720011 12.9161 1.93601C13.1501 2.64701 12.7041 4.13201 12.2361 4.84201C12.0661 5.09901 11.6821 5.41901 11.2601 5.72201C10.3101 6.40501 9.11007 6.74201 8.50007 8.00001C8.3476 8.31673 8.31803 8.67874 8.41707 9.01601C8.47707 9.23601 8.51707 9.47501 8.51707 9.70801C8.51907 10.463 7.75507 11.008 7.00007 11C5.03607 10.979 3.75007 9.39601 3.57507 7.44701Z" fill="#0A2363"/>
</svg>
