<svg width="20" height="18" viewBox="0 0 20 18" fill="none" xmlns="http://www.w3.org/2000/svg">
<path d="M4.024 4V6H15.98V4H4.024ZM12.98 10.479V13.479H15.98V10.479H12.98ZM0 2.75C0 2.02065 0.289731 1.32118 0.805456 0.805456C1.32118 0.289731 2.02065 0 2.75 0H17.25C17.9793 0 18.6788 0.289731 19.1945 0.805456C19.7103 1.32118 20 2.02065 20 2.75V15.25C20 15.9793 19.7103 16.6788 19.1945 17.1945C18.6788 17.7103 17.9793 18 17.25 18H2.75C2.02065 18 1.32118 17.7103 0.805456 17.1945C0.289731 16.6788 0 15.9793 0 15.25V2.75ZM2.524 3.25V6.75C2.524 7.164 2.86 7.5 3.274 7.5H16.73C16.9289 7.5 17.1197 7.42098 17.2603 7.28033C17.401 7.13968 17.48 6.94891 17.48 6.75V3.25C17.48 3.05109 17.401 2.86032 17.2603 2.71967C17.1197 2.57902 16.9289 2.5 16.73 2.5H3.274C3.07509 2.5 2.88432 2.57902 2.74367 2.71967C2.60302 2.86032 2.524 3.05109 2.524 3.25ZM11.48 9.729V14.229C11.48 14.643 11.815 14.979 12.23 14.979H16.73C16.9289 14.979 17.1197 14.9 17.2603 14.7593C17.401 14.6187 17.48 14.4279 17.48 14.229V9.729C17.48 9.53009 17.401 9.33932 17.2603 9.19867C17.1197 9.05802 16.9289 8.979 16.73 8.979H12.23C12.0311 8.979 11.8403 9.05802 11.6997 9.19867C11.559 9.33932 11.48 9.53009 11.48 9.729ZM3.274 9.5C3.07509 9.5 2.88432 9.57902 2.74367 9.71967C2.60302 9.86032 2.524 10.0511 2.524 10.25C2.524 10.4489 2.60302 10.6397 2.74367 10.7803C2.88432 10.921 3.07509 11 3.274 11H9.25C9.44891 11 9.63968 10.921 9.78033 10.7803C9.92098 10.6397 10 10.4489 10 10.25C10 10.0511 9.92098 9.86032 9.78033 9.71967C9.63968 9.57902 9.44891 9.5 9.25 9.5H3.274ZM2.524 13.75C2.524 14.164 2.86 14.5 3.274 14.5H9.25C9.44891 14.5 9.63968 14.421 9.78033 14.2803C9.92098 14.1397 10 13.9489 10 13.75C10 13.5511 9.92098 13.3603 9.78033 13.2197C9.63968 13.079 9.44891 13 9.25 13H3.274C3.07509 13 2.88432 13.079 2.74367 13.2197C2.60302 13.3603 2.524 13.5511 2.524 13.75Z" fill="#0A2363"/>
</svg>
