<svg width="30" height="34" viewBox="0 0 30 34" fill="none" xmlns="http://www.w3.org/2000/svg">
<path d="M25 23.8C23.7333 23.8 22.6 24.3 21.7333 25.0834L9.85 18.1667C9.93333 17.7834 10 17.4 10 17C10 16.6 9.93333 16.2167 9.85 15.8334L21.6 8.98337C22.5 9.81671 23.6833 10.3334 25 10.3334C27.7667 10.3334 30 8.10004 30 5.33337C30 2.56671 27.7667 0.333374 25 0.333374C22.2333 0.333374 20 2.56671 20 5.33337C20 5.73337 20.0667 6.11671 20.15 6.50004L8.4 13.35C7.5 12.5167 6.31667 12 5 12C2.23333 12 0 14.2334 0 17C0 19.7667 2.23333 22 5 22C6.31667 22 7.5 21.4834 8.4 20.65L20.2667 27.5834C20.1833 27.9334 20.1333 28.3 20.1333 28.6667C20.1333 31.35 22.3167 33.5334 25 33.5334C27.6833 33.5334 29.8667 31.35 29.8667 28.6667C29.8667 25.9834 27.6833 23.8 25 23.8Z" fill="white"/>
</svg>
