<svg width="24" height="24" viewBox="0 0 24 24" fill="none" xmlns="http://www.w3.org/2000/svg">
<path d="M23.5307 11.4093C23.4404 11.1764 23.305 10.9636 23.1322 10.7831L13.6441 1.29501C13.4672 1.11808 13.2571 0.977732 13.026 0.881978C12.7948 0.786223 12.547 0.736938 12.2968 0.736938C11.7915 0.736938 11.3068 0.937684 10.9495 1.29501C10.7726 1.47194 10.6322 1.68199 10.5365 1.91316C10.4407 2.14433 10.3914 2.3921 10.3914 2.64232C10.3914 3.14766 10.5922 3.6323 10.9495 3.98963L17.2116 10.2328H2.80872C2.30544 10.2328 1.82277 10.4327 1.4669 10.7886C1.11103 11.1445 0.911102 11.6271 0.911102 12.1304C0.911102 12.6337 1.11103 13.1163 1.4669 13.4722C1.82277 13.8281 2.30544 14.028 2.80872 14.028H17.2116L10.9495 20.2712C10.7716 20.4476 10.6305 20.6575 10.5341 20.8887C10.4378 21.1199 10.3882 21.368 10.3882 21.6185C10.3882 21.869 10.4378 22.117 10.5341 22.3483C10.6305 22.5795 10.7716 22.7894 10.9495 22.9658C11.1259 23.1437 11.3358 23.2848 11.567 23.3812C11.7983 23.4775 12.0463 23.5271 12.2968 23.5271C12.5473 23.5271 12.7953 23.4775 13.0266 23.3812C13.2578 23.2848 13.4677 23.1437 13.6441 22.9658L23.1322 13.4777C23.305 13.2972 23.4404 13.0844 23.5307 12.8515C23.7205 12.3895 23.7205 11.8713 23.5307 11.4093Z" fill="black"/>
</svg>
