<svg width="28" height="28" viewBox="0 0 28 28" fill="none" xmlns="http://www.w3.org/2000/svg">
<path d="M14.0001 19.9587C13.7779 19.9587 13.5695 19.9242 13.3751 19.8553C13.1806 19.7864 13.0001 19.6681 12.8334 19.5003L6.83341 13.5003C6.50008 13.167 6.34008 12.7781 6.35342 12.3337C6.36675 11.8892 6.52675 11.5003 6.83341 11.167C7.16675 10.8337 7.56286 10.6603 8.02175 10.647C8.48064 10.6337 8.87619 10.7931 9.20841 11.1253L12.3334 14.2503V2.33366C12.3334 1.86144 12.4934 1.46589 12.8134 1.147C13.1334 0.828109 13.529 0.668109 14.0001 0.666998C14.4712 0.665887 14.8673 0.825887 15.1884 1.147C15.5095 1.46811 15.669 1.86366 15.6667 2.33366V14.2503L18.7917 11.1253C19.1251 10.792 19.5212 10.632 19.9801 10.6453C20.439 10.6587 20.8345 10.8326 21.1667 11.167C21.4723 11.5003 21.6323 11.8892 21.6467 12.3337C21.6612 12.7781 21.5012 13.167 21.1667 13.5003L15.1667 19.5003C15.0001 19.667 14.8195 19.7853 14.6251 19.8553C14.4306 19.9253 14.2223 19.9598 14.0001 19.9587ZM4.00008 27.3337C3.08341 27.3337 2.29897 27.0076 1.64675 26.3553C0.994525 25.7031 0.667859 24.9181 0.666748 24.0003V20.667C0.666748 20.1948 0.826748 19.7992 1.14675 19.4803C1.46675 19.1614 1.8623 19.0014 2.33341 19.0003C2.80453 18.9992 3.20064 19.1592 3.52175 19.4803C3.84286 19.8014 4.0023 20.197 4.00008 20.667V24.0003H24.0001V20.667C24.0001 20.1948 24.1601 19.7992 24.4801 19.4803C24.8001 19.1614 25.1956 19.0014 25.6667 19.0003C26.1379 18.9992 26.534 19.1592 26.8551 19.4803C27.1762 19.8014 27.3356 20.197 27.3334 20.667V24.0003C27.3334 24.917 27.0073 25.702 26.3551 26.3553C25.7029 27.0087 24.9179 27.3348 24.0001 27.3337H4.00008Z" fill="white"/>
</svg>
