<svg width="20" height="20" viewBox="0 0 20 20" fill="none" xmlns="http://www.w3.org/2000/svg">
<path d="M19 19L14.657 14.657M14.657 14.657C15.3999 13.9141 15.9892 13.0322 16.3912 12.0615C16.7933 11.0909 17.0002 10.0506 17.0002 8.99999C17.0002 7.94939 16.7933 6.90908 16.3912 5.93845C15.9892 4.96782 15.3999 4.08588 14.657 3.34299C13.9141 2.6001 13.0322 2.01081 12.0615 1.60877C11.0909 1.20672 10.0506 0.999786 8.99999 0.999786C7.94939 0.999786 6.90908 1.20672 5.93845 1.60877C4.96782 2.01081 4.08588 2.6001 3.34299 3.34299C1.84266 4.84332 0.999786 6.87821 0.999786 8.99999C0.999786 11.1218 1.84266 13.1567 3.34299 14.657C4.84332 16.1573 6.87821 17.0002 8.99999 17.0002C11.1218 17.0002 13.1567 16.1573 14.657 14.657Z" stroke="black" stroke-opacity="0.5" stroke-width="2" stroke-linecap="round" stroke-linejoin="round"/>
</svg>
