<svg width="13" height="11" viewBox="0 0 13 11" fill="none" xmlns="http://www.w3.org/2000/svg">
<path d="M3.57495 7.44701C3.38795 5.36301 1.78095 3.42101 0.999946 2.71101L0.569946 2.34101C2.36955 0.825786 4.6474 -0.00352463 6.99995 1.12603e-05C9.21395 1.12603e-05 11.2599 0.720011 12.9159 1.93601C13.1499 2.64701 12.7039 4.13201 12.2359 4.84201C12.0659 5.09901 11.6819 5.41901 11.2599 5.72201C10.3099 6.40501 9.10995 6.74201 8.49995 8.00001C8.34748 8.31673 8.31791 8.67874 8.41695 9.01601C8.47695 9.23601 8.51695 9.47501 8.51695 9.70801C8.51895 10.463 7.75495 11.008 6.99995 11C5.03595 10.979 3.74995 9.39601 3.57495 7.44701Z" fill="#0A2363"/>
</svg>
