<svg width="28" height="28" viewBox="0 0 28 28" fill="none" xmlns="http://www.w3.org/2000/svg">
<path d="M13.9998 19.9583C13.7776 19.9583 13.5693 19.9239 13.3748 19.855C13.1804 19.7861 12.9998 19.6677 12.8332 19.5L6.83317 13.5C6.49984 13.1666 6.33984 12.7777 6.35317 12.3333C6.3665 11.8889 6.5265 11.5 6.83317 11.1666C7.1665 10.8333 7.56261 10.66 8.0215 10.6466C8.48039 10.6333 8.87595 10.7927 9.20817 11.125L12.3332 14.25V2.3333C12.3332 1.86108 12.4932 1.46552 12.8132 1.14663C13.1332 0.827743 13.5287 0.667743 13.9998 0.666632C14.4709 0.665521 14.8671 0.825521 15.1882 1.14663C15.5093 1.46774 15.6687 1.8633 15.6665 2.3333V14.25L18.7915 11.125C19.1248 10.7916 19.5209 10.6316 19.9798 10.645C20.4387 10.6583 20.8343 10.8322 21.1665 11.1666C21.4721 11.5 21.6321 11.8889 21.6465 12.3333C21.6609 12.7777 21.5009 13.1666 21.1665 13.5L15.1665 19.5C14.9998 19.6666 14.8193 19.785 14.6248 19.855C14.4304 19.925 14.2221 19.9594 13.9998 19.9583ZM3.99984 27.3333C3.08317 27.3333 2.29873 27.0072 1.6465 26.355C0.994281 25.7027 0.667615 24.9177 0.666504 24V20.6666C0.666504 20.1944 0.826504 19.7989 1.1465 19.48C1.4665 19.1611 1.86206 19.0011 2.33317 19C2.80428 18.9989 3.20039 19.1589 3.5215 19.48C3.84261 19.8011 4.00206 20.1966 3.99984 20.6666V24H23.9998V20.6666C23.9998 20.1944 24.1598 19.7989 24.4798 19.48C24.7998 19.1611 25.1954 19.0011 25.6665 19C26.1376 18.9989 26.5337 19.1589 26.8548 19.48C27.1759 19.8011 27.3354 20.1966 27.3332 20.6666V24C27.3332 24.9166 27.0071 25.7016 26.3548 26.355C25.7026 27.0083 24.9176 27.3344 23.9998 27.3333H3.99984Z" fill="white"/>
</svg>
