<svg width="28" height="28" viewBox="0 0 28 28" fill="none" xmlns="http://www.w3.org/2000/svg">
<path d="M14 19.9587C13.7778 19.9587 13.5695 19.9242 13.375 19.8553C13.1806 19.7864 13 19.6681 12.8334 19.5003L6.83335 13.5003C6.50002 13.167 6.34002 12.7781 6.35335 12.3337C6.36669 11.8892 6.52669 11.5003 6.83335 11.167C7.16669 10.8337 7.5628 10.6603 8.02169 10.647C8.48058 10.6337 8.87613 10.7931 9.20835 11.1253L12.3334 14.2503V2.33366C12.3334 1.86144 12.4934 1.46589 12.8134 1.147C13.1334 0.828109 13.5289 0.668109 14 0.666998C14.4711 0.665887 14.8672 0.825887 15.1884 1.147C15.5095 1.46811 15.6689 1.86366 15.6667 2.33366V14.2503L18.7917 11.1253C19.125 10.792 19.5211 10.632 19.98 10.6453C20.4389 10.6587 20.8345 10.8326 21.1667 11.167C21.4722 11.5003 21.6322 11.8892 21.6467 12.3337C21.6611 12.7781 21.5011 13.167 21.1667 13.5003L15.1667 19.5003C15 19.667 14.8195 19.7853 14.625 19.8553C14.4306 19.9253 14.2222 19.9598 14 19.9587ZM4.00002 27.3337C3.08335 27.3337 2.29891 27.0076 1.64669 26.3553C0.994464 25.7031 0.667798 24.9181 0.666687 24.0003V20.667C0.666687 20.1948 0.826687 19.7992 1.14669 19.4803C1.46669 19.1614 1.86224 19.0014 2.33335 19.0003C2.80446 18.9992 3.20058 19.1592 3.52169 19.4803C3.8428 19.8014 4.00224 20.197 4.00002 20.667V24.0003H24V20.667C24 20.1948 24.16 19.7992 24.48 19.4803C24.8 19.1614 25.1956 19.0014 25.6667 19.0003C26.1378 18.9992 26.5339 19.1592 26.855 19.4803C27.1761 19.8014 27.3356 20.197 27.3334 20.667V24.0003C27.3334 24.917 27.0072 25.702 26.355 26.3553C25.7028 27.0087 24.9178 27.3348 24 27.3337H4.00002Z" fill="white"/>
</svg>
