<svg width="18" height="21" viewBox="0 0 18 21" fill="none" xmlns="http://www.w3.org/2000/svg">
<path fill-rule="evenodd" clip-rule="evenodd" d="M12.15 14.189C12.29 14.439 12.54 14.5691 12.8 14.5691V14.5591C12.92 14.5591 13.05 14.529 13.17 14.4591L15.37 13.1891C15.5411 13.0896 15.6656 12.9263 15.7162 12.735C15.7669 12.5437 15.7395 12.3401 15.64 12.1691C15.5405 11.998 15.3772 11.8734 15.1859 11.8228C14.9946 11.7722 14.7911 11.7996 14.62 11.8991L12.42 13.1691C12.07 13.3691 11.94 13.8291 12.15 14.189ZM10.06 11.9991C10.4 12.2091 10.8 12.3191 11.21 12.3191L11.22 12.3091C11.83 12.3091 12.33 12.0191 13.23 11.4891C14.1 10.9991 14.63 10.6891 14.96 10.1391C15.15 9.77905 15.25 9.39905 15.25 9.00905C15.25 8.37905 14.93 7.82905 14.44 6.99905L11.4 1.70905C10.9611 0.954567 10.2412 0.404694 9.3978 0.179792C8.55442 -0.045109 7.65629 0.073282 6.9 0.509051C6.14483 0.949858 5.59476 1.67157 5.36993 2.51658C5.14509 3.36159 5.26375 4.26124 5.7 5.01905L6.405 6.23405C6.16042 6.47978 5.97565 6.77848 5.865 7.10705C3.272 7.42205 1.25 9.64305 1.25 12.3191C1.25 15.0291 3.327 17.2741 5.97 17.5421L5.462 19.0691H1C0.59 19.0691 0.25 19.4091 0.25 19.8191C0.25 20.2291 0.59 20.5691 1 20.5691H5.896C5.966 20.5791 6.03567 20.5791 6.105 20.5691H10.499L10.489 20.5791C10.5318 20.5785 10.5746 20.5751 10.617 20.5691H17C17.41 20.5691 17.75 20.2291 17.75 19.8191C17.75 19.4091 17.41 19.0691 17 19.0691H11.037L10.539 17.5691H15C15.41 17.5691 15.75 17.2291 15.75 16.8191C15.75 16.4091 15.41 16.0691 15 16.0691H10.042L9.939 15.7591C9.689 15.0491 9.019 14.5791 8.219 14.5791C7.479 14.5791 6.809 15.049 6.559 15.769L6.459 16.0691C5.52105 16.0576 4.62142 15.6952 3.93751 15.0532C3.2536 14.4112 2.83504 13.5363 2.76438 12.6009C2.69371 11.6656 2.97606 10.7377 3.55576 10.0002C4.13545 9.26277 4.97041 8.76927 5.896 8.61705C6.09379 9.13532 6.47566 9.5625 6.96861 9.8169C7.46156 10.0713 8.03098 10.1351 8.568 9.99605L8.74 10.2891L8.745 10.2971C9.242 11.1721 9.542 11.699 10.06 11.9991ZM9.814 9.14905L10.04 9.53905L10.048 9.55205C10.384 10.1451 10.641 10.6 10.82 10.7091C10.95 10.7891 11.07 10.8191 11.21 10.8191C11.401 10.8191 11.758 10.6121 12.303 10.2961L12.47 10.1991L12.548 10.1541C13.127 9.81805 13.535 9.58105 13.65 9.39905C13.7109 9.28176 13.7419 9.15121 13.74 9.01905C13.74 8.80905 13.51 8.39905 13.13 7.75905L10.09 2.45905C9.97261 2.25468 9.81589 2.07559 9.62889 1.93214C9.44189 1.78869 9.22832 1.68371 9.00051 1.62327C8.77271 1.56283 8.53518 1.54813 8.30167 1.58002C8.06815 1.61191 7.84326 1.68975 7.64 1.80905C6.78 2.30905 6.49 3.40905 6.99 4.26905L7.752 5.58205C8.06636 5.54766 8.38443 5.57983 8.68553 5.67648C8.98664 5.77312 9.26402 5.93207 9.49965 6.14298C9.73527 6.35389 9.92385 6.61204 10.0531 6.90064C10.1824 7.18924 10.2495 7.50182 10.25 7.81805C10.25 8.31505 10.088 8.77505 9.814 9.14805M7.659 7.15105C7.76407 7.0966 7.88066 7.06813 7.999 7.06805C8.41 7.06805 8.75 7.40805 8.75 7.81805C8.75 8.22805 8.41 8.56805 8 8.56805C7.59 8.56805 7.25 8.22805 7.25 7.81805C7.25 7.53005 7.417 7.27605 7.659 7.15105ZM9.461 19.0681H7.048L7.98 16.2481C8.01 16.1381 8.11 16.0681 8.28 16.0681C8.39 16.0681 8.49 16.1481 8.52 16.2381L8.774 17.0011C8.78333 17.0344 8.79433 17.0667 8.807 17.0981L9.461 19.0681Z" fill="#0A2363"/>
</svg>
