<svg width="24" height="24" viewBox="0 0 24 24" fill="none" xmlns="http://www.w3.org/2000/svg">
<path fill-rule="evenodd" clip-rule="evenodd" d="M12 21.75C12.345 21.75 13.2645 21.411 14.2305 19.479C14.6895 18.561 15.075 17.424 15.3435 16.125H8.6565C8.925 17.424 9.3105 18.561 9.7695 19.479C10.7355 21.411 11.655 21.75 12 21.75ZM8.331 13.875C8.22229 12.6274 8.22229 11.3726 8.331 10.125H15.669C15.777 11.3727 15.777 12.6273 15.669 13.875H8.331ZM17.6355 16.125C17.2995 17.961 16.746 19.587 16.0365 20.877C18.1493 19.9122 19.8505 18.228 20.8365 16.125H17.6355ZM21.57 13.875H17.925C18.0228 12.6269 18.0228 11.3731 17.925 10.125H21.5685C21.8111 11.3632 21.8111 12.6368 21.5685 13.875H21.57ZM6.0735 13.875H2.43C2.18735 12.6368 2.18735 11.3632 2.43 10.125H6.075C5.97719 11.3731 5.97719 12.6269 6.075 13.875H6.0735ZM3.1635 16.125H6.3645C6.7005 17.961 7.254 19.587 7.9635 20.877C5.85069 19.9122 4.14948 18.228 3.1635 16.125ZM8.6565 7.875H15.3435C15.075 6.576 14.6895 5.439 14.2305 4.521C13.2645 2.589 12.345 2.25 12 2.25C11.655 2.25 10.7355 2.589 9.7695 4.521C9.3105 5.439 8.925 6.576 8.6565 7.875ZM17.6355 7.875H20.8365C19.8505 5.77199 18.1493 4.08779 16.0365 3.123C16.746 4.413 17.2995 6.039 17.6355 7.875ZM7.965 3.123C7.2555 4.413 6.702 6.039 6.366 7.875H3.1635C4.14948 5.77199 5.85219 4.08779 7.965 3.123ZM12 0C15.1826 0 18.2348 1.26428 20.4853 3.51472C22.7357 5.76516 24 8.8174 24 12C24 15.1826 22.7357 18.2348 20.4853 20.4853C18.2348 22.7357 15.1826 24 12 24C8.8174 24 5.76516 22.7357 3.51472 20.4853C1.26428 18.2348 0 15.1826 0 12C0 8.8174 1.26428 5.76516 3.51472 3.51472C5.76516 1.26428 8.8174 0 12 0Z" fill="#0A2363"/>
</svg>
