<svg width="24" height="24" viewBox="0 0 24 24" fill="none" xmlns="http://www.w3.org/2000/svg">
<path d="M23.5307 11.4093C23.4404 11.1764 23.305 10.9636 23.1322 10.7831L13.6441 1.29501C13.4672 1.11808 13.2572 0.977732 13.026 0.881978C12.7948 0.786223 12.5471 0.736938 12.2968 0.736938C11.7915 0.736938 11.3069 0.937684 10.9495 1.29501C10.7726 1.47194 10.6322 1.68199 10.5365 1.91316C10.4407 2.14433 10.3915 2.3921 10.3915 2.64232C10.3915 3.14766 10.5922 3.6323 10.9495 3.98963L17.2117 10.2328H2.80875C2.30547 10.2328 1.8228 10.4327 1.46693 10.7886C1.11106 11.1445 0.911133 11.6271 0.911133 12.1304C0.911133 12.6337 1.11106 13.1163 1.46693 13.4722C1.8228 13.8281 2.30547 14.028 2.80875 14.028H17.2117L10.9495 20.2712C10.7717 20.4476 10.6305 20.6575 10.5342 20.8887C10.4378 21.1199 10.3882 21.368 10.3882 21.6185C10.3882 21.869 10.4378 22.117 10.5342 22.3483C10.6305 22.5795 10.7717 22.7894 10.9495 22.9658C11.1259 23.1437 11.3358 23.2848 11.5671 23.3812C11.7983 23.4775 12.0463 23.5271 12.2968 23.5271C12.5473 23.5271 12.7954 23.4775 13.0266 23.3812C13.2579 23.2848 13.4677 23.1437 13.6441 22.9658L23.1322 13.4777C23.305 13.2972 23.4404 13.0844 23.5307 12.8515C23.7205 12.3895 23.7205 11.8713 23.5307 11.4093Z" fill="black"/>
</svg>
