<svg width="18" height="17" viewBox="0 0 18 17" fill="none" xmlns="http://www.w3.org/2000/svg">
<path d="M8.99984 14.275L4.84984 16.775C4.66651 16.8916 4.47484 16.9416 4.27484 16.9249C4.07484 16.9083 3.89984 16.8416 3.74984 16.725C3.59984 16.6083 3.48317 16.4626 3.39984 16.288C3.31651 16.1133 3.29984 15.9173 3.34984 15.7L4.44984 10.975L0.774841 7.79995C0.608174 7.64995 0.504174 7.47895 0.462841 7.28695C0.421507 7.09495 0.433841 6.90762 0.499841 6.72495C0.565841 6.54228 0.665841 6.39228 0.799841 6.27495C0.933841 6.15762 1.11717 6.08262 1.34984 6.04995L6.19984 5.62495L8.07484 1.17495C8.15817 0.974951 8.28751 0.824951 8.46284 0.724951C8.63817 0.624951 8.81717 0.574951 8.99984 0.574951C9.18251 0.574951 9.36151 0.624951 9.53684 0.724951C9.71217 0.824951 9.84151 0.974951 9.92484 1.17495L11.7998 5.62495L16.6498 6.04995C16.8832 6.08328 17.0665 6.15828 17.1998 6.27495C17.3332 6.39162 17.4332 6.54162 17.4998 6.72495C17.5665 6.90829 17.5792 7.09595 17.5378 7.28795C17.4965 7.47995 17.3922 7.65062 17.2248 7.79995L13.5498 10.975L14.6498 15.7C14.6998 15.9166 14.6832 16.1126 14.5998 16.288C14.5165 16.4633 14.3998 16.609 14.2498 16.725C14.0998 16.841 13.9248 16.9076 13.7248 16.9249C13.5248 16.9423 13.3332 16.8923 13.1498 16.775L8.99984 14.275Z" fill="#F9CB15"/>
</svg>
