<svg width="16" height="16" viewBox="0 0 16 16" fill="none" xmlns="http://www.w3.org/2000/svg">
<path d="M15.8933 7.49293C15.8299 7.32926 15.7347 7.17974 15.6133 7.05293L8.94667 0.386263C8.82235 0.261945 8.67476 0.163331 8.51233 0.0960503C8.34991 0.0287698 8.17581 -0.00585938 8 -0.00585938C7.64493 -0.00585938 7.30441 0.135191 7.05333 0.386263C6.92902 0.510581 6.8304 0.658168 6.76312 0.820597C6.69584 0.983027 6.66121 1.15712 6.66121 1.33293C6.66121 1.688 6.80226 2.02852 7.05333 2.2796L11.4533 6.66626H1.33333C0.979711 6.66626 0.640573 6.80674 0.390525 7.05679C0.140476 7.30684 0 7.64598 0 7.9996C0 8.35322 0.140476 8.69236 0.390525 8.94241C0.640573 9.19245 0.979711 9.33293 1.33333 9.33293H11.4533L7.05333 13.7196C6.92836 13.8435 6.82917 13.991 6.76148 14.1535C6.69379 14.316 6.65894 14.4902 6.65894 14.6663C6.65894 14.8423 6.69379 15.0166 6.76148 15.179C6.82917 15.3415 6.92836 15.489 7.05333 15.6129C7.17728 15.7379 7.32475 15.8371 7.48723 15.9048C7.64971 15.9725 7.82399 16.0073 8 16.0073C8.17602 16.0073 8.35029 15.9725 8.51277 15.9048C8.67525 15.8371 8.82272 15.7379 8.94667 15.6129L15.6133 8.94626C15.7347 8.81946 15.8299 8.66993 15.8933 8.50626C16.0267 8.18165 16.0267 7.81755 15.8933 7.49293Z" fill="black"/>
</svg>
