<svg width="13" height="11" viewBox="0 0 13 11" fill="none" xmlns="http://www.w3.org/2000/svg">
<path d="M3.57531 7.44701C3.38831 5.36301 1.78131 3.42101 1.00031 2.71101L0.570312 2.34101C2.36991 0.825786 4.64777 -0.00352463 7.00031 1.12603e-05C9.21431 1.12603e-05 11.2603 0.720011 12.9163 1.93601C13.1503 2.64701 12.7043 4.13201 12.2363 4.84201C12.0663 5.09901 11.6823 5.41901 11.2603 5.72201C10.3103 6.40501 9.11031 6.74201 8.50031 8.00001C8.34785 8.31673 8.31827 8.67874 8.41731 9.01601C8.47731 9.23601 8.51731 9.47501 8.51731 9.70801C8.51931 10.463 7.75531 11.008 7.00031 11C5.03631 10.979 3.75031 9.39601 3.57531 7.44701Z" fill="#0A2363"/>
</svg>
