<svg width="24" height="24" viewBox="0 0 24 24" fill="none" xmlns="http://www.w3.org/2000/svg">
<path d="M23.5307 11.4096C23.4404 11.1766 23.305 10.9638 23.1322 10.7833L13.6441 1.29526C13.4672 1.11832 13.2572 0.977976 13.026 0.882222C12.7948 0.786467 12.5471 0.737183 12.2968 0.737183C11.7915 0.737183 11.3069 0.937928 10.9495 1.29526C10.7726 1.47219 10.6322 1.68223 10.5365 1.91341C10.4407 2.14458 10.3915 2.39235 10.3915 2.64256C10.3915 3.1479 10.5922 3.63254 10.9495 3.98987L17.2117 10.233H2.80875C2.30547 10.233 1.8228 10.433 1.46693 10.7888C1.11106 11.1447 0.911133 11.6274 0.911133 12.1306C0.911133 12.6339 1.11106 13.1166 1.46693 13.4725C1.8228 13.8283 2.30547 14.0283 2.80875 14.0283H17.2117L10.9495 20.2714C10.7717 20.4478 10.6305 20.6577 10.5342 20.889C10.4378 21.1202 10.3882 21.3682 10.3882 21.6187C10.3882 21.8692 10.4378 22.1173 10.5342 22.3485C10.6305 22.5798 10.7717 22.7896 10.9495 22.966C11.1259 23.1439 11.3358 23.2851 11.5671 23.3814C11.7983 23.4777 12.0463 23.5273 12.2968 23.5273C12.5473 23.5273 12.7954 23.4777 13.0266 23.3814C13.2579 23.2851 13.4677 23.1439 13.6441 22.966L23.1322 13.478C23.305 13.2975 23.4404 13.0847 23.5307 12.8517C23.7205 12.3897 23.7205 11.8715 23.5307 11.4096Z" fill="black"/>
</svg>
