<svg width="24" height="24" viewBox="0 0 24 24" fill="none" xmlns="http://www.w3.org/2000/svg">
<path d="M23.2106 3.71671C23.2106 3.71671 17.2047 3.73443 17.168 3.85649C17.1483 3.91565 21.4477 6.36304 21.4477 6.36304V15.4718H23.2106V3.71671ZM5.87611 9.37551C7.08642 9.34354 7.40592 9.5474 7.51308 10.395C7.55245 11.784 6.7927 11.8482 5.87611 11.8482V9.37551ZM5.87611 13.1459L6.70111 13.1026C7.65328 13.0526 8.11805 12.8169 8.61361 12.1329C9.35564 11.1085 9.20719 9.22719 8.3257 8.48549C7.85245 8.08724 7.44305 8.02082 5.90058 8.09198L4.50502 8.15634C4.50502 8.15634 4.53441 15.6643 4.57031 15.7003C4.60622 15.7362 5.87611 15.7656 5.87611 15.7656V13.1459ZM20.6642 6.55968H13.613V8.12662H18.9994V11.2605H13.613V12.6316H18.9994V13.611H13.613V15.08H18.9994V16.0594H13.613V17.5284H18.9994V18.5077H13.613V19.9768H20.6643L20.6642 6.55968ZM0 20.9087V3.08146L13.613 0.704102V5.77616H16.4663C16.4663 5.77616 16.4052 3.70321 16.4663 3.52776C16.6616 2.9677 16.8645 2.93605 20.2648 2.93605C23.4763 2.93605 23.6897 2.96296 23.8853 3.39215C24.0382 3.72777 24.0382 15.4635 23.8853 15.7991C23.7225 16.1565 23.3953 16.2552 22.3735 16.2552H21.441V19.0949C21.441 20.6022 21.3288 20.7578 20.063 20.7602H13.613V23.2964L0 20.9087Z" fill="#0A2363"/>
</svg>
