<svg width="21" height="20" viewBox="0 0 21 20" fill="none" xmlns="http://www.w3.org/2000/svg">
<path d="M21 8.99993C21.0028 8.29509 20.8193 7.60203 20.4681 6.99092C20.1169 6.37981 19.6104 5.87235 19 5.51993C19.015 5.34693 19.015 5.17294 19 4.99993C19 4.20428 18.6839 3.44122 18.1213 2.87861C17.5587 2.316 16.7956 1.99993 16 1.99993H15.82C15.6535 1.53825 15.3762 1.12447 15.0125 0.79488C14.6488 0.465293 14.2099 0.229967 13.7341 0.109537C13.2583 -0.0108932 12.7602 -0.0127487 12.2835 0.104133C11.8068 0.221015 11.3661 0.453065 11 0.779933C10.6339 0.453065 10.1931 0.221015 9.71646 0.104133C9.23978 -0.0127487 8.7417 -0.0108932 8.2659 0.109537C7.7901 0.229967 7.35112 0.465293 6.98744 0.79488C6.62377 1.12447 6.34651 1.53825 6.17998 1.99993H5.99998C5.20433 1.99993 4.44127 2.316 3.87866 2.87861C3.31605 3.44122 2.99998 4.20428 2.99998 4.99993C2.98493 5.17294 2.98493 5.34693 2.99998 5.51993C2.43244 5.84073 1.95192 6.29538 1.60022 6.84431C1.24853 7.39323 1.03634 8.0198 0.982121 8.66947C0.9279 9.31914 1.03329 9.97222 1.28912 10.5719C1.54496 11.1715 1.94347 11.6995 2.44998 12.1099C2.12226 12.7212 1.9591 13.4072 1.97653 14.1005C1.99396 14.7939 2.19138 15.4708 2.54941 16.0648C2.90744 16.6589 3.41377 17.1496 4.01871 17.4888C4.62366 17.8281 5.30642 18.0042 5.99998 17.9999H6.17998C6.34651 18.4616 6.62377 18.8754 6.98744 19.205C7.35112 19.5346 7.7901 19.7699 8.2659 19.8903C8.7417 20.0108 9.23978 20.0126 9.71646 19.8957C10.1931 19.7789 10.6339 19.5468 11 19.2199C11.3661 19.5468 11.8068 19.7789 12.2835 19.8957C12.7602 20.0126 13.2583 20.0108 13.7341 19.8903C14.2099 19.7699 14.6488 19.5346 15.0125 19.205C15.3762 18.8754 15.6535 18.4616 15.82 17.9999H16C16.6893 17.9956 17.3658 17.8131 17.9639 17.4703C18.5619 17.1275 19.0613 16.636 19.4134 16.0434C19.7655 15.4508 19.9586 14.7772 19.9737 14.088C19.9889 13.3989 19.8257 12.7175 19.5 12.1099C19.9664 11.7365 20.3433 11.2633 20.6028 10.7251C20.8624 10.1869 20.9981 9.59744 21 8.99993ZM9.99998 6.54993C9.78167 6.42636 9.55436 6.31939 9.31998 6.22993C9.06803 6.14506 8.79268 6.16376 8.55451 6.28191C8.31634 6.40006 8.13485 6.60798 8.04998 6.85993C7.96512 7.11189 7.98381 7.38724 8.10196 7.62541C8.22011 7.86358 8.42803 8.04506 8.67998 8.12993C9.06493 8.2691 9.3979 8.52302 9.63395 8.85743C9.87 9.19183 9.99776 9.59061 9.99998 9.99993V11.5499C9.78167 11.4264 9.55436 11.3194 9.31998 11.2299C9.06803 11.1451 8.79268 11.1638 8.55451 11.2819C8.31634 11.4001 8.13485 11.608 8.04998 11.8599C7.96512 12.1119 7.98381 12.3872 8.10196 12.6254C8.22011 12.8636 8.42803 13.0451 8.67998 13.1299C9.06493 13.2691 9.3979 13.523 9.63395 13.8574C9.87 14.1918 9.99776 14.5906 9.99998 14.9999V16.9999C9.99998 17.2652 9.89463 17.5195 9.70709 17.707C9.51956 17.8946 9.2652 17.9999 8.99998 17.9999C8.80652 17.9987 8.61757 17.9413 8.45605 17.8348C8.29453 17.7283 8.16737 17.5773 8.08998 17.3999C8.25779 17.3017 8.41822 17.1915 8.56998 17.0699C8.6711 16.9859 8.75468 16.8827 8.81593 16.7664C8.87719 16.6501 8.91493 16.5228 8.92701 16.3919C8.93908 16.2609 8.92524 16.1289 8.88629 16.0033C8.84734 15.8777 8.78403 15.7611 8.69998 15.6599C8.61594 15.5588 8.5128 15.4752 8.39645 15.414C8.28011 15.3527 8.15284 15.315 8.02191 15.3029C7.89098 15.2908 7.75895 15.3047 7.63337 15.3436C7.50778 15.3826 7.3911 15.4459 7.28998 15.5299C6.92891 15.8339 6.47197 16.0004 5.99998 15.9999C5.46955 15.9999 4.96084 15.7892 4.58577 15.4141C4.2107 15.0391 3.99998 14.5304 3.99998 13.9999C4.00477 13.6235 4.11569 13.2561 4.31998 12.9399C4.54453 12.9793 4.77202 12.9993 4.99998 12.9999C5.2652 12.9999 5.51955 12.8946 5.70709 12.707C5.89463 12.5195 5.99998 12.2651 5.99998 11.9999C5.99998 11.7347 5.89463 11.4804 5.70709 11.2928C5.51955 11.1053 5.2652 10.9999 4.99998 10.9999C4.76368 11.0023 4.52922 10.9581 4.30998 10.8699C3.95033 10.7402 3.63539 10.5101 3.40247 10.2069C3.16956 9.90374 3.02843 9.54014 2.99581 9.1592C2.96319 8.77826 3.04044 8.39596 3.21841 8.05757C3.39639 7.71919 3.66762 7.43891 3.99998 7.24993C4.14169 7.38113 4.29574 7.49834 4.45998 7.59993C4.69072 7.73254 4.96469 7.76806 5.22161 7.69867C5.47854 7.62928 5.69738 7.46067 5.82998 7.22993C5.96259 6.99919 5.99811 6.72523 5.92872 6.4683C5.85933 6.21138 5.69072 5.99254 5.45998 5.85993C5.31921 5.78228 5.20181 5.66833 5.11998 5.52993C5.02633 5.36985 4.98442 5.18474 4.99998 4.99993C4.99998 4.73472 5.10534 4.48036 5.29288 4.29283C5.48041 4.10529 5.73477 3.99993 5.99998 3.99993C6.06968 3.99071 6.14029 3.99071 6.20998 3.99993C6.26332 4.16046 6.32678 4.31744 6.39998 4.46993C6.46531 4.58452 6.55267 4.68505 6.65702 4.76574C6.76136 4.84642 6.88064 4.90566 7.00798 4.94005C7.13532 4.97445 7.26821 4.9833 7.39899 4.96612C7.52976 4.94894 7.65585 4.90605 7.76998 4.83993C7.99169 4.70654 8.15306 4.49241 8.22019 4.24253C8.28733 3.99265 8.25499 3.72647 8.12998 3.49993C8.04608 3.34654 8.00142 3.17477 7.99998 2.99993C7.99998 2.73472 8.10534 2.48036 8.29288 2.29283C8.48041 2.10529 8.73477 1.99993 8.99998 1.99993C9.2652 1.99993 9.51956 2.10529 9.70709 2.29283C9.89463 2.48036 9.99998 2.73472 9.99998 2.99993V6.54993ZM17.69 10.8699C17.4707 10.9581 17.2363 11.0023 17 10.9999C16.7348 10.9999 16.4804 11.1053 16.2929 11.2928C16.1053 11.4804 16 11.7347 16 11.9999C16 12.2651 16.1053 12.5195 16.2929 12.707C16.4804 12.8946 16.7348 12.9999 17 12.9999C17.2279 12.9993 17.4554 12.9793 17.68 12.9399C17.8843 13.2561 17.9952 13.6235 18 13.9999C18 14.5304 17.7893 15.0391 17.4142 15.4141C17.0391 15.7892 16.5304 15.9999 16 15.9999C15.528 16.0004 15.0711 15.8339 14.71 15.5299C14.5058 15.3602 14.2425 15.2785 13.9781 15.3029C13.7136 15.3273 13.4697 15.4557 13.3 15.6599C13.1302 15.8641 13.0486 16.1274 13.073 16.3919C13.0973 16.6563 13.2258 16.9002 13.43 17.0699C13.5818 17.1915 13.7422 17.3017 13.91 17.3999C13.8326 17.5773 13.7054 17.7283 13.5439 17.8348C13.3824 17.9413 13.1935 17.9987 13 17.9999C12.7348 17.9999 12.4804 17.8946 12.2929 17.707C12.1053 17.5195 12 17.2652 12 16.9999V14.9999C12.0022 14.5906 12.13 14.1918 12.366 13.8574C12.6021 13.523 12.935 13.2691 13.32 13.1299C13.5719 13.0451 13.7799 12.8636 13.898 12.6254C14.0162 12.3872 14.0349 12.1119 13.95 11.8599C13.8651 11.608 13.6836 11.4001 13.4455 11.2819C13.2073 11.1638 12.9319 11.1451 12.68 11.2299C12.4456 11.3194 12.2183 11.4264 12 11.5499V9.99993C12.0022 9.59061 12.13 9.19183 12.366 8.85743C12.6021 8.52302 12.935 8.2691 13.32 8.12993C13.4447 8.08791 13.56 8.02173 13.6592 7.93516C13.7584 7.84859 13.8395 7.74334 13.898 7.62541C13.9565 7.50748 13.9912 7.37918 14.0001 7.24784C14.009 7.1165 13.992 6.98469 13.95 6.85993C13.908 6.73518 13.8418 6.61992 13.7552 6.52074C13.6686 6.42156 13.5634 6.34041 13.4455 6.28191C13.3275 6.22341 13.1992 6.18871 13.0679 6.17979C12.9366 6.17087 12.8047 6.18791 12.68 6.22993C12.4456 6.31939 12.2183 6.42636 12 6.54993V2.99993C12 2.73472 12.1053 2.48036 12.2929 2.29283C12.4804 2.10529 12.7348 1.99993 13 1.99993C13.2652 1.99993 13.5196 2.10529 13.7071 2.29283C13.8946 2.48036 14 2.73472 14 2.99993C13.9986 3.17477 13.9539 3.34654 13.87 3.49993C13.8035 3.61347 13.76 3.73902 13.7421 3.86939C13.7242 3.99976 13.7322 4.13239 13.7656 4.25966C13.799 4.38694 13.8573 4.50636 13.937 4.61108C14.0167 4.71581 14.1162 4.80377 14.23 4.86993C14.3441 4.93605 14.4702 4.97894 14.601 4.99612C14.7318 5.0133 14.8646 5.00445 14.992 4.97005C15.1193 4.93566 15.2386 4.87642 15.343 4.79574C15.4473 4.71505 15.5347 4.61452 15.6 4.49993C15.6744 4.33769 15.7379 4.17065 15.79 3.99993C15.8597 3.99071 15.9303 3.99071 16 3.99993C16.2652 3.99993 16.5196 4.10529 16.7071 4.29283C16.8946 4.48036 17 4.73472 17 4.99993C16.9985 5.19597 16.9393 5.38723 16.83 5.54993C16.7482 5.6797 16.6346 5.78641 16.5 5.85993C16.2692 5.99254 16.1006 6.21138 16.0312 6.4683C15.9619 6.72523 15.9974 6.99919 16.13 7.22993C16.2626 7.46067 16.4814 7.62928 16.7384 7.69867C16.9953 7.76806 17.2692 7.73254 17.5 7.59993C17.6793 7.50254 17.8471 7.38512 18 7.24993C18.3335 7.43557 18.6069 7.71276 18.7879 8.04877C18.969 8.38478 19.0501 8.76558 19.0217 9.14621C18.9933 9.52684 18.8566 9.89139 18.6277 10.1968C18.3988 10.5023 18.0873 10.7358 17.73 10.8699H17.69Z" fill="#0A2363"/>
</svg>
