<svg width="24" height="24" viewBox="0 0 24 24" fill="none" xmlns="http://www.w3.org/2000/svg">
<path d="M23.5307 11.4094C23.4404 11.1765 23.305 10.9637 23.1322 10.7832L13.6441 1.29513C13.4672 1.1182 13.2571 0.977854 13.026 0.8821C12.7948 0.786345 12.547 0.737061 12.2968 0.737061C11.7915 0.737061 11.3068 0.937806 10.9495 1.29513C10.7726 1.47206 10.6322 1.68211 10.5365 1.91328C10.4407 2.14446 10.3914 2.39222 10.3914 2.64244C10.3914 3.14778 10.5922 3.63242 10.9495 3.98975L17.2116 10.2329H2.80872C2.30544 10.2329 1.82277 10.4328 1.4669 10.7887C1.11103 11.1446 0.911102 11.6272 0.911102 12.1305C0.911102 12.6338 1.11103 13.1165 1.4669 13.4723C1.82277 13.8282 2.30544 14.0281 2.80872 14.0281H17.2116L10.9495 20.2713C10.7716 20.4477 10.6305 20.6576 10.5341 20.8888C10.4378 21.1201 10.3882 21.3681 10.3882 21.6186C10.3882 21.8691 10.4378 22.1171 10.5341 22.3484C10.6305 22.5796 10.7716 22.7895 10.9495 22.9659C11.1259 23.1438 11.3358 23.2849 11.567 23.3813C11.7983 23.4776 12.0463 23.5272 12.2968 23.5272C12.5473 23.5272 12.7953 23.4776 13.0266 23.3813C13.2578 23.2849 13.4677 23.1438 13.6441 22.9659L23.1322 13.4778C23.305 13.2974 23.4404 13.0846 23.5307 12.8516C23.7205 12.3896 23.7205 11.8714 23.5307 11.4094Z" fill="black"/>
</svg>
