<svg width="21" height="20" viewBox="0 0 21 20" fill="none" xmlns="http://www.w3.org/2000/svg">
<path d="M21 9.00018C21.0028 8.29534 20.8193 7.60227 20.4681 6.99116C20.1169 6.38005 19.6104 5.87259 19 5.52018C19.015 5.34717 19.015 5.17318 19 5.00018C19 4.20453 18.6839 3.44147 18.1213 2.87886C17.5587 2.31625 16.7956 2.00018 16 2.00018H15.82C15.6535 1.53849 15.3762 1.12471 15.0125 0.795124C14.6488 0.465537 14.2099 0.230211 13.7341 0.109781C13.2583 -0.010649 12.7602 -0.0125045 12.2835 0.104378C11.8068 0.22126 11.3661 0.453309 11 0.780177C10.6339 0.453309 10.1931 0.22126 9.71646 0.104378C9.23978 -0.0125045 8.7417 -0.010649 8.2659 0.109781C7.7901 0.230211 7.35112 0.465537 6.98744 0.795124C6.62377 1.12471 6.34651 1.53849 6.17998 2.00018H5.99998C5.20433 2.00018 4.44127 2.31625 3.87866 2.87886C3.31605 3.44147 2.99998 4.20453 2.99998 5.00018C2.98493 5.17318 2.98493 5.34717 2.99998 5.52018C2.43244 5.84097 1.95192 6.29562 1.60022 6.84455C1.24853 7.39348 1.03634 8.02005 0.982121 8.66972C0.9279 9.31939 1.03329 9.97246 1.28912 10.5721C1.54496 11.1717 1.94347 11.6997 2.44998 12.1102C2.12226 12.7214 1.9591 13.4074 1.97653 14.1008C1.99396 14.7941 2.19138 15.471 2.54941 16.0651C2.90744 16.6591 3.41377 17.1498 4.01871 17.4891C4.62366 17.8283 5.30642 18.0045 5.99998 18.0002H6.17998C6.34651 18.4619 6.62377 18.8756 6.98744 19.2052C7.35112 19.5348 7.7901 19.7701 8.2659 19.8906C8.7417 20.011 9.23978 20.0129 9.71646 19.896C10.1931 19.7791 10.6339 19.547 11 19.2202C11.3661 19.547 11.8068 19.7791 12.2835 19.896C12.7602 20.0129 13.2583 20.011 13.7341 19.8906C14.2099 19.7701 14.6488 19.5348 15.0125 19.2052C15.3762 18.8756 15.6535 18.4619 15.82 18.0002H16C16.6893 17.9958 17.3658 17.8134 17.9639 17.4706C18.5619 17.1278 19.0613 16.6362 19.4134 16.0436C19.7655 15.451 19.9586 14.7775 19.9737 14.0883C19.9889 13.3991 19.8257 12.7177 19.5 12.1102C19.9664 11.7367 20.3433 11.2635 20.6028 10.7254C20.8624 10.1872 20.9981 9.59768 21 9.00018ZM9.99998 6.55018C9.78167 6.4266 9.55436 6.31963 9.31998 6.23018C9.06803 6.14531 8.79268 6.164 8.55451 6.28215C8.31634 6.4003 8.13485 6.60822 8.04998 6.86018C7.96512 7.11213 7.98381 7.38748 8.10196 7.62565C8.22011 7.86382 8.42803 8.04531 8.67998 8.13018C9.06493 8.26934 9.3979 8.52327 9.63395 8.85767C9.87 9.19208 9.99776 9.59086 9.99998 10.0002V11.5502C9.78167 11.4266 9.55436 11.3196 9.31998 11.2302C9.06803 11.1453 8.79268 11.164 8.55451 11.2822C8.31634 11.4003 8.13485 11.6082 8.04998 11.8602C7.96512 12.1121 7.98381 12.3875 8.10196 12.6257C8.22011 12.8638 8.42803 13.0453 8.67998 13.1302C9.06493 13.2693 9.3979 13.5233 9.63395 13.8577C9.87 14.1921 9.99776 14.5909 9.99998 15.0002V17.0002C9.99998 17.2654 9.89463 17.5197 9.70709 17.7073C9.51956 17.8948 9.2652 18.0002 8.99998 18.0002C8.80652 17.9989 8.61757 17.9416 8.45605 17.8351C8.29453 17.7286 8.16737 17.5775 8.08998 17.4002C8.25779 17.302 8.41822 17.1917 8.56998 17.0702C8.6711 16.9861 8.75468 16.883 8.81593 16.7666C8.87719 16.6503 8.91493 16.523 8.92701 16.3921C8.93908 16.2612 8.92524 16.1291 8.88629 16.0036C8.84734 15.878 8.78403 15.7613 8.69998 15.6602C8.61594 15.5591 8.5128 15.4755 8.39645 15.4142C8.28011 15.353 8.15284 15.3152 8.02191 15.3032C7.89098 15.2911 7.75895 15.3049 7.63337 15.3439C7.50778 15.3828 7.3911 15.4461 7.28998 15.5302C6.92891 15.8342 6.47197 16.0006 5.99998 16.0002C5.46955 16.0002 4.96084 15.7895 4.58577 15.4144C4.2107 15.0393 3.99998 14.5306 3.99998 14.0002C4.00477 13.6238 4.11569 13.2564 4.31998 12.9402C4.54453 12.9795 4.77202 12.9996 4.99998 13.0002C5.2652 13.0002 5.51955 12.8948 5.70709 12.7073C5.89463 12.5197 5.99998 12.2654 5.99998 12.0002C5.99998 11.735 5.89463 11.4806 5.70709 11.2931C5.51955 11.1055 5.2652 11.0002 4.99998 11.0002C4.76368 11.0026 4.52922 10.9584 4.30998 10.8702C3.95033 10.7405 3.63539 10.5104 3.40247 10.2072C3.16956 9.90399 3.02843 9.54038 2.99581 9.15944C2.96319 8.77851 3.04044 8.3962 3.21841 8.05782C3.39639 7.71943 3.66762 7.43915 3.99998 7.25018C4.14169 7.38138 4.29574 7.49859 4.45998 7.60018C4.69072 7.73279 4.96469 7.7683 5.22161 7.69891C5.47854 7.62952 5.69738 7.46091 5.82998 7.23018C5.96259 6.99944 5.99811 6.72547 5.92872 6.46855C5.85933 6.21162 5.69072 5.99279 5.45998 5.86018C5.31921 5.78252 5.20181 5.66857 5.11998 5.53018C5.02633 5.37009 4.98442 5.18499 4.99998 5.00018C4.99998 4.73496 5.10534 4.48061 5.29288 4.29307C5.48041 4.10553 5.73477 4.00018 5.99998 4.00018C6.06968 3.99095 6.14029 3.99095 6.20998 4.00018C6.26332 4.1607 6.32678 4.31769 6.39998 4.47018C6.46531 4.58476 6.55267 4.6853 6.65702 4.76598C6.76136 4.84666 6.88064 4.90591 7.00798 4.9403C7.13532 4.97469 7.26821 4.98355 7.39899 4.96637C7.52976 4.94918 7.65585 4.9063 7.76998 4.84018C7.99169 4.70678 8.15306 4.49265 8.22019 4.24277C8.28733 3.99289 8.25499 3.72672 8.12998 3.50018C8.04608 3.34678 8.00142 3.17501 7.99998 3.00018C7.99998 2.73496 8.10534 2.48061 8.29288 2.29307C8.48041 2.10553 8.73477 2.00018 8.99998 2.00018C9.2652 2.00018 9.51956 2.10553 9.70709 2.29307C9.89463 2.48061 9.99998 2.73496 9.99998 3.00018V6.55018ZM17.69 10.8702C17.4707 10.9584 17.2363 11.0026 17 11.0002C16.7348 11.0002 16.4804 11.1055 16.2929 11.2931C16.1053 11.4806 16 11.735 16 12.0002C16 12.2654 16.1053 12.5197 16.2929 12.7073C16.4804 12.8948 16.7348 13.0002 17 13.0002C17.2279 12.9996 17.4554 12.9795 17.68 12.9402C17.8843 13.2564 17.9952 13.6238 18 14.0002C18 14.5306 17.7893 15.0393 17.4142 15.4144C17.0391 15.7895 16.5304 16.0002 16 16.0002C15.528 16.0006 15.0711 15.8342 14.71 15.5302C14.5058 15.3604 14.2425 15.2788 13.9781 15.3032C13.7136 15.3275 13.4697 15.456 13.3 15.6602C13.1302 15.8644 13.0486 16.1277 13.073 16.3921C13.0973 16.6565 13.2258 16.9004 13.43 17.0702C13.5818 17.1917 13.7422 17.302 13.91 17.4002C13.8326 17.5775 13.7054 17.7286 13.5439 17.8351C13.3824 17.9416 13.1935 17.9989 13 18.0002C12.7348 18.0002 12.4804 17.8948 12.2929 17.7073C12.1053 17.5197 12 17.2654 12 17.0002V15.0002C12.0022 14.5909 12.13 14.1921 12.366 13.8577C12.6021 13.5233 12.935 13.2693 13.32 13.1302C13.5719 13.0453 13.7799 12.8638 13.898 12.6257C14.0162 12.3875 14.0349 12.1121 13.95 11.8602C13.8651 11.6082 13.6836 11.4003 13.4455 11.2822C13.2073 11.164 12.9319 11.1453 12.68 11.2302C12.4456 11.3196 12.2183 11.4266 12 11.5502V10.0002C12.0022 9.59086 12.13 9.19208 12.366 8.85767C12.6021 8.52327 12.935 8.26934 13.32 8.13018C13.4447 8.08815 13.56 8.02197 13.6592 7.9354C13.7584 7.84884 13.8395 7.74358 13.898 7.62565C13.9565 7.50772 13.9912 7.37943 14.0001 7.24808C14.009 7.11674 13.992 6.98493 13.95 6.86018C13.908 6.73542 13.8418 6.62016 13.7552 6.52099C13.6686 6.42181 13.5634 6.34065 13.4455 6.28215C13.3275 6.22365 13.1992 6.18895 13.0679 6.18003C12.9366 6.17111 12.8047 6.18815 12.68 6.23018C12.4456 6.31963 12.2183 6.4266 12 6.55018V3.00018C12 2.73496 12.1053 2.48061 12.2929 2.29307C12.4804 2.10553 12.7348 2.00018 13 2.00018C13.2652 2.00018 13.5196 2.10553 13.7071 2.29307C13.8946 2.48061 14 2.73496 14 3.00018C13.9986 3.17501 13.9539 3.34678 13.87 3.50018C13.8035 3.61371 13.76 3.73927 13.7421 3.86964C13.7242 4.00001 13.7322 4.13263 13.7656 4.25991C13.799 4.38718 13.8573 4.5066 13.937 4.61133C14.0167 4.71605 14.1162 4.80401 14.23 4.87018C14.3441 4.9363 14.4702 4.97918 14.601 4.99637C14.7318 5.01355 14.8646 5.00469 14.992 4.9703C15.1193 4.93591 15.2386 4.87666 15.343 4.79598C15.4473 4.7153 15.5347 4.61476 15.6 4.50018C15.6744 4.33794 15.7379 4.1709 15.79 4.00018C15.8597 3.99095 15.9303 3.99095 16 4.00018C16.2652 4.00018 16.5196 4.10553 16.7071 4.29307C16.8946 4.48061 17 4.73496 17 5.00018C16.9985 5.19621 16.9393 5.38747 16.83 5.55018C16.7482 5.67994 16.6346 5.78665 16.5 5.86018C16.2692 5.99279 16.1006 6.21162 16.0312 6.46855C15.9619 6.72547 15.9974 6.99944 16.13 7.23018C16.2626 7.46091 16.4814 7.62952 16.7384 7.69891C16.9953 7.7683 17.2692 7.73279 17.5 7.60018C17.6793 7.50278 17.8471 7.38537 18 7.25018C18.3335 7.43581 18.6069 7.713 18.7879 8.04901C18.969 8.38502 19.0501 8.76583 19.0217 9.14645C18.9933 9.52708 18.8566 9.89163 18.6277 10.1971C18.3988 10.5025 18.0873 10.7361 17.73 10.8702H17.69Z" fill="#0A2363"/>
</svg>
