<svg width="28" height="28" viewBox="0 0 28 28" fill="none" xmlns="http://www.w3.org/2000/svg">
<path d="M14.0003 19.9582C13.7781 19.9582 13.5698 19.9237 13.3753 19.8548C13.1809 19.786 13.0003 19.6676 12.8337 19.4998L6.83366 13.4998C6.50033 13.1665 6.34033 12.7776 6.35366 12.3332C6.36699 11.8887 6.52699 11.4998 6.83366 11.1665C7.16699 10.8332 7.5631 10.6598 8.02199 10.6465C8.48088 10.6332 8.87644 10.7926 9.20866 11.1248L12.3337 14.2498V2.33318C12.3337 1.86095 12.4937 1.4654 12.8137 1.14651C13.1337 0.827621 13.5292 0.667621 14.0003 0.66651C14.4714 0.665399 14.8675 0.825399 15.1887 1.14651C15.5098 1.46762 15.6692 1.86318 15.667 2.33318V14.2498L18.792 11.1248C19.1253 10.7915 19.5214 10.6315 19.9803 10.6448C20.4392 10.6582 20.8348 10.8321 21.167 11.1665C21.4725 11.4998 21.6325 11.8887 21.647 12.3332C21.6614 12.7776 21.5014 13.1665 21.167 13.4998L15.167 19.4998C15.0003 19.6665 14.8198 19.7848 14.6253 19.8548C14.4309 19.9248 14.2225 19.9593 14.0003 19.9582ZM4.00033 27.3332C3.08366 27.3332 2.29921 27.0071 1.64699 26.3548C0.99477 25.7026 0.668103 24.9176 0.666992 23.9998V20.6665C0.666992 20.1943 0.826992 19.7987 1.14699 19.4798C1.46699 19.161 1.86255 19.001 2.33366 18.9998C2.80477 18.9987 3.20088 19.1587 3.52199 19.4798C3.8431 19.801 4.00255 20.1965 4.00033 20.6665V23.9998H24.0003V20.6665C24.0003 20.1943 24.1603 19.7987 24.4803 19.4798C24.8003 19.161 25.1959 19.001 25.667 18.9998C26.1381 18.9987 26.5342 19.1587 26.8553 19.4798C27.1764 19.801 27.3359 20.1965 27.3337 20.6665V23.9998C27.3337 24.9165 27.0075 25.7015 26.3553 26.3548C25.7031 27.0082 24.9181 27.3343 24.0003 27.3332H4.00033Z" fill="white"/>
</svg>
