<svg width="20" height="20" viewBox="0 0 20 20" fill="none" xmlns="http://www.w3.org/2000/svg">
<path d="M2.30769 3.07715C1.03385 3.07715 0 4.11099 0 5.38484V14.6156C0 15.8895 1.03385 16.9233 2.30769 16.9233H17.6923C18.9662 16.9233 20 15.8895 20 14.6156V5.38484C20 4.11099 18.9662 3.07715 17.6923 3.07715H2.30769ZM2.30769 4.61561H17.6923C18.1162 4.61561 18.4615 4.96099 18.4615 5.38484V5.76946L10 10.3371L1.53846 5.76946V5.38484C1.53846 4.96099 1.88385 4.61561 2.30769 4.61561ZM1.53846 5.98561L6.56231 9.90407L1.63462 14.9525L7.64462 10.6733L10 12.1879L12.3562 10.6733L18.3654 14.9525L13.4377 9.90407L18.4615 5.98561V14.6156C18.4573 14.7341 18.4243 14.8497 18.3654 14.9525C18.2385 15.2025 17.9915 15.3848 17.6923 15.3848H2.30769C2.00846 15.3848 1.76154 15.2033 1.63462 14.9525C1.57584 14.8499 1.54284 14.7338 1.53846 14.6156V5.98561Z" fill="white" fill-opacity="0.5"/>
</svg>
