<svg width="20" height="20" viewBox="0 0 20 20" fill="none" xmlns="http://www.w3.org/2000/svg">
<path d="M2.30769 3.0769C1.03385 3.0769 0 4.11075 0 5.3846V14.6154C0 15.8892 1.03385 16.9231 2.30769 16.9231H17.6923C18.9662 16.9231 20 15.8892 20 14.6154V5.3846C20 4.11075 18.9662 3.0769 17.6923 3.0769H2.30769ZM2.30769 4.61537H17.6923C18.1162 4.61537 18.4615 4.96075 18.4615 5.3846V5.76921L10 10.3369L1.53846 5.76921V5.3846C1.53846 4.96075 1.88385 4.61537 2.30769 4.61537ZM1.53846 5.98537L6.56231 9.90383L1.63462 14.9523L7.64462 10.6731L10 12.1877L12.3562 10.6731L18.3654 14.9523L13.4377 9.90383L18.4615 5.98537V14.6154C18.4573 14.7338 18.4243 14.8494 18.3654 14.9523C18.2385 15.2023 17.9915 15.3846 17.6923 15.3846H2.30769C2.00846 15.3846 1.76154 15.2031 1.63462 14.9523C1.57584 14.8497 1.54284 14.7335 1.53846 14.6154V5.98537Z" fill="white" fill-opacity="0.5"/>
</svg>
